<?xml version="1.0" encoding="UTF-8" standalone="no"?>
<svg width="42px" height="42px" viewBox="0 0 42 42" version="1.1" xmlns="http://www.w3.org/2000/svg" xmlns:xlink="http://www.w3.org/1999/xlink">
    <!-- Generator: Sketch 40.2 (33826) - http://www.bohemiancoding.com/sketch -->
    <title>Page 1 Copy</title>
    <desc>Created with Sketch.</desc>
    <defs></defs>
    <g id="Page-1" stroke="none" stroke-width="1" fill="none" fill-rule="evenodd">
        <path d="M37.5352035,22.1334861 L37.5352035,12.7666333 C37.5352035,12.3456435 37.1935307,12.0039707 36.7725409,12.0039707 L25.5339445,12.0039707 L25.5339445,0.762662621 C25.5339445,0.341672854 25.1922717,0 24.770604,0 L12.769345,0 C12.3483552,0 12.0066824,0.341672854 12.0066824,0.762662621 L12.0066824,12.0039707 L0.762662621,12.0039707 C0.341672854,12.0039707 0,12.3456435 0,12.7666333 L0,24.770604 C0,25.1922717 0.341672854,25.5339445 0.762662621,25.5339445 L12.0066824,25.5339445 L12.0066824,36.7752526 C12.0066824,37.1962424 12.3483552,37.5379152 12.769345,37.5379152 L22.1334861,37.5379152 C24.1435258,40.2441812 27.3609452,42.0020338 30.9837621,42.0020338 C37.0586241,42.0020338 42,37.0606579 42,30.9857959 C42,27.3609452 40.2414695,24.1435258 37.5352035,22.1334861 L37.5352035,22.1334861 Z M13.5320076,36.0098783 L13.5320076,24.7685702 C13.5320076,24.3475805 13.1903348,24.0059076 12.769345,24.0059076 L1.52532524,24.0059076 L1.52532524,13.5292959 L12.769345,13.5292959 C13.1903348,13.5292959 13.5320076,13.188301 13.5320076,12.7666333 L13.5320076,1.52532524 L24.0086193,1.52532524 L24.0086193,12.7666333 C24.0086193,13.188301 24.3496142,13.5292959 24.770604,13.5292959 L36.01259,13.5292959 L36.01259,21.1877845 C34.502857,20.4122413 32.7944927,19.9695581 30.9857959,19.9695581 C24.9116118,19.9695581 19.9695581,24.9116118 19.9695581,30.9857959 C19.9695581,32.7972044 20.4122413,34.502857 21.1877845,36.01259 L13.5320076,36.01259 L13.5320076,36.0098783 Z M30.9837621,40.4746748 C25.7508797,40.4746748 21.4928495,36.2159667 21.4928495,30.9837621 C21.4928495,25.7508797 25.7508797,21.4928495 30.9837621,21.4928495 C36.2159667,21.4928495 40.4746748,25.7508797 40.4746748,30.9837621 C40.4746748,36.2159667 36.2159667,40.4746748 30.9837621,40.4746748 L30.9837621,40.4746748 Z M31.2454402,30.2366917 L31.2427285,30.2366917 C29.545211,29.6170707 28.9445718,29.1059173 28.9445718,28.2822417 C28.9445718,27.4639894 29.8577332,26.7969138 30.9837621,26.7969138 C32.1592795,26.7969138 32.8982148,27.6097427 33.0439681,28.1873325 C33.1470123,28.5947639 33.5625787,28.8408497 33.9706879,28.7378055 C34.3781192,28.6347613 34.624883,28.218517 34.5211609,27.8110856 C34.2540595,26.751493 33.2209058,25.6397004 31.7464248,25.3454821 L31.7464248,24.4296091 C31.7464248,24.0086193 31.4047519,23.6669464 30.9837621,23.6669464 C30.5620945,23.6669464 30.2210995,24.0086193 30.2210995,24.4296091 L30.2210995,25.3373471 C28.6001872,25.6234303 27.4192465,26.8125061 27.4192465,28.27953 C27.4192465,30.461762 29.5641928,31.2454402 30.7186945,31.6664299 L30.7214062,31.6664299 C32.4189237,32.2840172 33.0195629,32.7944927 33.0195629,33.6181683 C33.0195629,34.4364206 32.1064015,35.1041741 30.9837621,35.1041741 C29.8075669,35.1041741 29.0686316,34.2886335 28.9208445,33.7110437 C28.8171224,33.3029344 28.401556,33.0568486 27.9934468,33.1605707 C27.5860154,33.2663266 27.3399296,33.6791813 27.4429738,34.0872906 C27.7127869,35.1434936 28.7459405,36.2586758 30.2210995,36.5522162 L30.2210995,37.5324918 C30.2210995,37.9534816 30.5620945,38.2951545 30.9837621,38.2951545 C31.4047519,38.2951545 31.7464248,37.9534816 31.7464248,37.5324918 L31.7464248,36.5630629 C33.3639474,36.2769797 34.5448881,35.0851922 34.5448881,33.62088 C34.5475998,31.438648 32.3999419,30.6549698 31.2454402,30.2366917 L31.2454402,30.2366917 Z" id="Page-1-Copy" fill="#02A4A5"></path>
    </g>
</svg>