<?xml version="1.0" encoding="UTF-8" standalone="no"?>
<svg width="44px" height="52px" viewBox="0 0 44 52" version="1.1" xmlns="http://www.w3.org/2000/svg" xmlns:xlink="http://www.w3.org/1999/xlink">
    <!-- Generator: Sketch 40.2 (33826) - http://www.bohemiancoding.com/sketch -->
    <title>Page 1 Copy</title>
    <desc>Created with Sketch.</desc>
    <defs></defs>
    <g id="Page-1" stroke="none" stroke-width="1" fill="none" fill-rule="evenodd">
        <path d="M31.7072989,52 C30.9067276,52 30.1504341,51.4529548 29.9104769,50.6973755 L29.2941584,48.7670059 C29.1934621,48.451348 28.8420963,47.968577 28.5714303,47.7764685 L24.8278131,45.1069452 C24.5464348,44.9055526 23.9543977,44.7020175 23.6087451,44.6855919 L22.8224569,44.6491698 C22.1132978,44.618461 21.2598788,44.1692555 20.8299556,43.602928 L20.0379542,42.5566863 C19.8537013,42.3138725 19.3766437,42.018211 19.0781256,41.9625067 L16.9720731,41.5697197 C16.2943369,41.4440279 15.4994789,40.9141225 15.1195467,40.3363685 L9.62124286,31.9535797 C9.24773813,31.3843956 9.06348532,30.4524192 9.18632052,29.783253 L9.31415484,29.0940903 C9.34486364,28.9291198 9.26130713,28.76772 9.21988596,28.7398679 C8.70640622,28.5220496 8.06723465,27.92787 7.74086436,27.3615426 L7.63802558,27.1801464 C7.31165529,26.613819 7.13311574,25.6989823 7.21952888,25.051955 L7.37021626,23.9385824 C7.39806843,23.7379039 7.24452442,23.4143903 7.07455477,23.3051241 L6.32111788,22.8280664 C5.83834695,22.5245492 5.18274973,21.9353687 4.82567064,21.4890198 L1.99403343,17.9325121 C1.60410306,17.4411712 1.24702397,16.6020354 1.16846657,15.9800036 L0.45145175,10.3945724 C0.376465141,9.80610605 0.435026112,8.93269059 0.585713489,8.36136404 L1.25773634,5.83324406 C1.34700612,5.4961614 1.33629374,4.85984646 1.23559744,4.52490627 L0.401460677,1.79396536 C0.265056464,1.34475986 0.334329808,0.890555258 0.588570122,0.541331905 C0.842096278,0.195679343 1.25773634,0 1.72122501,0 L1.75978955,0 L18.0961581,0.38564542 C18.9781434,0.404927691 19.7144405,1.14122478 19.7365794,2.02321014 L20.1107983,16.8134262 C20.118654,17.1040886 20.3364723,17.5782896 20.5514339,17.7703981 L41.3984255,36.5727549 C41.847631,36.9776826 42.3611107,37.7004106 42.5953546,38.2581682 L43.6751618,40.8191394 C43.9508269,41.4747367 43.9065491,42.442421 43.5687522,43.0673094 L42.1768579,45.6561328 C42.0126015,45.9632209 41.8783398,46.582396 41.9004787,46.9309052 L42.0761616,49.5647206 C42.1347226,50.460275 41.4569865,51.2465631 40.5614321,51.3165506 L31.8358474,51.9942867 C31.7937121,52 31.7494343,52 31.7072989,52 L31.7072989,52 Z" id="Page-1-Copy" fill="#00A4A5"></path>
    </g>
</svg>