<?xml version="1.0" encoding="UTF-8" standalone="no"?>
<svg width="61px" height="53px" viewBox="0 0 61 53" version="1.1" xmlns="http://www.w3.org/2000/svg" xmlns:xlink="http://www.w3.org/1999/xlink">
    <!-- Generator: Sketch 40.2 (33826) - http://www.bohemiancoding.com/sketch -->
    <title>Page 1</title>
    <desc>Created with Sketch.</desc>
    <defs></defs>
    <g id="Page-1" stroke="none" stroke-width="1" fill="none" fill-rule="evenodd">
        <path d="M52.5543213,52.1204906 C51.709151,52.1204906 50.8714381,51.6059311 50.5151408,50.8651642 L48.8223145,47.3436214 C48.6897388,47.0718412 48.2555532,46.7288015 47.9614009,46.6666566 L47.1294882,46.4918224 C46.2329448,46.3045591 45.4234042,45.4825896 45.24857,44.5827319 L45.0745644,43.6828741 C44.9999905,43.2975759 44.6602652,42.6761272 44.3785418,42.4043469 L43.183703,41.2583955 C42.5498253,40.6468899 42.2424153,39.5465114 42.4719371,38.6947123 L42.5465109,38.4196177 C42.4653083,38.4295608 42.3816199,38.4361896 42.2971028,38.4361896 C41.4105026,38.4361896 40.5653324,37.8694284 40.2446648,37.0607164 L37.4324022,29.9397426 C37.1697365,29.2760353 37.0338464,28.2402875 37.115049,27.5318359 L37.9245896,20.536809 C37.9726483,20.1125667 37.8723879,19.3684854 37.7108112,18.973244 L37.5517203,18.58546 C37.4514599,18.3360519 37.0603615,18.0220132 36.7910671,17.9731259 L35.875466,17.8148636 C35.1048695,17.6822879 34.1635819,17.118841 33.6838234,16.5040211 L29.090903,10.6226303 C28.993957,10.4999977 28.73212,10.3641076 28.4760831,10.3641076 C28.4180812,10.3641076 28.3791371,10.3707364 28.3567649,10.3765366 L20.025209,12.613752 C19.814745,12.6717539 19.5819089,12.6974404 19.3325008,12.6974404 C18.6530502,12.6974404 17.9346554,12.4803477 17.4557256,12.1315078 L12.2827864,8.34729934 C11.9687476,8.1177776 11.3091834,7.90068485 10.9205708,7.90068485 L2.88068141,7.90068485 C2.33960672,7.90068485 1.85156232,7.67116312 1.54332375,7.26929294 C1.23591377,6.86825136 1.13565338,6.34043424 1.2715435,5.81593151 L1.61789759,4.48603123 C1.65021293,4.36008429 1.55989571,4.17199247 1.43726316,4.12061938 L1.43063438,4.11730498 C0.534091009,3.75769332 -0.051727993,2.72857422 0.0965911038,1.77402897 L0.10321989,1.72514167 C0.252367585,0.760653245 1.13896777,-2.48689958e-14 2.12002817,-2.48689958e-14 L2.17471566,-2.48689958e-14 L19.5330216,0.49881618 C20.4395081,0.524502728 21.3882532,1.171638 21.7437218,2.0068651 L21.9119273,2.40459228 C22.0097019,2.63162822 22.368485,2.89015089 22.6145787,2.90672286 L40.3780692,4.14299153 C41.135408,4.19436463 41.8571171,4.62192135 42.2192146,5.19199699 L42.1512695,3.97810047 C42.125583,3.48591307 42.2871597,3.02935541 42.6045128,2.69294449 C42.9798678,2.29438871 43.5366859,2.11375428 44.1100759,2.2007571 L46.4757241,2.56368316 C47.3888394,2.70288767 48.2331811,3.48922747 48.4403307,4.39239962 L50.1853587,12.027933 C50.2914193,12.4936053 50.6021437,13.2642017 50.8482373,13.671872 L55.0591739,20.6569558 C55.5289892,21.4366668 55.4900451,22.5859326 54.9655423,23.3333283 L54.8975973,23.4302743 C54.7426494,23.6539958 54.6871333,24.1519834 54.7940225,24.4013915 L59.6230934,35.9114506 C59.8915593,36.5519571 60.0862799,37.558704 60.0730223,38.2514122 L59.9628187,44.2653787 C59.9503897,45.0807194 59.551834,46.0261501 59.0182166,46.5083943 C58.8624402,46.6509132 58.6072319,47.1489008 58.5774023,47.550771 L58.4381978,49.3952308 C58.367767,50.3472903 57.5747984,51.2272617 56.6359965,51.3987815 L52.9164187,52.0757463 C52.800415,52.1080617 52.6769538,52.1204906 52.5543213,52.1204906 L52.5543213,52.1204906 Z" fill="#00A4A5"></path>
        <path d="M-21.4512536,48.1065292 L-21.9177484,48.1065292 L-22.2029718,47.7371134 C-22.2167175,47.717354 -23.6797759,45.7233677 -23.397989,44.830756 C-22.9615628,43.4682131 -22.8610474,43.1460481 -22.2802914,43.0154639 C-22.0217003,42.9587629 -21.4813223,42.7809278 -21.0852742,42.6030928 C-21.495068,42.0386598 -22.1960989,41.2268041 -22.5414597,41.0317869 L-24.6497072,39.8376289 C-24.9349305,39.6726804 -25.3670611,39.4243986 -25.7029718,38.9948454 C-26.0285731,38.8943299 -26.3069237,38.6666667 -26.495068,38.3410653 C-27.551769,38.1159794 -28.4512536,37.0283505 -28.4177484,35.9510309 C-28.414312,35.8573883 -28.4108755,35.7766323 -28.4082982,35.7027491 C-28.6832123,35.4682131 -28.8206694,35.1795533 -28.8911161,34.9347079 C-29.3644838,34.911512 -29.7639683,34.652921 -29.995068,34.2130584 C-30.0088137,34.1864261 -30.0423188,34.1254296 -30.0689512,34.0824742 C-30.2064082,34.0489691 -30.3309786,33.9810997 -30.4452398,33.8805842 L-40.0328687,33.8402062 C-41.2811505,33.8402062 -42.5294323,33.8376289 -43.777714,33.8341924 C-45.2579546,33.8273196 -46.7381951,33.8135739 -48.2141402,33.7938144 C-49.6368206,33.7731959 -51.0569237,33.75 -52.4761676,33.7130584 C-53.7948962,33.6761168 -55.1170611,33.628866 -56.4366487,33.5824742 L-57.2218721,33.5549828 C-57.4899133,33.5455326 -57.7622501,33.5317869 -58.0302914,33.5180412 C-58.2923188,33.5051546 -58.5509099,33.4914089 -58.8086419,33.4810997 C-59.3859615,33.4682131 -59.8223876,33.0919244 -59.9125938,32.5283505 L-59.9263395,32.3737113 L-59.8962707,31.5987973 C-59.8962707,31.4347079 -59.9031436,31.25 -59.9125938,31.0687285 L-59.9263395,29.8436426 L-59.6582982,29.5652921 C-59.5706694,29.4682131 -59.4770268,29.3668385 -59.3455835,29.2731959 L-57.5973017,28.0283505 C-57.1445525,27.7061856 -56.6007381,27.3599656 -55.9263395,27.1821306 C-55.7244494,26.4982818 -55.2785731,25.9613402 -54.6041745,25.5850515 C-54.5371642,25.54811 -54.5002226,25.5214777 -54.4830405,25.5042955 C-54.4899133,25.4948454 -54.5036591,25.4742268 -54.5234185,25.4407216 C-54.5706694,25.3702749 -54.6746213,25.2061856 -54.721013,24.9810997 C-54.9460989,24.8668385 -55.2115628,24.685567 -55.3352742,24.3530928 L-55.5973017,23.104811 C-55.5775422,22.9939863 -55.5569237,22.8840206 -55.5534872,22.7731959 C-55.5440371,22.4407216 -55.5406006,22.0953608 -55.5569237,21.7491409 C-55.5904288,20.9037801 -54.9967862,20.6013746 -54.7416316,20.5146048 C-53.7948962,20.1924399 -52.7751367,19.967354 -51.6101883,19.8298969 C-50.5096728,19.6984536 -49.4194666,19.6649485 -48.342147,19.7293814 C-47.5938652,19.7757732 -46.8515972,19.8737113 -46.1368206,19.967354 L-45.664312,20.0274914 C-45.1067518,20.0945017 -44.6033154,20.3634021 -44.1668893,20.8195876 C-43.6204975,20.5816151 -43.0663738,20.5378007 -42.543178,20.5343643 L-42.2674048,20.5343643 L-41.2545182,20.5378007 C-41.0328687,20.5378007 -40.8112192,20.5378007 -40.5895697,20.5274914 C-40.1230749,20.5180412 -39.8009099,20.4235395 -39.5766831,20.2328179 C-39.4486762,20.1254296 -39.3249649,19.9742268 -39.2304632,19.8530928 C-38.9289168,19.4639175 -38.4959271,19.0008591 -37.8275422,18.7792096 C-37.5225594,18.4905498 -37.1797759,18.3427835 -36.8043463,18.3264605 C-36.7940371,18.0206186 -36.8412879,17.7388316 -36.9349305,17.4742268 C-36.9486762,17.4407216 -37.0156865,17.3393471 -37.059501,17.2757732 C-37.1093292,17.1950172 -37.1634529,17.1185567 -37.2141402,17.0378007 C-37.2442089,16.9905498 -37.2674048,16.943299 -37.3009099,16.8762887 L-37.2510817,15.5575601 C-37.6832123,15.2792096 -38.1866487,14.7250859 -37.7708412,13.7319588 C-37.7038309,13.5773196 -37.6462707,13.4304124 -37.5930061,13.2792096 C-37.4014254,12.7525773 -36.9684357,12.4201031 -36.4254804,12.3728522 C-36.15658,11.7182131 -35.559501,11.3058419 -34.8610474,11.3058419 L-34.6763395,11.3127148 C-34.6428343,11.3256014 -34.6093292,11.2955326 -34.5526281,11.1984536 C-34.4959271,11.1073883 -34.4486762,11.0274914 -34.4048618,10.9467354 C-34.075824,10.3290378 -33.696958,9.79896907 -33.2433498,9.32560137 C-32.9349305,9.00687285 -32.6359615,8.68127148 -32.3378515,8.35910653 C-31.9418034,7.93298969 -31.5457553,7.50343643 -31.1393979,7.09106529 C-30.8473017,6.79209622 -30.4881951,6.50687285 -30.0423188,6.22508591 C-29.6290886,5.96305842 -29.1995353,5.72164948 -28.7734185,5.48367698 L-28.3344151,5.23539519 C-27.8309786,4.9467354 -27.2467862,4.79209622 -26.551769,4.75859107 C-25.7570955,4.71821306 -24.9615628,4.68127148 -24.1625938,4.64776632 L-22.1359615,4.55412371 C-22.092147,4.55412371 -22.0586419,4.55412371 -22.0251367,4.54381443 C-21.132525,4.13058419 -20.1892261,4.08075601 -19.3808068,4.06701031 C-18.8473017,4.05670103 -18.3198103,4.04725086 -17.7897415,4.03694158 L-17.5414597,4 L-16.4375079,4 L-16.2124219,4.63745704 C-15.9340714,5.43298969 -16.1015972,6.15120275 -16.2364769,6.72852234 C-16.2596728,6.84621993 -16.2966144,6.99312715 -16.3034872,7.11082474 C-15.9907725,7.57388316 -15.9168893,8.10395189 -16.0981608,8.62800687 C-16.1591573,8.8024055 -16.2364769,8.98024055 -16.3266831,9.15120275 C-16.3773704,9.24484536 -16.390257,9.29209622 -16.3103601,9.42611684 C-16.2665457,9.5 -16.2158584,9.57388316 -16.1686075,9.65120275 L-16.0217003,9.88316151 C-15.6050336,10.5335052 -15.5483326,11.2757732 -15.8567518,11.983677 C-15.7699821,12.5678694 -15.914312,13.1314433 -16.2734185,13.6013746 C-16.414312,13.7920962 -16.5079546,14.0438144 -16.5818377,14.4398625 C-16.4572673,14.6546392 -16.4108755,14.8762887 -16.3936934,15.0609966 C-16.1153429,15.4304124 -16.011391,15.9338488 -16.068092,16.3900344 C-15.8833841,16.70189 -15.8198103,17.0206186 -15.8808068,17.3565292 C-15.6385388,17.5446735 -15.4512536,17.8127148 -15.3404288,18.1486254 C-15.1857896,18.6116838 -15.092147,19.0747423 -15.068092,19.5180412 C-15.0414597,20.0713058 -15.0345869,20.6219931 -15.027714,21.1718213 C-15.0242776,21.4776632 -15.0217003,21.7792096 -15.0182639,22.0816151 L-14.9847587,23.3298969 C-14.9675766,23.9175258 -14.9538309,24.507732 -14.9443807,25.0987973 C-14.9168893,26.6056701 -15.1557209,28.1589347 -15.7021127,29.9879725 C-15.930635,30.7594502 -16.1256522,31.5386598 -16.3198103,32.3204467 C-16.0586419,32.9510309 -16.0715285,33.5549828 -16.0887106,34.0489691 L-16.092147,34.2164948 C-16.1119065,35.4544674 -16.1419752,36.693299 -16.1754804,37.9312715 C-16.1823532,38.2130584 -16.2055491,38.4982818 -16.2330405,38.7835052 L-16.2424907,38.9149485 C-16.2089855,38.9888316 -16.1385388,39.1331615 -15.9641402,39.4080756 C-15.8601883,39.5721649 -15.6316659,39.9347079 -15.7390542,40.3977663 C-15.8464426,40.8573883 -16.2124219,41.0859107 -16.333556,41.1632302 L-16.3404288,41.1666667 C-16.1454116,41.2774914 -15.9813223,41.3608247 -15.9074391,41.3943299 L-15.5981608,41.4957045 C-15.5612192,41.5051546 -15.527714,41.5189003 -15.4907725,41.532646 C-15.2596728,41.3204467 -14.9271986,41.0386598 -14.4607037,41.0386598 L-14.2863051,41.0524055 C-13.7966144,41.1365979 -13.3266831,41.0661512 -12.8636247,40.9982818 C-12.4838996,40.9450172 -11.4572673,40.6829897 -11.1488481,40.5386598 L-10.9675766,40.3573883 C-10.7725594,40.1666667 -10.5784013,39.9682131 -10.3696384,39.790378 C-9.89025699,39.3780069 -9.2991917,39.1666667 -8.61792022,39.1666667 C-8.26912297,39.1761168 -8.04145974,39.3006873 -7.89025699,39.411512 C-6.39627074,39.0962199 -1.84300613,38.4209622 -1.00709548,38.4209622 C-0.876511288,38.4209622 -0.772559398,38.4312715 -0.704689982,38.4450172 L0.0736605332,38.5893471 L0.0736605332,39.387457 C0.0736605332,39.7130584 0.0736605332,39.7130584 -1.08097864,41.3479381 C-1.45984462,41.8883162 -1.84644256,42.4286942 -1.98046318,42.6297251 L-2.03029136,42.7104811 C-2.56723294,43.5695876 -3.90314359,43.7104811 -5.4435216,43.8745704 C-5.9168893,43.9252577 -6.6282295,44.0025773 -6.8129374,44.0790378 C-7.43407143,44.3883162 -8.12479308,44.4853952 -8.73218139,44.5730241 C-9.22273122,44.6434708 -9.68836696,44.7104811 -10.0380233,44.8676976 C-10.4804632,45.0695876 -10.9744494,45.1365979 -11.4040027,45.193299 C-11.7321814,45.2371134 -12.0749649,45.2809278 -12.2631092,45.3780069 C-12.9503944,45.7233677 -13.7330405,45.8513746 -14.592147,45.7878007 C-15.1015972,45.7508591 -15.6119065,45.8213058 -16.0345869,46.0189003 C-16.6187793,46.2946735 -17.1557209,46.411512 -17.7089855,46.3780069 C-17.7828687,46.3745704 -17.9108755,46.371134 -18.0552054,46.3410653 C-18.2124219,46.5489691 -18.568092,46.992268 -19.1995353,46.992268 L-19.2261676,46.992268 C-19.4615628,47.1168385 -19.8636247,47.3685567 -20.1024563,47.5154639 C-20.8507381,47.9484536 -21.0990199,48.1065292 -21.4512536,48.1065292 L-21.4512536,48.1065292 Z" fill="#00A4A5"></path>
    </g>
</svg>