<?xml version="1.0" encoding="UTF-8" standalone="no"?>
<svg width="44px" height="52px" viewBox="0 0 44 52" version="1.1" xmlns="http://www.w3.org/2000/svg" xmlns:xlink="http://www.w3.org/1999/xlink">
    <!-- Generator: Sketch 40.2 (33826) - http://www.bohemiancoding.com/sketch -->
    <title>Page 1</title>
    <desc>Created with Sketch.</desc>
    <defs></defs>
    <g id="Page-1" stroke="none" stroke-width="1" fill="none" fill-rule="evenodd">
        <path d="M43.2670322,32.3475046 L41.4793961,30.6206613 L41.4793961,30.5598686 L41.4793961,28.7722325 C41.4793961,28.2177038 41.2321174,27.7264325 40.8632532,27.3542822 L38.6459601,25.2585747 L36.735917,21.0679811 C36.6143314,20.8814952 36.4894598,20.6982953 36.3670527,20.5126309 L28.7227726,12.6309304 L25.9501293,7.33292257 C25.8893366,7.14643664 25.7644649,7.0248511 25.6420579,6.90244403 L22.2532717,3.3887862 C22.1924789,3.32799343 22.1924789,3.26720066 22.2532717,3.26720066 C22.8086218,2.71185048 22.9310289,1.9125077 22.6229574,1.17149312 C22.3148859,0.432943109 21.6371287,-2.48689958e-14 20.8353214,-2.48689958e-14 L1.98545486,-2.48689958e-14 C1.43010468,-2.48689958e-14 0.874754506,0.247278702 0.505890263,0.676935716 C0.13702602,1.10741425 -0.0494599117,1.6619429 0.0113328589,2.21729308 L2.29024023,21.5042103 C2.29024023,21.6898747 2.351033,21.8730746 2.41182577,21.9979462 L4.99880462,28.3458616 L4.99880462,28.4066543 L2.65581838,32.719655 C2.53423284,33.0277264 2.40853968,33.3357979 2.40853968,33.6438694 L2.40853968,41.2848634 C2.40853968,41.5929349 2.40853968,41.6537277 4.75152592,46.2747998 C5.05959739,46.8909427 5.61494756,47.2598069 6.29188328,47.3214212 L29.4038159,49.5995071 C29.4038159,49.5995071 29.4646087,49.5995071 29.4646087,49.6602999 L29.4646087,49.7210926 L29.4646087,49.7827069 C29.4038159,50.3372356 29.5861942,50.8925857 29.9583446,51.3230643 C30.3280303,51.7527213 30.882559,52 31.4379092,52 L31.9932593,52 C33.0390593,52 33.9024809,51.1973711 33.9632737,50.1515712 L34.0856808,47.7477922 C34.0856808,47.6869994 34.2072663,47.6262066 34.2072663,47.6869994 L35.9949024,48.7327993 C36.3029739,48.9192853 36.6718381,49.0408708 36.9799096,49.0408708 C38.0265311,49.0408708 38.8891312,48.1782707 38.9507455,47.1316492 L39.0115382,43.742863 L43.6326103,34.6231259 C44.0655534,33.887862 43.8831751,32.9028548 43.2670322,32.3475046 L43.2670322,32.3475046 Z" fill="#00A4A5"></path>
    </g>
</svg>