<?xml version="1.0" encoding="UTF-8" standalone="no"?>
<svg width="65px" height="41px" viewBox="0 0 65 41" version="1.1" xmlns="http://www.w3.org/2000/svg" xmlns:xlink="http://www.w3.org/1999/xlink">
    <!-- Generator: Sketch 40.2 (33826) - http://www.bohemiancoding.com/sketch -->
    <title>Group 2</title>
    <desc>Created with Sketch.</desc>
    <defs></defs>
    <g id="Page-1" stroke="none" stroke-width="1" fill="none" fill-rule="evenodd">
        <g id="Group-2">
            <path d="M64.7729333,33.8372128 C62.0004667,26.4938511 60.0808,20.2548723 58.6828667,15.6986383 C56.7632,9.45268085 55.9372667,6.88712766 54.7759333,6.07934043 C54.4067333,5.82374468 54.0245333,5.55070213 53.625,5.26806383 C50.3204,2.92670213 46.5694667,0.275659574 43.7025333,0.729276596 C40.4993333,1.23348936 35.8618,2.61702128 32.4800667,3.70744681 L2.52893333,3.70744681 C1.22893333,3.70744681 0.172466667,4.77082979 0.172466667,6.07934043 L0.172466667,30.7534894 C0.172466667,32.062 1.2324,33.125383 2.52893333,33.125383 L41.7863333,33.125383 C42.6018667,33.125383 43.3194667,32.7057872 43.7432667,32.0724681 C44.1592667,32.3245745 44.5926,32.5697021 45.0467333,32.8218085 C47.5314667,34.2088298 50.3481333,35.7834043 52.3657333,39.8415319 C52.5148,40.1451064 52.819,40.3187021 53.1344667,40.3187021 C53.2627333,40.3187021 53.3944667,40.2881702 53.5166667,40.226234 C53.9396,40.0116383 54.1129333,39.4934681 53.8988667,39.0642766 C51.6412,34.5289787 48.4449333,32.7398085 45.8761333,31.3056809 C45.1074,30.8764894 44.3828667,30.4743404 43.7736,30.0416596 C42.1044,28.8622553 41.3902667,27.3871277 40.6319333,25.8230213 C40.2861333,25.1103191 39.9308,24.3740638 39.4844667,23.6962553 C38.6646,22.4453191 36.0108667,19.6137021 33.4446667,16.8780426 C31.6264,14.9388298 29.9104,13.1086596 29.3687333,12.379383 C29.0506667,11.9536809 29.172,11.2514468 29.653,10.747234 C30.2891333,10.0798936 31.5692,9.78678723 33.2548667,10.9557234 C33.6812667,11.2514468 34.6632,11.9946809 35.906,12.9315745 C39.2062667,15.4299574 44.1965333,19.2089362 47.3078667,21.109766 C47.7143333,21.358383 48.2421333,21.2292766 48.4891333,20.8201489 C48.7361333,20.4110213 48.6078667,19.879766 48.2014,19.6311489 C47.5652667,19.2429574 46.8338,18.7622979 46.0520667,18.2275532 C46.5053333,17.4267447 46.7185333,16.3188723 46.9594667,15.0304255 C47.0539333,14.5297021 47.1518667,14.0054255 47.2706,13.4732979 C47.3988667,12.9080213 47.6129333,10.5291489 46.3224667,9.23808511 C45.916,8.82895745 45.2192,8.40674468 44.1428,8.51578723 L44.1428,6.07585106 C44.1428,4.76734043 43.0828667,3.70395745 41.7863333,3.70395745 L38.4722,3.70395745 C40.4083333,3.16921277 42.3886667,2.68157447 43.9634,2.43295745 C46.15,2.08576596 49.8974667,4.74029787 52.6326667,6.67514894 C53.0356667,6.9612766 53.4222,7.23431915 53.794,7.49340426 C54.5116,7.9906383 55.6798667,11.7966596 57.0344667,16.1993617 C58.4393333,20.7791489 60.3685333,27.0495319 63.1618,34.4434894 C63.2935333,34.7880638 63.6185333,35.0026596 63.9643333,35.0026596 C64.0657333,35.0026596 64.1706,34.9852128 64.2685333,34.9450851 C64.7157333,34.7810851 64.9393333,34.2838511 64.7729333,33.8372128 L64.7729333,33.8372128 Z M44.1428,16.6835106 L44.1428,10.2735532 C44.7078667,10.1714894 44.9722,10.3285106 45.1143333,10.4680851 C45.6967333,11.0473191 45.7166667,12.5704255 45.5979333,13.0955745 C45.4766,13.650383 45.3717333,14.1955957 45.2729333,14.7102766 C45.084,15.7160851 44.9037333,16.6660638 44.6298667,17.2391915 C44.4574,17.1161915 44.2814667,16.9931915 44.1055333,16.8675745 C44.1185333,16.8065106 44.1428,16.7480638 44.1428,16.6835106 L44.1428,16.6835106 Z M41.7828667,5.44165957 C42.1347333,5.44165957 42.4224667,5.72778723 42.4224667,6.08282979 L42.4224667,15.6506596 C40.4256667,14.1929787 38.4384,12.6864468 36.9416667,11.5550213 C35.6347333,10.5666596 34.6900667,9.85134043 34.2333333,9.53468085 C31.6567333,7.749 29.4900667,8.43029787 28.4136667,9.55474468 C27.3372667,10.6826809 27.1648,12.3078511 27.9942,13.4261915 C28.5930667,14.229617 30.2622667,16.0118085 32.1949333,18.0740213 C33.5833333,19.5526383 35.0766,21.1437872 36.231,22.4427021 L39.5243333,27.464766 C40.1544,28.6982553 40.95,29.9867021 42.3106667,31.0945745 C42.1988667,31.2716596 42.0064667,31.3972766 41.7828667,31.3972766 L2.52893333,31.3972766 C2.17706667,31.3972766 1.8928,31.1111489 1.8928,30.7569787 L1.8928,6.08282979 C1.8928,5.72778723 2.17706667,5.44165957 2.52893333,5.44165957 L41.7828667,5.44165957 Z" id="Fill-1" fill="#00A4A5"></path>
            <path d="M18.1662,15.7597021 L18.1662,10.5500851 C18.1662,10.4951277 18.122,10.4506383 18.0682667,10.4506383 L12.7599333,10.4506383 C12.7053333,10.4506383 12.6611333,10.4951277 12.6611333,10.5500851 L12.6611333,15.7597021 L7.48886667,15.7597021 C7.43426667,15.7597021 7.39006667,15.8041915 7.39006667,15.8591489 L7.39006667,21.202234 C7.39006667,21.2563191 7.43426667,21.3008085 7.48886667,21.3008085 L12.6646,21.3008085 L12.6646,26.5112979 C12.6646,26.565383 12.7088,26.6098723 12.7634,26.6098723 L18.0717333,26.6098723 C18.1254667,26.6098723 18.1696667,26.565383 18.1696667,26.5112979 L18.1696667,21.3008085 L23.3462667,21.3008085 C23.4,21.3008085 23.4442,21.2563191 23.4442,21.202234 L23.4442,15.8591489 C23.4407333,15.8041915 23.3965333,15.7597021 23.3428,15.7597021 L18.1662,15.7597021 Z" id="Stroke-4" stroke="#00A4A5" stroke-width="1.587333"></path>
        </g>
    </g>
</svg>