<?xml version="1.0" encoding="UTF-8" standalone="no"?>
<svg width="43px" height="40px" viewBox="0 0 43 40" version="1.1" xmlns="http://www.w3.org/2000/svg" xmlns:xlink="http://www.w3.org/1999/xlink">
    <!-- Generator: Sketch 40.2 (33826) - http://www.bohemiancoding.com/sketch -->
    <title>Fill 1</title>
    <desc>Created with Sketch.</desc>
    <defs></defs>
    <g id="Page-1" stroke="none" stroke-width="1" fill="none" fill-rule="evenodd">
        <path d="M21.7265699,36.8722687 C21.5595699,36.9832687 21.3935699,36.9832687 21.2265699,36.8722687 C18.8395699,35.5392687 9.2885699,29.6542687 4.6795699,21.1032687 L7.1785699,21.1032687 C7.6225699,21.1032687 8.0115699,20.8802687 8.1785699,20.4922687 L8.1785699,20.4362687 L8.1785699,20.4922687 C8.3445699,20.8802687 8.7335699,21.1032687 9.1775699,21.1032687 L13.2305699,21.1032687 L14.8965699,23.3792687 C15.1185699,23.7122687 15.5075699,23.8792687 15.9515699,23.8232687 C16.3405699,23.7682687 16.6735699,23.4902687 16.8405699,23.1012687 L18.3945699,19.3262687 L20.7825699,26.6002687 C20.9495699,27.0442687 21.3375699,27.2662687 21.8375699,27.2662687 C22.2815699,27.2662687 22.7255699,27.0992687 22.8925699,26.6552687 L25.2805699,20.3812687 L26.1685699,22.3802687 C26.3355699,22.7132687 26.6685699,22.9902687 27.0015699,23.0462687 C27.3905699,23.1012687 27.7785699,22.9902687 28.0005699,22.6572687 L29.3335699,21.1582687 L33.6645699,21.1582687 C34.0535699,21.1582687 34.3865699,20.9912687 34.6085699,20.6582687 L34.7195699,20.4922687 L34.8305699,20.6582687 C35.0525699,20.9912687 35.3855699,21.1582687 35.7745699,21.1582687 L38.2735699,21.1582687 C33.6095699,29.6542687 24.0585699,35.5392687 21.7265699,36.8722687 M4.9025699,5.05526874 C6.5675699,3.27926874 8.7335699,2.27926874 11.0655699,2.22426874 L11.2875699,2.22426874 C16.2845699,2.22426874 20.3385699,6.49926874 20.3385699,11.7192687 C20.3385699,12.3292687 20.8385699,12.8292687 21.4485699,12.8292687 C22.0595699,12.8292687 22.5595699,12.3292687 22.5595699,11.7192687 C22.5595699,6.49926874 26.6125699,2.22426874 31.6105699,2.22426874 L31.8325699,2.22426874 C34.1645699,2.27926874 36.3295699,3.27926874 37.9955699,5.05526874 C39.8285699,7.05426874 40.8275699,9.77526874 40.7165699,12.6072687 C40.6055699,14.8282687 40.1055699,16.8832687 39.2725699,18.8812687 L36.3295699,18.8812687 L35.6635699,17.8262687 C35.4415699,17.4932687 35.1085699,17.3272687 34.7195699,17.3272687 C34.3305699,17.3272687 33.9975699,17.4932687 33.7755699,17.8262687 L33.0535699,18.8812687 L28.8895699,18.8812687 C28.5565699,18.8812687 28.2785699,18.9932687 28.0565699,19.2702687 L27.5015699,19.8812687 L26.2245699,16.9382687 C26.0575699,16.5492687 25.6135699,16.2722687 25.1695699,16.2722687 C24.7245699,16.2722687 24.3365699,16.5492687 24.1695699,16.9942687 L21.9485699,22.9902687 L19.5605699,15.8282687 C19.3945699,15.3832687 19.0055699,15.1062687 18.5615699,15.0502687 L18.5055699,15.0502687 C18.0615699,15.0502687 17.6735699,15.3282687 17.4505699,15.7162687 L15.5075699,20.4362687 L14.6745699,19.3262687 C14.4525699,19.0482687 14.1195699,18.8812687 13.7865699,18.8812687 L9.8435699,18.8812687 L9.1225699,17.4382687 C8.9555699,17.0492687 8.5665699,16.8272687 8.1225699,16.8272687 C7.6785699,16.8272687 7.2895699,17.0492687 7.1235699,17.4382687 L6.5125699,18.8812687 L3.6805699,18.8812687 C2.8475699,16.8832687 2.3475699,14.8282687 2.2365699,12.6072687 C2.0705699,9.77526874 3.0695699,7.05426874 4.9025699,5.05526874 M39.6055699,3.55626874 C37.5515699,1.33526874 34.8305699,0.0582687416 31.8875699,0.00326874162 C27.2795699,-0.108731258 23.2815699,2.66826874 21.4485699,6.66626874 C19.6165699,2.72326874 15.7295699,0.00326874162 11.2875699,0.00326874162 L11.0095699,0.00326874162 C8.0675699,0.0582687416 5.3465699,1.33526874 3.2915699,3.55626874 C1.0155699,5.99926874 -0.150430099,9.33126874 0.0155699009,12.7182687 C0.682569901,26.6002687 15.5635699,36.2062687 20.1165699,38.8152687 C20.5045699,39.0382687 21.0045699,39.2042687 21.5045699,39.2042687 C22.0045699,39.2042687 22.4485699,39.0932687 22.8925699,38.8152687 C27.4455699,36.2062687 42.3265699,26.6002687 42.9935699,12.7182687 C43.1045699,9.33126874 41.8825699,5.99926874 39.6055699,3.55626874" id="Fill-1" fill="#02A4A5"></path>
    </g>
</svg>