<svg id="Layer_1" data-name="Layer 1" xmlns="http://www.w3.org/2000/svg" viewBox="0 0 1000 738"><defs><style>.cls-1{fill:none;}.cls-2{fill:#fff;}.cls-3,.cls-4{fill:#00a4a5;}.cls-4{fill-rule:evenodd;}</style></defs><title>Seamless Pattern Background</title><rect class="cls-1" width="1000" height="738"/><rect class="cls-1" width="1000" height="738"/><rect class="cls-2" width="1000" height="738"/><path class="cls-3" d="M783,405.37a62.32,62.32,0,0,1,7.45-29.79l20.19,18.74a37.22,37.22,0,0,0,0,22.1l-20.19,18.74A65.15,65.15,0,0,1,783,405.37Zm27.63-51.91,18,19.46a35.46,35.46,0,0,0-15.14,15.14l-19.46-18A60.5,60.5,0,0,1,810.67,353.47Zm65.12-3.37L857,370.28a37.22,37.22,0,0,0-22.1,0L816.44,350.1A61.94,61.94,0,0,1,846,342.65,59.73,59.73,0,0,1,875.79,350.1ZM897.9,370l-19.46,18a36.79,36.79,0,0,0-15.14-15.14l18-19.46A60.5,60.5,0,0,1,897.9,370Zm3.37,65.12-20.19-18.74a37.22,37.22,0,0,0,0-22.1l20.19-18.74a62.19,62.19,0,0,1,7.45,29.79A59.73,59.73,0,0,1,901.27,435.17Zm-19.95,22.11-18-19.46a36.79,36.79,0,0,0,15.14-15.14l19.46,18A60.5,60.5,0,0,1,881.32,457.28Zm-65.12,3.37,18.74-20.19a37.22,37.22,0,0,0,22.1,0l18.74,20.19A62.19,62.19,0,0,1,846,468.09,59.73,59.73,0,0,1,816.2,460.65Zm6.24-36a5.35,5.35,0,0,0-1-1.21,4.28,4.28,0,0,0-1-1.21c-.24-.24-.48-.72-.72-1-.24-.48-.72-1.21-1-1.68,0-.24-.24-.48-.24-.72a7,7,0,0,1-1-2.4,28.34,28.34,0,0,1-2.16-11.05,30.55,30.55,0,1,1,7.43,19.69Zm-24,21.63c-.48-.48-.72-1-1.21-1.44-1-1.21-1.68-2.4-2.65-3.6-.24-.24-.24-.48-.48-.48l19.46-18a.88.88,0,0,0,.24.48c.48.72,1,1.68,1.44,2.4,0,.24.24.24.24.48a17.13,17.13,0,0,0,1.93,2.4l.24.24a25.41,25.41,0,0,0,2.4,2.65h0a44.73,44.73,0,0,0,8.65,6.25l-18,19.46a54.8,54.8,0,0,1-9.86-8.41A7.92,7.92,0,0,1,798.42,446.23Zm-8.17.24.48.48a61.27,61.27,0,0,0,6.25,7.21h.24a68.76,68.76,0,1,0-11.3-14.67l1.44,2.16a10.58,10.58,0,0,1,1,1.68,1.26,1.26,0,0,1,.48,1C789.28,445,789.77,445.74,790.25,446.47Z"/><rect class="cls-3" x="574.42" y="483.71" width="13.38" height="13.38"/><rect class="cls-3" x="574.42" y="510.48" width="13.38" height="13.38"/><rect class="cls-3" x="547.65" y="510.48" width="13.38" height="13.38"/><rect class="cls-3" x="547.65" y="483.71" width="13.38" height="13.38"/><path class="cls-4" d="M601.19,537.25H534.27V443.56h66.92Zm-113.76,0V470.32h40.15v66.92H487.43ZM601.19,436.87H534.27a6.71,6.71,0,0,0-6.69,6.69v20.08H487.43a6.71,6.71,0,0,0-6.69,6.69v66.92a6.71,6.71,0,0,0,6.69,6.69H601.19a6.71,6.71,0,0,0,6.69-6.69v-93.7A6.72,6.72,0,0,0,601.19,436.87Z"/><rect class="cls-3" x="547.65" y="456.94" width="13.38" height="13.38"/><rect class="cls-3" x="574.42" y="456.94" width="13.38" height="13.38"/><rect class="cls-3" x="500.82" y="510.48" width="13.38" height="13.38"/><rect class="cls-3" x="500.82" y="483.71" width="13.38" height="13.38"/><path class="cls-3" d="M674.54,754.61c-7.36,0-15.26-5.79-15.26-13.15V683.58a24.33,24.33,0,0,1,4.21-.26c3.69,0,6.58,1.05,9.47,1.84a31.61,31.61,0,0,0,8.42,1.58h.26a17,17,0,0,0,8.42-2.37v57.34C689.8,749.09,681.91,754.61,674.54,754.61Zm15.26-92.07v13.94c-3.95,3.16-6.58,3.42-8.42,3.42a20.88,20.88,0,0,1-6.58-1.32,34.61,34.61,0,0,0-11.31-2.1,22.74,22.74,0,0,0-4.21.26v-14.2ZM703.22,656H645.87a3.2,3.2,0,0,0-3.16,3.16,3.4,3.4,0,0,0,3.16,3.16h6.58v79.18c0,10.52,10.26,19.73,21.83,19.73s21.83-9.21,21.83-19.73V662.54h6.58a3.2,3.2,0,0,0,3.16-3.16C705.84,657.81,704.79,656,703.22,656Z"/><path class="cls-3" d="M665.59,717.52a4.13,4.13,0,0,0,0,5.79,4,4,0,0,0,2.89,1.06,5.48,5.48,0,0,0,2.89-1.06,3.81,3.81,0,0,0,0-5.52A4.13,4.13,0,0,0,665.59,717.52Z"/><path class="cls-3" d="M670.07,697a3.83,3.83,0,0,0,0,5.78,4,4,0,0,0,2.89,1.06,5.48,5.48,0,0,0,2.89-1.06,3.81,3.81,0,0,0,0-5.52C674,695.42,671.38,695.42,670.07,697Z"/><path class="cls-3" d="M681.12,706.73a4.13,4.13,0,0,0,0,5.79,4,4,0,0,0,2.89,1.06,5.48,5.48,0,0,0,2.89-1.06,4,4,0,0,0,1.05-2.89,5.48,5.48,0,0,0-1.05-2.89A4.12,4.12,0,0,0,681.12,706.73Z"/><path class="cls-3" d="M867.49,549.29a16.18,16.18,0,1,1,15.78-16.17A16,16,0,0,1,867.49,549.29Zm0-38.26a22.09,22.09,0,1,0,21.69,22.09A22,22,0,0,0,867.49,511Z"/><path class="cls-3" d="M867.49,568.48c-29.32,0-53.24-28.39-53.24-35.37s23.92-35.37,53.24-35.37,53.24,28.39,53.24,35.37S896.81,568.48,867.49,568.48Zm0-76.65c-32.34,0-59.16,30-59.16,41.28s26.82,41.28,59.16,41.28,59.16-30,59.16-41.28S899.83,491.83,867.49,491.83Z"/><path class="cls-3" d="M660.12,606.08a3.2,3.2,0,0,1,3.13,3.13,11.62,11.62,0,0,0,23.25,0,9.68,9.68,0,0,0-.44-2,35.35,35.35,0,0,0-5.59-10.74c-3.8-5.15-8.5-12.52-8.5-19.45V521.54c0-6.93,4.69-14.32,8.5-19.45a35.21,35.21,0,0,0,5.59-10.74,9.5,9.5,0,0,0,.44-2,11.62,11.62,0,0,0-23.25,0,3.2,3.2,0,0,1-3.13,3.13,3.06,3.06,0,0,1-3.13-3.13,11.62,11.62,0,0,0-23.25,0,9.68,9.68,0,0,0,.44,2,35.35,35.35,0,0,0,5.59,10.74c3.8,5.15,8.5,12.52,8.5,19.45V577c0,6.93-4.69,14.32-8.5,19.45a35.21,35.21,0,0,0-5.59,10.74,9.5,9.5,0,0,0-.44,2,11.62,11.62,0,0,0,23.25,0A3.2,3.2,0,0,1,660.12,606.08Zm32.21-116.75a14.69,14.69,0,0,1-.68,3.8,39.1,39.1,0,0,1-6.49,12.52c-2.68,3.58-7.38,10.28-7.38,15.65V577c0,4,2.68,9.62,7.38,15.65a39.1,39.1,0,0,1,6.49,12.52,15.29,15.29,0,0,1,.68,3.8,17.58,17.58,0,0,1-32.21,9.84A17.58,17.58,0,0,1,627.92,609a14.67,14.67,0,0,1,.68-3.8,39.1,39.1,0,0,1,6.49-12.52c4.69-6,7.38-11.86,7.38-15.65V521.54c0-4-2.68-9.62-7.38-15.65a39.1,39.1,0,0,1-6.49-12.52,15.29,15.29,0,0,1-.68-3.8,17.58,17.58,0,0,1,32.21-9.84,17.58,17.58,0,0,1,32.21,9.61Z"/><path class="cls-3" d="M279,256.07c0,8.8-13.2,8.8-13.2,0s13.2-8.79,13.2,0"/><path class="cls-3" d="M336.08,256.07c0,8.8-13.19,8.8-13.19,0s13.19-8.79,13.19,0"/><path class="cls-3" d="M353.33,243.73a10.15,10.15,0,0,1-7.22,3h0a10.15,10.15,0,0,1-7.22-3L322.13,227a10.21,10.21,0,0,1,14.44-14.44l16.76,16.76A10.23,10.23,0,0,1,353.33,243.73ZM304,288.18V276.63a6.13,6.13,0,0,0,4.2-5.52c0-3.36-3.24-6.09-7.24-6.09s-7.24,2.73-7.24,6.09a6.16,6.16,0,0,0,4.36,5.59v11.49c-18.59-.47-39.33-5.82-39.33-27.29a39.91,39.91,0,0,1,1-8.76,16,16,0,0,0,7.41-4.21l16.76-16.76a16.12,16.12,0,0,0,4.38-14.67,31.1,31.1,0,0,1,25.24,0,16.56,16.56,0,0,0-.33,3.27,16,16,0,0,0,4.72,11.41l16.76,16.76a16,16,0,0,0,7.41,4.21,39.9,39.9,0,0,1,1,8.76C343.15,282.31,322.53,287.68,304,288.18Zm-3,11a6.79,6.79,0,0,1-6.6-5.22c2.13.13,4.32.2,6.6.2s4.47-.07,6.6-.2A6.78,6.78,0,0,1,300.93,299.17ZM248.54,229.3l16.76-16.76A10.21,10.21,0,1,1,279.74,227L263,243.73a10.21,10.21,0,0,1-14.44-14.44Zm109-4.19-16.76-16.76A16.12,16.12,0,0,0,315.83,211a37.47,37.47,0,0,0-29.77,0,16.13,16.13,0,0,0-24.94-2.62l-16.77,16.76a16.11,16.11,0,0,0,9.27,27.38,44.87,44.87,0,0,0-.83,8.4c0,18.32,12.48,29.6,35.48,32.51a12.71,12.71,0,0,0,25.34,0c23-2.91,35.47-14.18,35.47-32.51a44.94,44.94,0,0,0-.83-8.4,16.11,16.11,0,0,0,9.27-27.38Z"/><path class="cls-3" d="M547.11,637.45a3.75,3.75,0,0,1-3.75-3.75v-.39a9.41,9.41,0,0,0,3.75-2.32,9.46,9.46,0,0,0,3.75,2.32v.39A3.75,3.75,0,0,1,547.11,637.45Zm13.39-15.84a2.76,2.76,0,0,0-2.76,2.75,3.92,3.92,0,0,1-7.69,1.07,2.75,2.75,0,0,0-1-5.3h-3.82a2.75,2.75,0,0,0-1,5.3,3.92,3.92,0,0,1-7.69-1.07,2.76,2.76,0,0,0-5.51,0,9.45,9.45,0,0,0,6.89,9.08v.27a9.26,9.26,0,1,0,18.52,0v-.27a9.45,9.45,0,0,0,6.89-9.08A2.76,2.76,0,0,0,560.49,621.6Z"/><path class="cls-3" d="M530.87,608.19c0,7-10.55,7-10.55,0s10.55-7,10.55,0"/><path class="cls-3" d="M573.9,608.19c0,7-10.55,7-10.55,0s10.55-7,10.55,0"/><path class="cls-3" d="M547.11,647.7c-12.37,0-41.12-2.83-41.15-29l1.66-45.41,18.55,11.42a2.75,2.75,0,0,0,1.44.41h38.46a2.78,2.78,0,0,0,1.42-.39l19.1-11.48,1.67,45.47C588.23,644.87,559.47,647.7,547.11,647.7Zm46.66-29.17-1.84-50.18a2.75,2.75,0,0,0-4.17-2.26l-22.45,13.5H528.39L506.48,566.1a2.75,2.75,0,0,0-4.2,2.24l-1.84,50.18v.1c0,21.65,17.44,34.57,46.66,34.57s46.66-12.92,46.66-34.57Z"/><path class="cls-3" d="M54.18,321.8c-3.18,0-5.76,3-5.76,6.76s2.59,6.76,5.76,6.76H89.24c3.18,0,5.75-3,5.75-6.76s-2.59-6.76-5.75-6.76Zm35.07,19.54H54.18c-6.5,0-11.78-5.73-11.78-12.78s5.28-12.78,11.78-12.78H89.24c6.49,0,11.78,5.73,11.78,12.78S95.73,341.34,89.24,341.34Z"/><path class="cls-3" d="M112.29,457.2H31.11a15.87,15.87,0,0,1-15.85-15.85V341.41a15.87,15.87,0,0,1,15.85-15.85h16v6h-16a9.85,9.85,0,0,0-9.84,9.84v99.94a9.85,9.85,0,0,0,9.84,9.84h81.18a9.85,9.85,0,0,0,9.84-9.84V341.41a9.85,9.85,0,0,0-9.84-9.84h-16v-6h16a15.87,15.87,0,0,1,15.85,15.85v99.94A15.86,15.86,0,0,1,112.29,457.2Z"/><path class="cls-3" d="M103.89,405.62H39.52a3,3,0,1,0,0,6h64.37a3,3,0,0,0,0-6Z"/><path class="cls-3" d="M103.89,426H39.52a3,3,0,1,0,0,6h64.37a3,3,0,0,0,0-6Z"/><path class="cls-3" d="M84.21,382.87c-3.76,4.42-8,7-9.53,5.67s.3-5.9,4.06-10.31,8-6.93,9.53-5.64S88,378.47,84.21,382.87ZM69.3,388.52c-1.5,1.3-5.8-1.17-9.6-5.53s-5.67-9-4.17-10.27,5.8,1.17,9.6,5.53S70.79,387.22,69.3,388.52ZM56.2,366c2.4-6.65,8.74-10.83,16.24-10.73a16.52,16.52,0,0,1,15.3,11.14c.23.7.35,1.38-.27,1.91a1.78,1.78,0,0,1-2.09.09,30.93,30.93,0,0,0-10-3.07c-1.19-.14-2.37-.19-3.57-.29a31.15,31.15,0,0,0-13,3.17c-.8.39-1.64.8-2.44.11S55.91,366.86,56.2,366Zm15.68-16.22a22,22,0,1,0,22.05,22A22.11,22.11,0,0,0,71.88,349.83Z"/><path class="cls-3" d="M955.32,497.5V479.35l.45.12.33.12c.38.11.78.23,1.2.4.24.1.45.17.64.24l.76.27v11.17a2.94,2.94,0,1,0,5.88,0v-8.55l0,0,.57.28.88.4c.07,0,.14.08.21.1l.26.17c.28.16.54.28.8.4s.38.17.52.24l.12.07v6.89a2.94,2.94,0,1,0,5.88,0V487.3l1.72.54,1.29.36.38.09v3.38a2.94,2.94,0,1,0,5.89,0V489h.61a10.2,10.2,0,0,0,1.25,0h.38c.45,0,.83-.07,1.15-.12v2.84a3,3,0,0,0,2.94,2.95.93.93,0,0,0,.38-.05,2.9,2.9,0,0,0,2.57-2.9V487.5c.4-.17.73-.29,1-.43l.33-.14a6.16,6.16,0,0,0,.74-.33h1.28V497.5H955.32ZM976.91,469l1.45.64a16,16,0,0,1,1.55.73c.36.18.74.37,1.14.54l.59.29c.4.24.87.45,1.31.65l1.17.59.31.14.14.07a1.79,1.79,0,0,1,.26.12l.23.12a2.37,2.37,0,0,1,.5.23,1.23,1.23,0,0,1,.21.12l.26.1c.21.1.45.19.66.31a1.33,1.33,0,0,1,.45.21.88.88,0,0,1,.26.12c.07,0,.15.07.24.09l.74.31.73.31a.78.78,0,0,0,.26.12,5.44,5.44,0,0,1,.67.26l1.46.55.64.23.33.12.28.09.79.26c.31.1.68.22,1,.31l.54.14.73.21,1.34.33a14.1,14.1,0,0,1-1.05,1.17,3.37,3.37,0,0,1-.29.26,6.88,6.88,0,0,1-1,.85,11.73,11.73,0,0,1-1.62,1.1c-.31.19-.55.31-.78.43,0,0-.08,0-.1.05l-.21.12c-.16.09-.4.19-.61.28l-.38.14c-.32.15-.7.29-1.07.43a2.92,2.92,0,0,1-.57.17,3,3,0,0,1-.57.17c-.42.12-.81.23-1.24.33a11.24,11.24,0,0,1-1.13.14.14.14,0,0,1-.1,0,11.4,11.4,0,0,1-1.36.16l-.28,0c-.33,0-.66,0-1,0h-.65a7.48,7.48,0,0,1-.83,0c-.33,0-.79-.07-1.24-.14l-.87-.12-.74-.09a4.39,4.39,0,0,1-.69-.14l-.64-.14c-.29-.07-.57-.14-.9-.24l-.1,0-1.62-.52c-.57-.23-1.12-.44-1.67-.68-.38-.17-.76-.34-1.12-.48l-.07,0-.67-.31c-.3-.14-.56-.28-.85-.4l-.21-.12-.57-.28-.35-.14-.21-.1-.36-.19-.33-.16a2.26,2.26,0,0,0-.5-.29l-.19-.07-.45-.21-1-.52c-.07-.05-.17-.07-.26-.12l-.36-.14-.29-.14c-.21-.09-.4-.19-.59-.28s-.24-.12-.33-.17a4.42,4.42,0,0,1-.55-.24s-.07,0-.09,0a5.64,5.64,0,0,1-.74-.33l-1.22-.52c-.15,0-.24-.13-.36-.17s-.08,0-.1,0-.19-.07-.28-.12l-2.43-.9a2.56,2.56,0,0,0-.43-.17l-1.11-.38-.24-.07c-.3-.12-.7-.21-1.07-.33l-.52-.14c-.76-.22-1.45-.38-2.09-.55a1.9,1.9,0,0,0,.21-.26c.23-.28.51-.59.87-.94a12.19,12.19,0,0,1,1.27-1.11,11.83,11.83,0,0,1,1.64-1.1c.31-.19.57-.33.8-.45l.29-.17.54-.23.43-.19.88-.33.28-.12a7.24,7.24,0,0,0,.76-.21l.33-.09c.42-.12.83-.21,1.24-.31l1.22-.19c.48,0,.89-.12,1.34-.14a10.81,10.81,0,0,1,1.27,0h.4a6.31,6.31,0,0,1,1.07,0c.35,0,.85.07,1.31.14l1.53.21c.19,0,.34.08.5.1l.85.21a11.28,11.28,0,0,1,1.12.33l2,.66Zm24.76,28.52v-5h130.05a5.54,5.54,0,0,1-5.5,5Zm-49.28,5.89h173.83a11.4,11.4,0,0,0,10.94-14.66,3,3,0,0,0-2.82-2.12H1001.67V481a13.57,13.57,0,0,0,1.14-1.57,14.62,14.62,0,0,0,1.26-2.52,8.13,8.13,0,0,0,.38-1.34c0-.12,0-.24,0-.38a3,3,0,0,0-.64-1.86,2.9,2.9,0,0,0-2-1.15l-.17,0-2.33-.43c-.77-.16-1.67-.35-2.64-.61l-.59-.19c-.26-.07-.52-.14-.8-.24l-1.63-.55c-.11,0-.35-.12-.56-.19l-.91-.35c-.26-.12-.55-.21-.83-.33l-.59-.26-.78-.33-.14,0c-.29-.14-.57-.26-.83-.4l-.77-.33c-.38-.19-.61-.31-.85-.4s-.57-.26-.78-.36l-1.29-.65c-.33-.15-.64-.29-1-.48s-.69-.33-1-.5-.45-.19-.66-.31c-.69-.38-1.33-.68-2-1l-.4-.19-.28-.12-.89-.38c-.3-.14-.64-.26-1-.4l-2.42-.79c-.48-.14-.92-.29-1.39-.38l-.83-.21a9.67,9.67,0,0,0-1.15-.24l-1.53-.22c-.61-.07-1.17-.14-1.74-.16a8.77,8.77,0,0,0-1.45,0h-.33c-.55,0-1.12,0-1.67,0a14.57,14.57,0,0,0-1.79.21c-.51.06-1.05.13-1.57.23s-1.15.26-1.67.43l-.31.07c-.4.12-.8.22-1.17.36l-.4.14c-.38.14-.76.28-1.11.45l-.36.17c-.36.14-.69.29-1,.45l-.33.17c-.33.19-.66.36-1,.55a15,15,0,0,0-2.23,1.5,16.34,16.34,0,0,0-1.88,1.64,17.17,17.17,0,0,0-2.59,3.2,13.43,13.43,0,0,0-1.27,2.54,9.1,9.1,0,0,0-.35,1.29,3,3,0,0,0,.54,2.23,3,3,0,0,0,1.95,1.2l.26,0h0v22.41A3,3,0,0,0,952.39,503.39Z"/><path class="cls-3" d="M278.92,490.62h-3a11.93,11.93,0,0,0-23.06,0H206.19a11.93,11.93,0,0,0-23.06,0h-3v-14a4.88,4.88,0,0,1,4.88-4.88H260.3c7.35,0,18.6,6.06,18.6,11.29v7.57Zm-14.55,8.86a5.78,5.78,0,1,1,5.78-5.78A5.78,5.78,0,0,1,264.37,499.49Zm-69.69,0a5.78,5.78,0,1,1,5.78-5.78A5.78,5.78,0,0,1,194.68,499.49Zm65.64-33.89h-9.48l-16.19-17.33a3.08,3.08,0,0,0-4.5,4.2l12.25,13.1h-38v-3.74a3.09,3.09,0,0,0-6.17,0v3.74H185a11.1,11.1,0,0,0-11.07,11.07v17.07A3.08,3.08,0,0,0,177,496.8h6.13a11.93,11.93,0,0,0,23.06,0h46.65a11.93,11.93,0,0,0,23.06,0H282a3.08,3.08,0,0,0,3.09-3.09V483.06C285.09,472.4,268.84,465.59,260.32,465.59Z"/><path class="cls-3" d="M184.33,641.71a37.15,37.15,0,1,1,37.15-37.16A37.29,37.29,0,0,1,184.33,641.71Zm0-79.84A42.67,42.67,0,1,0,227,604.54,42.7,42.7,0,0,0,184.33,561.87Z"/><path class="cls-3" d="M184.33,592.59a12,12,0,1,0,12,12A12.17,12.17,0,0,0,184.33,592.59Z"/><path class="cls-3" d="M257.35,664.15H111.11a5,5,0,0,1,0-9.93h16a2.79,2.79,0,0,0,2.58-1.66,2.9,2.9,0,0,0-.37-2.94,71.19,71.19,0,1,1,110,0,2.81,2.81,0,0,0-.36,2.94,2.88,2.88,0,0,0,2.58,1.66h16a4.94,4.94,0,0,1,5,5A5.09,5.09,0,0,1,257.35,664.15Zm0-15.45H246.87a76.71,76.71,0,1,0-125.46,0H110.93a10.48,10.48,0,0,0-10.48,10.48,10.63,10.63,0,0,0,10.66,10.49H257.53a10.49,10.49,0,1,0-.18-21Z"/><path class="cls-3" d="M184.33,630.11a25.57,25.57,0,1,1,25.57-25.57A25.52,25.52,0,0,1,184.33,630.11Zm0-56.66a31.09,31.09,0,1,0,31.09,31.09A31.17,31.17,0,0,0,184.33,573.45Z"/><path class="cls-3" d="M210.95,402.85l-7.84-10.78v-2.18a32.37,32.37,0,0,0,15.41,0v2.2ZM187.25,370h47.13c-4.7,9.05-13.31,14.86-23.56,14.86S192,379.05,187.25,370Zm-3.13-24h53.4a40.15,40.15,0,0,1,.72,7.52A37.52,37.52,0,0,1,236.76,364h-23c0-.08,0-.16,0-.23v-4.32a3,3,0,1,0-6,0v4.32a2.16,2.16,0,0,0,0,.23h-23a37.52,37.52,0,0,1-1.48-10.57A40.15,40.15,0,0,1,184.12,346Zm5.77-30.72c4.19-.79,14.21-2.54,20.93-2.54,6.54,0,16.69,1.75,20.93,2.54L236.4,340H185.23ZM200,415.13a4.13,4.13,0,1,1-4.13,4.13A4.14,4.14,0,0,1,200,415.13Zm24.84-27.53c11.63-5.7,19.37-18.49,19.37-34.11a45.69,45.69,0,0,0-1.24-10.6c0-.15,0-.3,0-.45l-5.69-30.28a3,3,0,0,0-2.34-2.37c-.61-.13-15.07-3-24.07-3-9.24,0-23.48,2.92-24.08,3a3,3,0,0,0-2.32,2.37l-5.69,30.28a2.26,2.26,0,0,0,0,.44,45.72,45.72,0,0,0-1.24,10.6c0,15.62,7.73,28.41,19.37,34.11-10.32,4.13-24,13.68-24,25.86v14.13h6V413.46c0-4.48,3-8.77,7.14-12.37.13,4.94,1,11.54,4.24,16a10,10,0,0,0-.23,2.12,10.12,10.12,0,1,0,3.83-7.9c-1.88-4.49-2-11-1.82-14.68a50.59,50.59,0,0,1,5.25-2.82V394L211,413.07,224.49,394v-.1c8.23,3.8,18.41,11.39,18.41,19.59v14.13h6V413.44C248.83,401.28,235.15,391.72,224.82,387.6Z"/><path class="cls-3" d="M197.18,353.88c0,4.66-5.49,4.66-5.49,0s5.49-4.65,5.49,0"/><path class="cls-3" d="M229.94,353.88c0,4.66-5.49,4.66-5.49,0s5.49-4.65,5.49,0"/><path class="cls-3" d="M55.86,130.64l0-42.59c0-6.63,6.19-7.45,8.27-7.14,5,.72,23.06,4.7,27.66,5.44A150.12,150.12,0,0,0,133.5,87.8,2.16,2.16,0,0,1,136,90.06l0,38.52a2.15,2.15,0,0,1-2.51,2.26,149.29,149.29,0,0,0-41.59,1.48c-4.71.75-22.73,4.75-27.77,5.49C61.85,138.1,55.86,137.3,55.86,130.64Zm99-30.79A10.86,10.86,0,0,0,165,104a5.33,5.33,0,1,1,0,10.56,10.7,10.7,0,0,0-10.15,4.18A15.66,15.66,0,0,1,142.35,125h-.09l0-31.42S150.39,94.07,154.89,99.85ZM65,144c5.28-.76,23.32-4.78,27.95-5.5a143.5,143.5,0,0,1,39.89-1.42c2.11.22,7.73-.19,9.12-5.78,0,0,12.17,0,17.93-8.79a4.35,4.35,0,0,1,4.29-1.74,11.59,11.59,0,1,0,0-22.95c-3.88.58-5.59-3.33-6.33-4.07A22.67,22.67,0,0,0,142,87.32c-1.35-5.53-6.85-6-9.1-5.77a142.72,142.72,0,0,1-40-1.38c-4.53-.72-22.57-4.71-27.85-5.47-3.88-.55-15.42,1-15.42,13.34l0,42.59C49.59,142.31,60.77,144.6,65,144Z"/><path class="cls-3" d="M121.27,103.29v-5a3.13,3.13,0,1,0-6.25,0v5a3,3,0,0,0,3.13,3.13A3.13,3.13,0,0,0,121.27,103.29Z"/><path class="cls-3" d="M106.48,103.31v-5a3.13,3.13,0,0,0-6.25,0v5a3,3,0,0,0,3.13,3.13A3.13,3.13,0,0,0,106.48,103.31Z"/><path class="cls-3" d="M91.68,103.31v-5a3.13,3.13,0,1,0-6.25,0v5a3,3,0,0,0,3.13,3.13A3.13,3.13,0,0,0,91.68,103.31Z"/><path class="cls-3" d="M76.86,103.32v-5a3.13,3.13,0,0,0-6.25,0v5a3,3,0,0,0,3.13,3.13A3.13,3.13,0,0,0,76.86,103.32Z"/><path class="cls-3" d="M967.22,129.06a31.8,31.8,0,1,1,44.07-8.95A31.83,31.83,0,0,1,967.22,129.06ZM888,76.58A31.8,31.8,0,1,1,932,67.63,31.83,31.83,0,0,1,888,76.58Zm117.59-5.42a37.73,37.73,0,0,0-47.29,4.62A17,17,0,0,0,940.51,64a37.79,37.79,0,1,0-4,7.39A10.94,10.94,0,0,1,953,82.33a37.65,37.65,0,1,0,52.55-11.17Z"/><path class="cls-3" d="M483.09,269.06a5.63,5.63,0,0,1-5.66,5.66H418.28a5.63,5.63,0,0,1-5.66-5.66V234a5.63,5.63,0,0,1,5.66-5.66h59.06A5.63,5.63,0,0,1,483,234v35.07Zm-54.87-65.65a19.69,19.69,0,0,1,39.37,0v18.43H428.22Zm49.21,18.53H474V203.41a26.07,26.07,0,0,0-52.14,0v18.43h-3.46a12,12,0,0,0-12,12V269a12,12,0,0,0,12,12h59.06a12,12,0,0,0,12-12V234A12,12,0,0,0,477.44,221.94Z"/><path class="cls-3" d="M449.06,257.33a4.08,4.08,0,1,1,4.08-4.08A4.09,4.09,0,0,1,449.06,257.33Zm0-14.66a10.57,10.57,0,1,0,10.57,10.57A10.54,10.54,0,0,0,449.06,242.67Z"/><path class="cls-3" d="M760.41,459.7a3,3,0,1,0,3,3A3,3,0,0,0,760.41,459.7Zm0-6a9.07,9.07,0,1,1-9.07,9.07A9,9,0,0,1,760.41,453.65Zm-76.58-90.7a11.16,11.16,0,0,0-11.1,11.15v36.75A39.6,39.6,0,0,0,709,450.53v18.24A27.22,27.22,0,0,0,736.23,496c11.61,0,21-7.6,24.9-18.19a15.12,15.12,0,1,0-6.14-1c-3.28,7.93-10.13,13.13-18.76,13.13a21,21,0,0,1-21.16-21.16V450.53a39.6,39.6,0,0,0,36.28-39.68V374.1a11.16,11.16,0,0,0-11.1-11.15h-8a3,3,0,1,0,0,6h8a5,5,0,0,1,5.06,5.1v36.75a33.26,33.26,0,1,1-66.51,0V374.1a5,5,0,0,1,5.06-5.1h8a3,3,0,1,0,0-6Z"/><path class="cls-3" d="M280.32,88.47V68a10.23,10.23,0,0,1,0,20.45Zm0,71.59V139.61a10.23,10.23,0,0,1,0,20.45ZM225.78,91.88V83.41l17-12.2V91.88ZM219,95.61a3.53,3.53,0,0,0,3.41,3.09h23.86a3.54,3.54,0,0,0,3.41-3.41V64.61a3.41,3.41,0,0,0-5.38-2.77l-23.86,17A3.46,3.46,0,0,0,219,81.65V95.29A1.89,1.89,0,0,0,219,95.61Zm-1,52.52a3.54,3.54,0,0,0,3.46,3.36h14.27v15.13a2.55,2.55,0,0,0,0,.37,3.41,3.41,0,1,0,6.82-.37V151.49h14.28a3.41,3.41,0,1,0,0-6.82H242.5V129.49a3.41,3.41,0,1,0-6.82,0v15.18H221.41A3.55,3.55,0,0,0,217.95,148.13Zm-9.22,27.27V78.3l45.38-32.44h12.57a7.23,7.23,0,0,1,6.82,6.82V175.4a7.23,7.23,0,0,1-6.82,6.82H215.55A7.23,7.23,0,0,1,208.73,175.4Zm-6.82,0A13.75,13.75,0,0,0,215.55,189h51.14a13.75,13.75,0,0,0,13.64-13.64v-8.52a17,17,0,0,0,0-34.09V95.29a17,17,0,0,0,0-34.09V52.68A13.75,13.75,0,0,0,266.68,39H253a3.46,3.46,0,0,0-2,.64L203.3,73.77a3.47,3.47,0,0,0-1.38,2.77Z"/><path class="cls-3" d="M469.58,354.8a2.89,2.89,0,0,0-2.11,1.21l-18.68,25.87a2.88,2.88,0,0,0,2.34,4.58h14.46l-15.36,21.29a2.88,2.88,0,1,0,4.67,3.37l18.68-25.87a2.87,2.87,0,0,0-2.34-4.54H456.73l15.41-21.33a2.88,2.88,0,0,0-2.56-4.58Zm-27.08-17.2h37.37v8.62c0,3,1.9,5.24,3.86,6.69A48.33,48.33,0,0,0,490,356.5a20.6,20.6,0,0,1,5.17,3.55,6.19,6.19,0,0,1,1.89,4.72l.09,61.94H425.25l.09-61.94a6.19,6.19,0,0,1,1.89-4.72,20.6,20.6,0,0,1,5.17-3.55,48.33,48.33,0,0,0,6.24-3.59c2-1.45,3.86-3.73,3.86-6.69Zm-8.62-25.87h54.62v20.12H433.87Zm-5.75-2.87v25.87a3,3,0,0,0,2.87,2.87h5.75v8.62c0,.72-.27,1.14-1.53,2.07a53.31,53.31,0,0,1-5.52,3.14A25.14,25.14,0,0,0,423,356.1a12.55,12.55,0,0,0-3.46,8.67l-.09,64.81a3,3,0,0,0,2.87,2.87H500a3,3,0,0,0,2.87-2.87l-.09-64.81a12.55,12.55,0,0,0-3.46-8.67,25.14,25.14,0,0,0-6.65-4.67,53.31,53.31,0,0,1-5.52-3.14c-1.26-.93-1.53-1.35-1.53-2.07v-8.62h5.75a3,3,0,0,0,2.87-2.87V308.85a3,3,0,0,0-2.87-2.87H431A3.1,3.1,0,0,0,428.12,308.85Z"/><path class="cls-3" d="M906.6,589.92c-3.18,0-5.76,3-5.76,6.76s2.59,6.76,5.76,6.76h35.07c3.18,0,5.75-3,5.75-6.76s-2.59-6.76-5.75-6.76Zm35.07,19.54H906.6c-6.5,0-11.78-5.73-11.78-12.78s5.28-12.78,11.78-12.78h35.07c6.49,0,11.78,5.73,11.78,12.78S948.15,609.47,941.66,609.47Z"/><path class="cls-3" d="M964.72,725.32H883.54a15.87,15.87,0,0,1-15.85-15.85V609.53a15.87,15.87,0,0,1,15.85-15.85h16v6h-16a9.85,9.85,0,0,0-9.84,9.84v99.94a9.85,9.85,0,0,0,9.84,9.84h81.18a9.85,9.85,0,0,0,9.84-9.84V609.53a9.85,9.85,0,0,0-9.84-9.84h-16v-6h16a15.87,15.87,0,0,1,15.85,15.85v99.94A15.86,15.86,0,0,1,964.72,725.32Z"/><path class="cls-3" d="M956.31,653.39H891.94a3,3,0,1,0,0,6h64.37a3,3,0,0,0,0-6Z"/><path class="cls-3" d="M956.31,673.75H891.94a3,3,0,1,0,0,6h64.37a3,3,0,0,0,0-6Z"/><path class="cls-3" d="M956.31,694.12H891.94a3,3,0,1,0,0,6h64.37a3,3,0,0,0,0-6Z"/><path class="cls-3" d="M938.63,634.26H910.21a2.87,2.87,0,1,1,0-5.73h28.42a2.87,2.87,0,0,1,0,5.73Z"/><path class="cls-3" d="M924.42,648.58a2.87,2.87,0,0,1-2.87-2.87V617.09a2.87,2.87,0,1,1,5.73,0v28.63A2.87,2.87,0,0,1,924.42,648.58Z"/><path class="cls-3" d="M76.58,235.88A62.32,62.32,0,0,1,84,206.09l20.19,18.74a37.22,37.22,0,0,0,0,22.1L84,265.68A65.15,65.15,0,0,1,76.58,235.88ZM104.21,184l18,19.46a35.46,35.46,0,0,0-15.14,15.14l-19.46-18A60.5,60.5,0,0,1,104.21,184Zm65.12-3.37-18.74,20.19a37.22,37.22,0,0,0-22.1,0L110,180.61a61.94,61.94,0,0,1,29.56-7.45A59.73,59.73,0,0,1,169.33,180.61Zm22.11,19.95-19.46,18a36.79,36.79,0,0,0-15.14-15.14l18-19.46A60.5,60.5,0,0,1,191.44,200.56Zm3.37,65.12-20.19-18.74a37.22,37.22,0,0,0,0-22.1l20.19-18.74a62.19,62.19,0,0,1,7.45,29.79A59.73,59.73,0,0,1,194.81,265.68Zm-19.95,22.11-18-19.46A36.79,36.79,0,0,0,172,253.18l19.46,18A60.5,60.5,0,0,1,174.86,287.79Zm-65.12,3.37L128.48,271a37.22,37.22,0,0,0,22.1,0l18.74,20.19a62.19,62.19,0,0,1-29.79,7.45A59.73,59.73,0,0,1,109.74,291.16Zm6.24-36a5.35,5.35,0,0,0-1-1.21,4.28,4.28,0,0,0-1-1.21c-.24-.24-.48-.72-.72-1-.24-.48-.72-1.21-1-1.68,0-.24-.24-.48-.24-.72a7,7,0,0,1-1-2.4A28.34,28.34,0,0,1,109,235.89a30.55,30.55,0,1,1,7.43,19.69ZM92,276.74c-.48-.48-.72-1-1.21-1.44-1-1.21-1.68-2.4-2.65-3.6-.24-.24-.24-.48-.48-.48l19.46-18a.88.88,0,0,0,.24.48c.48.72,1,1.68,1.44,2.4,0,.24.24.24.24.48a17.13,17.13,0,0,0,1.93,2.4l.24.24a25.41,25.41,0,0,0,2.4,2.65h0a44.73,44.73,0,0,0,8.65,6.25l-18,19.46a54.8,54.8,0,0,1-9.86-8.41A7.92,7.92,0,0,1,92,276.74Zm-8.17.24.48.48a61.27,61.27,0,0,0,6.25,7.21h.24A68.76,68.76,0,1,0,79.46,270l1.44,2.16a10.58,10.58,0,0,1,1,1.68,1.26,1.26,0,0,1,.48,1C82.82,275.53,83.3,276.25,83.79,277Z"/><path class="cls-3" d="M958,435.73c-7.36,0-15.26-5.79-15.26-13.15V364.7a24.33,24.33,0,0,1,4.21-.26c3.69,0,6.58,1.05,9.47,1.84a31.61,31.61,0,0,0,8.42,1.58h.26a17,17,0,0,0,8.42-2.37v57.34C973.29,430.21,965.39,435.73,958,435.73Zm15.26-92.07V357.6c-3.95,3.16-6.58,3.42-8.42,3.42a20.88,20.88,0,0,1-6.58-1.32A34.61,34.61,0,0,0,947,357.6a22.74,22.74,0,0,0-4.21.26v-14.2Zm13.42-6.58H929.35a3.2,3.2,0,0,0-3.16,3.16,3.4,3.4,0,0,0,3.16,3.16h6.58v79.18c0,10.52,10.26,19.73,21.83,19.73s21.83-9.21,21.83-19.73V343.66h6.58a3.2,3.2,0,0,0,3.16-3.16C989.33,338.92,988.28,337.08,986.71,337.08Z"/><path class="cls-3" d="M949.08,398.64a4.13,4.13,0,0,0,0,5.79,4,4,0,0,0,2.89,1.06,5.48,5.48,0,0,0,2.89-1.06,3.81,3.81,0,0,0,0-5.52A4.13,4.13,0,0,0,949.08,398.64Z"/><path class="cls-3" d="M953.56,378.11a3.83,3.83,0,0,0,0,5.78,4,4,0,0,0,2.89,1.06,5.48,5.48,0,0,0,2.89-1.06,3.81,3.81,0,0,0,0-5.52C957.5,376.54,954.87,376.54,953.56,378.11Z"/><path class="cls-3" d="M964.61,387.85a4.13,4.13,0,0,0,0,5.79,4,4,0,0,0,2.89,1.06,5.48,5.48,0,0,0,2.89-1.06,4,4,0,0,0,1.05-2.89,5.48,5.48,0,0,0-1.05-2.89A4.12,4.12,0,0,0,964.61,387.85Z"/><path class="cls-3" d="M362.06,183.74c-7.36,0-15.26-5.79-15.26-13.15V112.72a24.33,24.33,0,0,1,4.21-.26c3.69,0,6.58,1.05,9.47,1.84a31.61,31.61,0,0,0,8.42,1.58h.26a17,17,0,0,0,8.42-2.37v57.34C377.32,178.22,369.43,183.74,362.06,183.74Zm15.26-92.07v13.94c-3.95,3.16-6.58,3.42-8.42,3.42a20.88,20.88,0,0,1-6.58-1.32,34.61,34.61,0,0,0-11.31-2.1,22.74,22.74,0,0,0-4.21.26V91.67Zm13.42-6.58H333.39a3.2,3.2,0,0,0-3.16,3.16,3.4,3.4,0,0,0,3.16,3.16H340v79.18c0,10.52,10.26,19.73,21.83,19.73s21.83-9.21,21.83-19.73V91.67h6.58a3.2,3.2,0,0,0,3.16-3.16C393.36,86.94,392.31,85.09,390.74,85.09Z"/><path class="cls-3" d="M353.11,146.65a4.13,4.13,0,0,0,0,5.79A4,4,0,0,0,356,153.5a5.48,5.48,0,0,0,2.89-1.06,3.81,3.81,0,0,0,0-5.52A4.13,4.13,0,0,0,353.11,146.65Z"/><path class="cls-3" d="M357.59,126.13a3.83,3.83,0,0,0,0,5.78,4,4,0,0,0,2.89,1.06,5.48,5.48,0,0,0,2.89-1.06,3.81,3.81,0,0,0,0-5.52C361.53,124.55,358.9,124.55,357.59,126.13Z"/><path class="cls-3" d="M368.64,135.86a4.13,4.13,0,0,0,0,5.79,4,4,0,0,0,2.89,1.06,5.48,5.48,0,0,0,2.89-1.06,4,4,0,0,0,1.05-2.89,5.48,5.48,0,0,0-1.05-2.89A4.12,4.12,0,0,0,368.64,135.86Z"/><path class="cls-3" d="M811.71,149.61c2.58,8,5.21,14.64,7.75,21.1s5.13,13,7.72,20.94a197.9,197.9,0,0,1,46.75-6c14.69,0,29.52,1.91,46.43,6,2.59-7.93,5.2-14.55,7.73-21s5.17-13.11,7.75-21.07C916.14,137.26,895.26,131,873.77,131S831.41,137.26,811.71,149.61Zm11.65,48.92-.82-2.58c-2.79-8.89-5.65-16.13-8.41-23.13s-5.7-14.46-8.56-23.57l-.65-2.08,1.83-1.19c21.19-13.75,43.74-20.72,67-20.72s45.84,7,67,20.72l1.83,1.19-.65,2.08c-2.85,9.1-5.75,16.44-8.55,23.55S927.82,187.05,925,196l-.81,2.58-2.62-.66c-17.55-4.43-32.68-6.49-47.64-6.49s-30.67,2.12-48,6.49Z"/><path class="cls-3" d="M888,161.74H859.57a2.87,2.87,0,1,1,0-5.73H888a2.87,2.87,0,0,1,0,5.73Z"/><path class="cls-3" d="M873.78,176.06a2.87,2.87,0,0,1-2.87-2.87V144.57a2.87,2.87,0,1,1,5.73,0v28.63A2.87,2.87,0,0,1,873.78,176.06Z"/><path class="cls-3" d="M332.89,382.3a16.18,16.18,0,1,1,15.78-16.17A16,16,0,0,1,332.89,382.3Zm0-38.26a22.09,22.09,0,1,0,21.69,22.09A22,22,0,0,0,332.89,344Z"/><path class="cls-3" d="M332.89,401.49c-29.32,0-53.24-28.39-53.24-35.37s23.92-35.37,53.24-35.37,53.24,28.39,53.24,35.37S362.21,401.49,332.89,401.49Zm0-76.65c-32.34,0-59.16,30-59.16,41.28s26.82,41.28,59.16,41.28,59.16-30,59.16-41.28S365.23,324.84,332.89,324.84Z"/><path class="cls-3" d="M880.59,301.46a3.75,3.75,0,0,1-3.75-3.75v-.39a9.41,9.41,0,0,0,3.75-2.32,9.46,9.46,0,0,0,3.75,2.32v.39A3.75,3.75,0,0,1,880.59,301.46ZM894,285.62a2.76,2.76,0,0,0-2.76,2.75,3.92,3.92,0,0,1-7.69,1.07,2.75,2.75,0,0,0-1-5.3h-3.82a2.75,2.75,0,0,0-1,5.3,3.92,3.92,0,0,1-7.69-1.07,2.76,2.76,0,0,0-5.51,0,9.45,9.45,0,0,0,6.89,9.08v.27a9.26,9.26,0,0,0,18.52,0v-.27a9.45,9.45,0,0,0,6.89-9.08A2.76,2.76,0,0,0,894,285.62Z"/><path class="cls-3" d="M864.35,272.21c0,7-10.55,7-10.55,0s10.55-7,10.55,0"/><path class="cls-3" d="M907.38,272.21c0,7-10.55,7-10.55,0s10.55-7,10.55,0"/><path class="cls-3" d="M880.59,311.71c-12.37,0-41.12-2.83-41.15-29l1.66-45.41,18.55,11.42a2.75,2.75,0,0,0,1.44.41h38.46a2.78,2.78,0,0,0,1.42-.39l19.1-11.48,1.67,45.47C921.71,308.89,893,311.71,880.59,311.71Zm46.66-29.17-1.84-50.18a2.75,2.75,0,0,0-4.17-2.26l-22.45,13.5H861.87L840,230.12a2.75,2.75,0,0,0-4.2,2.24l-1.84,50.18v.1c0,21.65,17.44,34.57,46.66,34.57s46.66-12.92,46.66-34.57Z"/><path class="cls-3" d="M1084.74,605.23l-30.14,30.1c-4.69,4.69-9.65.89-10.89-.8-3-4.07-13-19.62-15.71-23.41a150.12,150.12,0,0,0-28.45-30.49,2.16,2.16,0,0,1-.18-3.38L1026.62,550a2.15,2.15,0,0,1,3.38.18,149.29,149.29,0,0,0,30.45,28.36c3.86,2.8,19.43,12.71,23.52,15.76C1085.79,595.72,1089.46,600.52,1084.74,605.23ZM992.95,557a10.86,10.86,0,0,0-4.24-10.11,5.33,5.33,0,1,1,7.47-7.47,10.7,10.7,0,0,0,10.13,4.22,15.66,15.66,0,0,1,13.31,4.42l.07.07-22.23,22.2S992,564.25,992.95,557Zm94.75,32.34c-4.27-3.2-19.87-13.11-23.65-15.87a143.5,143.5,0,0,1-29.21-27.21c-1.33-1.65-5.6-5.33-10.54-2.36,0,0-8.58-8.62-18.9-6.47a4.35,4.35,0,0,1-4.27-1.8,11.59,11.59,0,1,0-16.23,16.23c3.15,2.34,1.6,6.31,1.6,7.36A22.67,22.67,0,0,0,993.23,575c-3,4.87.6,9.09,2.36,10.51a142.72,142.72,0,0,1,27.28,29.23c2.69,3.71,12.63,19.29,15.83,23.56,2.36,3.13,11.62,10.18,20.33,1.47l30.14-30.1C1097.43,601.41,1091.14,591.89,1087.7,589.32Z"/><path class="cls-3" d="M-44,497.5V479.35l.45.12.33.12c.38.11.78.23,1.2.4.24.1.45.17.64.24l.76.27v11.17a3,3,0,0,0,2.95,2.95,2.94,2.94,0,0,0,2.93-2.95v-8.55l0,0,.57.28.88.4c.07,0,.14.08.21.1l.26.17c.28.16.54.28.8.4s.38.17.52.24l.12.07v6.89a2.93,2.93,0,0,0,2.94,2.95,2.94,2.94,0,0,0,2.94-2.95V487.3l1.72.54,1.29.36.38.09v3.38a2.94,2.94,0,0,0,2.94,2.95,2.94,2.94,0,0,0,2.94-2.95V489h.61a10.2,10.2,0,0,0,1.25,0H-14c.45,0,.83-.07,1.15-.12v2.84a3,3,0,0,0,2.94,2.95.93.93,0,0,0,.38-.05,2.9,2.9,0,0,0,2.57-2.9V487.5c.4-.17.73-.29,1-.43l.33-.14a6.16,6.16,0,0,0,.74-.33h1.28V497.5H-44ZM-22.42,469l1.45.64a16,16,0,0,1,1.55.73c.36.18.74.37,1.14.54l.59.29c.4.24.87.45,1.31.65l1.17.59.31.14.14.07a1.79,1.79,0,0,1,.26.12l.23.12a2.37,2.37,0,0,1,.5.23,1.23,1.23,0,0,1,.21.12l.26.1c.21.1.45.19.66.31a1.33,1.33,0,0,1,.45.21.88.88,0,0,1,.26.12c.07,0,.15.07.24.09l.74.31.73.31a.78.78,0,0,0,.26.12,5.44,5.44,0,0,1,.67.26l1.46.55.64.23.33.12.28.09.79.26c.31.1.68.22,1,.31l.54.14.73.21,1.34.33a14.1,14.1,0,0,1-1.05,1.17,3.38,3.38,0,0,1-.29.26,6.88,6.88,0,0,1-1,.85,11.73,11.73,0,0,1-1.62,1.1c-.31.19-.55.31-.78.43,0,0-.08,0-.1.05l-.21.12c-.16.09-.4.19-.61.28l-.38.14c-.32.15-.7.29-1.07.43a2.92,2.92,0,0,1-.57.17,3,3,0,0,1-.57.17c-.42.12-.81.23-1.24.33a11.24,11.24,0,0,1-1.13.14.14.14,0,0,1-.1,0,11.4,11.4,0,0,1-1.36.16l-.28,0c-.33,0-.66,0-1,0h-.65a7.48,7.48,0,0,1-.83,0c-.33,0-.79-.07-1.24-.14l-.87-.12-.74-.09a4.39,4.39,0,0,1-.69-.14l-.64-.14c-.29-.07-.57-.14-.9-.24l-.1,0-1.62-.52c-.57-.23-1.12-.44-1.67-.68-.38-.17-.76-.34-1.12-.48l-.07,0-.67-.31c-.3-.14-.56-.28-.85-.4l-.21-.12-.57-.28-.35-.14-.21-.1-.36-.19-.33-.16a2.26,2.26,0,0,0-.5-.29l-.19-.07-.45-.21-1-.52c-.07-.05-.17-.07-.26-.12l-.36-.14-.29-.14c-.21-.09-.4-.19-.59-.28s-.24-.12-.33-.17a4.42,4.42,0,0,1-.55-.24s-.07,0-.09,0a5.64,5.64,0,0,1-.74-.33l-1.22-.52c-.15,0-.24-.13-.36-.17s-.08,0-.1,0-.19-.07-.28-.12l-2.43-.9a2.56,2.56,0,0,0-.43-.17l-1.11-.38-.24-.07c-.3-.12-.7-.21-1.07-.33l-.52-.14c-.76-.22-1.45-.38-2.09-.55a1.9,1.9,0,0,0,.21-.26c.23-.28.51-.59.87-.94A12.19,12.19,0,0,1-43,470.58a11.83,11.83,0,0,1,1.64-1.1c.31-.19.57-.33.8-.45l.29-.17.54-.23.43-.19.88-.33.28-.12a7.24,7.24,0,0,0,.76-.21l.33-.09c.42-.12.83-.21,1.24-.31l1.22-.19c.48,0,.89-.12,1.34-.14A10.81,10.81,0,0,1-32,467h.4a6.31,6.31,0,0,1,1.07,0c.35,0,.85.07,1.31.14l1.53.21c.19,0,.34.08.5.1l.85.21a11.28,11.28,0,0,1,1.12.33l2,.66ZM2.33,497.5v-5H132.39a5.54,5.54,0,0,1-5.5,5Zm-49.28,5.89H126.89a11.4,11.4,0,0,0,10.94-14.66A3,3,0,0,0,135,486.6H2.33V481a13.57,13.57,0,0,0,1.14-1.57,14.62,14.62,0,0,0,1.26-2.52,8.13,8.13,0,0,0,.38-1.34c0-.12,0-.24,0-.38a3,3,0,0,0-.64-1.86,2.9,2.9,0,0,0-2-1.15l-.17,0L0,471.71c-.77-.16-1.67-.35-2.64-.61l-.59-.19c-.26-.07-.52-.14-.8-.24l-1.63-.55c-.11,0-.35-.12-.56-.19l-.91-.35c-.26-.12-.55-.21-.83-.33l-.59-.26-.78-.33-.14,0c-.29-.14-.57-.26-.83-.4l-.77-.33c-.38-.19-.61-.31-.85-.4s-.57-.26-.78-.36L-14,466.5c-.33-.15-.64-.29-1-.48s-.69-.33-1-.5-.45-.19-.66-.31c-.69-.38-1.33-.68-2-1l-.4-.19-.28-.12-.89-.38c-.3-.14-.64-.26-1-.4l-2.42-.79c-.48-.14-.92-.29-1.39-.38l-.83-.21a9.67,9.67,0,0,0-1.15-.24l-1.53-.22c-.61-.07-1.17-.14-1.74-.16a8.77,8.77,0,0,0-1.45,0H-32c-.55,0-1.12,0-1.67,0a14.57,14.57,0,0,0-1.79.21c-.51.06-1.05.13-1.57.23s-1.15.26-1.67.43l-.31.07c-.4.12-.8.22-1.17.36l-.4.14c-.38.14-.76.28-1.11.45l-.36.17c-.36.14-.69.29-1,.45l-.33.17c-.33.19-.66.36-1,.55a15,15,0,0,0-2.23,1.5,16.34,16.34,0,0,0-1.88,1.64,17.17,17.17,0,0,0-2.59,3.2,13.43,13.43,0,0,0-1.27,2.54,9.1,9.1,0,0,0-.35,1.29,3,3,0,0,0,.54,2.23,3,3,0,0,0,1.95,1.2l.26,0h0v22.41A3,3,0,0,0-46.95,503.39Z"/><path class="cls-3" d="M85.41,605.23l-30.14,30.1c-4.69,4.69-9.65.89-10.89-.8-3-4.07-13-19.62-15.71-23.41A150.12,150.12,0,0,0,.22,580.63,2.16,2.16,0,0,1,0,577.25L27.29,550a2.15,2.15,0,0,1,3.38.18,149.29,149.29,0,0,0,30.45,28.36c3.86,2.8,19.43,12.71,23.52,15.76C86.45,595.72,90.12,600.52,85.41,605.23ZM-6.39,557a10.86,10.86,0,0,0-4.24-10.11,5.33,5.33,0,0,1-1.93-5.58,5.3,5.3,0,0,1,3.82-3.82,5.36,5.36,0,0,1,5.58,1.93A10.7,10.7,0,0,0,7,543.62,15.66,15.66,0,0,1,20.29,548l.07.07-22.23,22.2S-7.29,564.25-6.39,557Zm94.75,32.34c-4.27-3.2-19.87-13.11-23.65-15.87a143.5,143.5,0,0,1-29.21-27.21c-1.33-1.65-5.6-5.33-10.54-2.36,0,0-8.58-8.62-18.9-6.47a4.35,4.35,0,0,1-4.27-1.8,11.5,11.5,0,0,0-12-4.24,11.49,11.49,0,0,0-8.47,8.47,11.54,11.54,0,0,0,4.27,12c3.15,2.34,1.6,6.31,1.6,7.36A22.67,22.67,0,0,0-6.11,575c-3,4.87.6,9.09,2.36,10.51a142.72,142.72,0,0,1,27.28,29.23c2.69,3.71,12.63,19.29,15.83,23.56,2.36,3.13,11.62,10.18,20.33,1.47l30.14-30.1C98.1,601.41,91.81,591.89,88.37,589.32Z"/><path class="cls-3" d="M19.82,578.31l-3.53,3.53a3.13,3.13,0,1,0,4.42,4.42l3.53-3.53a3,3,0,0,0,0-4.42A3.13,3.13,0,0,0,19.82,578.31Z"/><path class="cls-3" d="M30.29,588.76l-3.53,3.53a3.13,3.13,0,1,0,4.42,4.42l3.53-3.53a3,3,0,0,0,0-4.42A3.13,3.13,0,0,0,30.29,588.76Z"/><path class="cls-3" d="M40.76,599.23l-3.53,3.53a3.13,3.13,0,1,0,4.42,4.42l3.53-3.53a3,3,0,0,0,0-4.42A3.13,3.13,0,0,0,40.76,599.23Z"/><path class="cls-3" d="M51.25,609.7l-3.53,3.53a3.13,3.13,0,0,0,4.42,4.42l3.53-3.53a3,3,0,0,0,0-4.42A3.13,3.13,0,0,0,51.25,609.7Z"/><path class="cls-3" d="M569.49,51.23c-3.18,0-5.76,3-5.76,6.76s2.59,6.76,5.76,6.76h35.07c3.18,0,5.75-3,5.75-6.76s-2.59-6.76-5.75-6.76Zm35.07,19.54H569.49C563,70.77,557.71,65,557.71,58S563,45.21,569.49,45.21h35.07c6.49,0,11.78,5.73,11.78,12.78S611,70.77,604.55,70.77Z"/><path class="cls-3" d="M627.6,186.62H546.42a15.87,15.87,0,0,1-15.85-15.85V70.83A15.87,15.87,0,0,1,546.42,55h16v6h-16a9.85,9.85,0,0,0-9.84,9.84v99.94a9.85,9.85,0,0,0,9.84,9.84H627.6a9.85,9.85,0,0,0,9.84-9.84V70.83A9.85,9.85,0,0,0,627.6,61h-16V55h16a15.87,15.87,0,0,1,15.85,15.85v99.94A15.86,15.86,0,0,1,627.6,186.62Z"/><path class="cls-3" d="M619.2,114.69H554.83a3,3,0,1,0,0,6H619.2a3,3,0,0,0,0-6Z"/><path class="cls-3" d="M619.2,135H554.83a3,3,0,1,0,0,6H619.2a3,3,0,0,0,0-6Z"/><path class="cls-3" d="M619.2,155.42H554.83a3,3,0,1,0,0,6H619.2a3,3,0,0,0,0-6Z"/><path class="cls-3" d="M601.52,95.56H573.1a2.87,2.87,0,1,1,0-5.73h28.42a2.87,2.87,0,0,1,0,5.73Z"/><path class="cls-3" d="M587.31,109.88a2.87,2.87,0,0,1-2.87-2.87V78.39a2.87,2.87,0,1,1,5.73,0V107A2.87,2.87,0,0,1,587.31,109.88Z"/><path class="cls-3" d="M361.56,651.7a3,3,0,1,0,3,3A3,3,0,0,0,361.56,651.7Zm0-6a9.07,9.07,0,1,1-9.07,9.07A9,9,0,0,1,361.56,645.66ZM285,555a11.16,11.16,0,0,0-11.1,11.15v36.75a39.6,39.6,0,0,0,36.28,39.68v18.24A27.22,27.22,0,0,0,337.37,688c11.61,0,21-7.6,24.9-18.19a15.12,15.12,0,1,0-6.14-1c-3.28,7.93-10.13,13.13-18.76,13.13a21,21,0,0,1-21.16-21.16V642.54a39.6,39.6,0,0,0,36.28-39.68V566.1A11.16,11.16,0,0,0,341.39,555h-8a3,3,0,1,0,0,6h8a5,5,0,0,1,5.06,5.1v36.75a33.26,33.26,0,1,1-66.51,0V566.1A5,5,0,0,1,285,561h8a3,3,0,1,0,0-6Z"/><path class="cls-3" d="M754.2,177.84a4.76,4.76,0,1,1-4.76-4.76A4.76,4.76,0,0,1,754.2,177.84Zm-31.75-21.63a27.73,27.73,0,0,0-27.19-22.55c-.76,0-1.47,0-2.2.12V121.11h53.17v35.09Zm-27.2,26.39a21.27,21.27,0,0,1-20.67-16.41h8a3.23,3.23,0,0,0,0-6.46h-8.51a21,21,0,0,1,1.53-6.46h14.67a3.23,3.23,0,1,0,0-6.46H679.85a21.21,21.21,0,1,1,15.4,35.79ZM693,105.32h49.53a3.65,3.65,0,0,1,3.64,3.64v5.73H693Zm87.58,69.26h-8.06l-9.41-21.24a3.24,3.24,0,0,0-3-1.92h-7.53V109a10.11,10.11,0,0,0-10.1-10.1H693V84.15a3.29,3.29,0,0,0-2-3l-19-8.15a3.24,3.24,0,1,0-2.54,6l17.05,7.32v48.8a27.67,27.67,0,1,0,36.3,27.59h23.32v4.39a11.22,11.22,0,1,0,6.46,0v-9.22h5.43l9.41,21.24a3.24,3.24,0,0,0,3,1.92h10.16a3.22,3.22,0,1,0,0-6.43Z"/><path class="cls-3" d="M606.33,300.7h-5.65a37,37,0,0,1,33.52-33.52v5.65Zm-36.17,0a43.51,43.51,0,0,0-40.07-40.07V249.82H634.2v10.81a43.51,43.51,0,0,0-40.07,40.07Zm-40.07-27.87v-5.65a37,37,0,0,1,33.54,33.52H558Zm104.12-49.64v20.13H530.09V223.19Zm3.25-6.5H526.84a3.25,3.25,0,0,0-3.25,3.25v54.22a3.32,3.32,0,0,0,.95,2.3l29.78,29.79a3.25,3.25,0,0,0,2.31.95h51a3.33,3.33,0,0,0,2.31-.95l29.78-29.79a3.25,3.25,0,0,0,.95-2.31V219.95A3.25,3.25,0,0,0,637.45,216.7Z"/><path class="cls-3" d="M797.13,624.07a5.63,5.63,0,0,1-5.66,5.66H732.31a5.63,5.63,0,0,1-5.66-5.66V589a5.63,5.63,0,0,1,5.66-5.66h59.06A5.63,5.63,0,0,1,797,589v35.07Zm-54.87-65.65a19.69,19.69,0,0,1,39.37,0v18.43H742.26Zm49.21,18.53H788V558.42a26.07,26.07,0,0,0-52.14,0v18.43h-3.46a12,12,0,0,0-12,12V624a12,12,0,0,0,12,12h59.06a12,12,0,0,0,12-12V589A12,12,0,0,0,791.47,576.95Z"/><path class="cls-3" d="M763.1,612.34a4.08,4.08,0,1,1,4.08-4.08A4.09,4.09,0,0,1,763.1,612.34Zm0-14.66a10.57,10.57,0,1,0,10.57,10.57A10.54,10.54,0,0,0,763.1,597.68Z"/><path class="cls-3" d="M322.64,511.9c-5.21-5.21-6.69-14.88-1.49-20.09l40.92-40.92a24.33,24.33,0,0,1,3.16,2.79c2.61,2.61,3.9,5.4,5.39,8a31.61,31.61,0,0,0,4.84,7.07l.18.18a17,17,0,0,0,7.63,4.28l-40.55,40.55C337.34,518.78,327.85,517.11,322.64,511.9Zm75.89-54.32-9.86,9.86c-5-.56-7.07-2.23-8.37-3.54a20.88,20.88,0,0,1-3.72-5.58,34.61,34.61,0,0,0-6.51-9.48,22.74,22.74,0,0,0-3.16-2.79l10-10Zm14.14,4.84-40.55-40.55a3.2,3.2,0,0,0-4.47,0,3.4,3.4,0,0,0,0,4.47L372.3,431l-56,56c-7.44,7.44-6.69,21.21,1.49,29.39s21.95,8.93,29.39,1.49L403,462l4.65,4.65a3.2,3.2,0,0,0,4.47,0C413.23,465.58,413.79,463.54,412.68,462.42Z"/><path class="cls-3" d="M342.54,479.35a4.13,4.13,0,0,0-4.09,4.09,4,4,0,0,0,1.3,2.79,5.48,5.48,0,0,0,2.79,1.3,3.81,3.81,0,0,0,3.9-3.9A4.13,4.13,0,0,0,342.54,479.35Z"/><path class="cls-3" d="M360.22,468a3.83,3.83,0,0,0-4.09,4.09,4,4,0,0,0,1.3,2.79,5.48,5.48,0,0,0,2.79,1.3,3.81,3.81,0,0,0,3.9-3.9C364.12,469.67,362.26,467.81,360.22,468Z"/><path class="cls-3" d="M361.15,482.7a4.13,4.13,0,0,0-4.09,4.09,4,4,0,0,0,1.3,2.79,5.48,5.48,0,0,0,2.79,1.3,4,4,0,0,0,2.79-1.3,5.48,5.48,0,0,0,1.3-2.79A4.12,4.12,0,0,0,361.15,482.7Z"/><path class="cls-3" d="M768,314h20.45A10.23,10.23,0,0,1,768,314Zm-71.59,0H716.9a10.23,10.23,0,0,1-20.45,0Zm68.18-54.55h8.47l12.2,17H764.63Zm-3.73-6.82a3.53,3.53,0,0,0-3.09,3.41v23.86a3.54,3.54,0,0,0,3.41,3.41H791.9a3.41,3.41,0,0,0,2.77-5.38l-17-23.86a3.46,3.46,0,0,0-2.77-1.44h-14Zm-52.52-1a3.54,3.54,0,0,0-3.36,3.46v14.27h-15.5a3.41,3.41,0,1,0,.37,6.82H705v14.28a3.41,3.41,0,1,0,6.82,0V276.15H727a3.41,3.41,0,1,0,0-6.82H711.84V255.06A3.55,3.55,0,0,0,708.38,251.6Zm-27.27-9.22h97.11l32.44,45.38v12.57a7.23,7.23,0,0,1-6.82,6.82H681.1a7.23,7.23,0,0,1-6.82-6.82V249.2A7.23,7.23,0,0,1,681.1,242.38Zm0-6.82a13.75,13.75,0,0,0-13.64,13.64v51.14A13.75,13.75,0,0,0,681.1,314h8.52a17,17,0,0,0,34.09,0h37.5a17,17,0,0,0,34.09,0h8.52a13.75,13.75,0,0,0,13.64-13.64V286.7a3.46,3.46,0,0,0-.64-2l-34.09-47.73a3.47,3.47,0,0,0-2.77-1.38Z"/><path class="cls-3" d="M647.34,353.46l0,42.59c0,6.63-6.19,7.45-8.27,7.14-5-.72-23.06-4.7-27.66-5.44a150.12,150.12,0,0,0-41.68-1.45,2.16,2.16,0,0,1-2.51-2.26l0-38.52a2.15,2.15,0,0,1,2.51-2.26,149.29,149.29,0,0,0,41.59-1.48C616,351,634,347,639.08,346.29,641.36,346,647.35,346.8,647.34,353.46Zm-99,30.79a10.86,10.86,0,0,0-10.15-4.15,5.33,5.33,0,1,1,0-10.56,10.7,10.7,0,0,0,10.15-4.18,15.66,15.66,0,0,1,12.54-6.29h.09l0,31.42S552.82,390,548.31,384.25Zm89.87-44.13c-5.28.76-23.32,4.78-27.95,5.5A143.5,143.5,0,0,1,570.35,347c-2.11-.22-7.73.19-9.12,5.78,0,0-12.17,0-17.93,8.79a4.35,4.35,0,0,1-4.29,1.74,11.59,11.59,0,1,0,0,22.95c3.88-.58,5.59,3.33,6.33,4.07a22.67,22.67,0,0,0,15.9,6.41c1.35,5.53,6.85,6,9.1,5.77a142.72,142.72,0,0,1,40,1.38c4.53.72,22.57,4.71,27.85,5.47,3.88.55,15.42-1,15.42-13.34l0-42.59C653.62,341.79,642.44,339.51,638.19,340.12Z"/><path class="cls-3" d="M581.93,380.81v5a3.13,3.13,0,0,0,6.25,0v-5a3,3,0,0,0-3.13-3.13A3.13,3.13,0,0,0,581.93,380.81Z"/><path class="cls-3" d="M596.72,380.8v5a3.13,3.13,0,1,0,6.25,0v-5a3,3,0,0,0-3.13-3.13A3.13,3.13,0,0,0,596.72,380.8Z"/><path class="cls-3" d="M611.53,380.8v5a3.13,3.13,0,1,0,6.25,0v-5a3,3,0,0,0-3.13-3.13A3.13,3.13,0,0,0,611.53,380.8Z"/><path class="cls-3" d="M626.35,380.78v5a3.13,3.13,0,1,0,6.25,0v-5a3,3,0,0,0-3.13-3.13A3.13,3.13,0,0,0,626.35,380.78Z"/><path class="cls-3" d="M395.32,720.58a5.63,5.63,0,0,1,5.66,5.66V785.4a5.63,5.63,0,0,1-5.66,5.66H360.25a5.63,5.63,0,0,1-5.66-5.66V726.34a5.63,5.63,0,0,1,5.66-5.66h35.07Zm-65.65,54.87a19.69,19.69,0,0,1,0-39.37H348.1v39.37Zm18.53-49.21v3.45H329.67a26.07,26.07,0,0,0,0,52.14H348.1v3.46a12,12,0,0,0,12,12h35.08a12,12,0,0,0,12-12V726.24a12,12,0,0,0-12-12h-35A12,12,0,0,0,348.21,726.24Z"/><path class="cls-3" d="M493.15,765.57a31.8,31.8,0,1,1,45,0A31.83,31.83,0,0,1,493.15,765.57Zm-67.21-67.21a31.8,31.8,0,1,1,45,0A31.83,31.83,0,0,1,425.95,698.37Zm116.32,18.09A37.73,37.73,0,0,0,495,711.58a17,17,0,0,0-15.08-15.08,37.79,37.79,0,1,0-5.38,6.45,10.94,10.94,0,0,1,14,14,37.65,37.65,0,1,0,53.72-.48Z"/><path class="cls-3" d="M610.53,741.25a2.21,2.21,0,0,0,3.3-1.62l5-47.05a7.43,7.43,0,0,0-8.92-7.17L603,690.64a15.86,15.86,0,0,1-19.18,0L577,685.41a7.39,7.39,0,0,0-1.47-.15,7.47,7.47,0,0,0-7.45,7.32l5,47.13a2.2,2.2,0,0,0,3.29,1.53l10.86-17.52a7.31,7.31,0,0,1,12.43,0Zm1.09,6.65a8.55,8.55,0,0,1-5.54-2.06l-.37-.32-11.43-18.45a1,1,0,0,0-1.65,0L581.2,745.53l-.37.32a8.55,8.55,0,0,1-14-5.37l-5.07-47.73a13.83,13.83,0,0,1,13.8-13.83,14,14,0,0,1,3.72.51l.59.16,7.89,6a9.66,9.66,0,0,0,11.51,0l7.89-6,.59-.16a14,14,0,0,1,3.72-.51,13.83,13.83,0,0,1,13.8,13.83l0,.34-5.06,47.32A8.61,8.61,0,0,1,611.62,747.91Z"/><path class="cls-3" d="M227.73,756.25a2.21,2.21,0,0,0,3.3-1.62l5-47.05a7.43,7.43,0,0,0-8.92-7.17l-6.88,5.23a15.86,15.86,0,0,1-19.18,0l-6.88-5.23a7.39,7.39,0,0,0-1.47-.15,7.47,7.47,0,0,0-7.45,7.32l5,47.13a2.2,2.2,0,0,0,3.29,1.53l10.86-17.52a7.31,7.31,0,0,1,12.43,0Zm1.09,6.65a8.55,8.55,0,0,1-5.54-2.06l-.37-.32-11.43-18.45a1,1,0,0,0-1.65,0L198.4,760.53l-.37.32a8.55,8.55,0,0,1-14-5.37l-5.07-47.73a13.83,13.83,0,0,1,13.8-13.83,14,14,0,0,1,3.72.51l.59.16,7.89,6a9.66,9.66,0,0,0,11.51,0l7.89-6,.59-.16a14,14,0,0,1,3.72-.51,13.83,13.83,0,0,1,13.8,13.83l0,.34-5.06,47.32A8.61,8.61,0,0,1,228.82,762.91Z"/><path class="cls-3" d="M727.11,694.19c2.58,8,5.21,14.64,7.75,21.1s5.13,13,7.72,20.94a197.9,197.9,0,0,1,46.75-6c14.69,0,29.52,1.91,46.43,6,2.59-7.93,5.2-14.55,7.73-21s5.17-13.11,7.75-21.07c-19.7-12.36-40.58-18.62-62.07-18.62S746.81,681.83,727.11,694.19Zm11.65,48.92-.82-2.58c-2.79-8.89-5.65-16.13-8.41-23.13s-5.7-14.46-8.56-23.57l-.65-2.08,1.83-1.19c21.19-13.75,43.74-20.72,67-20.72s45.84,7,67,20.72l1.83,1.19-.65,2.08c-2.85,9.1-5.75,16.44-8.55,23.55s-5.62,14.26-8.42,23.16l-.81,2.58-2.62-.66C819.44,738,804.31,736,789.35,736s-30.67,2.12-48,6.49Z"/><path class="cls-3" d="M803.39,706.32H775a2.87,2.87,0,1,1,0-5.73h28.42a2.87,2.87,0,0,1,0,5.73Z"/><path class="cls-3" d="M789.18,720.64a2.87,2.87,0,0,1-2.87-2.87V689.15a2.87,2.87,0,1,1,5.73,0v28.63A2.87,2.87,0,0,1,789.18,720.64Z"/><path class="cls-3" d="M132.55,732.44a10.15,10.15,0,0,1-7.22,3h0a10.15,10.15,0,0,1-7.22-3l-16.76-16.77a10.21,10.21,0,0,1,14.44-14.44L132.55,718A10.23,10.23,0,0,1,132.55,732.44ZM83.2,776.9V765.34a6.13,6.13,0,0,0,4.2-5.52c0-3.36-3.24-6.09-7.24-6.09s-7.24,2.73-7.24,6.09a6.16,6.16,0,0,0,4.36,5.59V776.9c-18.59-.47-39.33-5.82-39.33-27.29a39.91,39.91,0,0,1,1-8.76,16,16,0,0,0,7.41-4.21l16.76-16.76a16.12,16.12,0,0,0,4.38-14.67,31.1,31.1,0,0,1,25.24,0,16.56,16.56,0,0,0-.33,3.27,16,16,0,0,0,4.72,11.41l16.76,16.76a16,16,0,0,0,7.41,4.21,39.9,39.9,0,0,1,1,8.76C122.37,771,101.76,776.39,83.2,776.9Zm-3,11a6.79,6.79,0,0,1-6.6-5.22c2.13.13,4.32.2,6.6.2s4.47-.07,6.6-.2A6.78,6.78,0,0,1,80.15,787.88ZM27.76,718l16.76-16.76A10.21,10.21,0,0,1,59,715.68L42.2,732.45A10.21,10.21,0,0,1,27.76,718Zm109-4.19L120,697.06A16.12,16.12,0,0,0,95,699.68a37.47,37.47,0,0,0-29.77,0,16.13,16.13,0,0,0-24.94-2.62L23.57,713.82a16.11,16.11,0,0,0,9.27,27.38,44.87,44.87,0,0,0-.83,8.4c0,18.32,12.48,29.6,35.48,32.51a12.71,12.71,0,0,0,25.34,0c23-2.91,35.47-14.18,35.47-32.51a44.94,44.94,0,0,0-.83-8.4,16.11,16.11,0,0,0,9.27-27.38Z"/><path class="cls-3" d="M674.54,16.61c-7.36,0-15.26-5.79-15.26-13.15V-54.42a24.33,24.33,0,0,1,4.21-.26c3.69,0,6.58,1.05,9.47,1.84a31.61,31.61,0,0,0,8.42,1.58h.26a17,17,0,0,0,8.42-2.37V3.72C689.8,11.09,681.91,16.61,674.54,16.61ZM689.8-75.46v13.94c-3.95,3.16-6.58,3.42-8.42,3.42a20.88,20.88,0,0,1-6.58-1.32,34.61,34.61,0,0,0-11.31-2.1,22.74,22.74,0,0,0-4.21.26v-14.2ZM703.22-82H645.87a3.2,3.2,0,0,0-3.16,3.16,3.4,3.4,0,0,0,3.16,3.16h6.58V3.46c0,10.52,10.26,19.73,21.83,19.73S696.11,14,696.11,3.46V-75.46h6.58a3.2,3.2,0,0,0,3.16-3.16C705.84-80.19,704.79-82,703.22-82Z"/><path class="cls-3" d="M395.32-17.42A5.63,5.63,0,0,1,401-11.76V47.4a5.63,5.63,0,0,1-5.66,5.66H360.25a5.63,5.63,0,0,1-5.66-5.66V-11.66a5.63,5.63,0,0,1,5.66-5.66h35.07ZM329.67,37.45a19.69,19.69,0,0,1,0-39.37H348.1V37.45Zm18.53-49.21V-8.3H329.67a26.07,26.07,0,0,0,0,52.14H348.1V47.3a12,12,0,0,0,12,12h35.08a12,12,0,0,0,12-12V-11.76a12,12,0,0,0-12-12h-35A12,12,0,0,0,348.21-11.76Z"/><path class="cls-3" d="M383.6,16.62a4.08,4.08,0,1,1-4.08-4.08A4.09,4.09,0,0,1,383.6,16.62Zm-14.66,0A10.57,10.57,0,1,0,379.51,6,10.54,10.54,0,0,0,368.94,16.62Z"/><path class="cls-3" d="M610.53,3.25a2.21,2.21,0,0,0,3.3-1.62l5-47.05a7.47,7.47,0,0,0-7.45-7.32,7.39,7.39,0,0,0-1.47.15L603-47.36a15.75,15.75,0,0,1-9.59,3.23,15.74,15.74,0,0,1-9.59-3.23L577-52.59a7.39,7.39,0,0,0-1.47-.15,7.47,7.47,0,0,0-7.45,7.32l5,47.13a2.2,2.2,0,0,0,3.29,1.53l10.86-17.52a7.27,7.27,0,0,1,6.22-3.47,7.26,7.26,0,0,1,6.22,3.47Zm1.09,6.65a8.55,8.55,0,0,1-5.54-2.06l-.37-.32L594.28-10.92a1,1,0,0,0-.83-.46,1,1,0,0,0-.83.46L581.2,7.53l-.37.32a8.55,8.55,0,0,1-5.54,2.06,8.6,8.6,0,0,1-8.5-7.43l-5.07-47.73a13.83,13.83,0,0,1,13.8-13.83,14,14,0,0,1,3.72.51l.59.16,7.89,6a9.66,9.66,0,0,0,11.51,0l7.89-6,.59-.16a14,14,0,0,1,3.72-.51,13.83,13.83,0,0,1,13.8,13.83l0,.34L620.13,2.39A8.61,8.61,0,0,1,611.62,9.91Z"/><path class="cls-3" d="M227.73,18.25a2.21,2.21,0,0,0,3.3-1.62l5-47.05a7.47,7.47,0,0,0-7.45-7.32,7.39,7.39,0,0,0-1.47.15l-6.88,5.23a15.75,15.75,0,0,1-9.59,3.23,15.74,15.74,0,0,1-9.59-3.23l-6.88-5.23a7.39,7.39,0,0,0-1.47-.15,7.47,7.47,0,0,0-7.45,7.32l5,47.13a2.2,2.2,0,0,0,3.29,1.53L204.44.73a7.31,7.31,0,0,1,12.43,0Zm1.09,6.65a8.55,8.55,0,0,1-5.54-2.06l-.37-.32L211.48,4.08a1,1,0,0,0-1.65,0L198.4,22.53l-.37.32a8.55,8.55,0,0,1-14-5.37L178.9-30.26a13.83,13.83,0,0,1,13.8-13.83,14,14,0,0,1,3.72.51l.59.16,7.89,6a9.66,9.66,0,0,0,11.51,0l7.89-6,.59-.16a14,14,0,0,1,3.72-.51,13.83,13.83,0,0,1,13.8,13.83l0,.34-5.06,47.32A8.61,8.61,0,0,1,228.82,24.91Z"/><path class="cls-3" d="M727.11-43.81c2.58,8,5.21,14.64,7.75,21.1s5.13,13,7.72,20.94a197.9,197.9,0,0,1,46.75-6c14.69,0,29.52,1.91,46.43,6,2.59-7.93,5.2-14.55,7.73-21s5.17-13.11,7.75-21.07c-19.7-12.36-40.58-18.62-62.07-18.62S746.81-56.17,727.11-43.81ZM738.76,5.11l-.82-2.58c-2.79-8.89-5.65-16.13-8.41-23.13s-5.7-14.46-8.56-23.57l-.65-2.08,1.83-1.19c21.19-13.75,43.74-20.72,67-20.72s45.84,7,67,20.72L858-46.25l-.65,2.08c-2.85,9.1-5.75,16.44-8.55,23.55s-5.62,14.26-8.42,23.16l-.81,2.58L837,4.45C819.44,0,804.31-2,789.35-2s-30.67,2.12-48,6.49Z"/><path class="cls-3" d="M58.21,6.78c0,8.8-13.2,8.8-13.2,0s13.2-8.79,13.2,0"/><path class="cls-3" d="M115.3,6.78c0,8.8-13.19,8.8-13.19,0S115.3-2,115.3,6.78"/><path class="cls-3" d="M132.55-5.56a10.15,10.15,0,0,1-7.22,3h0a10.15,10.15,0,0,1-7.22-3L101.35-22.32a10.14,10.14,0,0,1-3-7.22,10.14,10.14,0,0,1,3-7.22,10.14,10.14,0,0,1,7.22-3,10.14,10.14,0,0,1,7.22,3L132.55-20A10.23,10.23,0,0,1,132.55-5.56ZM83.2,38.9V27.34a6.13,6.13,0,0,0,4.2-5.52c0-3.36-3.24-6.09-7.24-6.09s-7.24,2.73-7.24,6.09a6.16,6.16,0,0,0,4.36,5.59V38.9c-18.59-.47-39.33-5.82-39.33-27.29a39.91,39.91,0,0,1,1-8.76,16,16,0,0,0,7.41-4.21L63.15-18.12a16.12,16.12,0,0,0,4.38-14.67,32.31,32.31,0,0,1,12.62-2.68,32.27,32.27,0,0,1,12.62,2.68,16.56,16.56,0,0,0-.33,3.27,16,16,0,0,0,4.72,11.41L113.92-1.36a16,16,0,0,0,7.41,4.21,39.9,39.9,0,0,1,1,8.76C122.37,33,101.76,38.39,83.2,38.9Zm-3,11a6.79,6.79,0,0,1-6.6-5.22c2.13.13,4.32.2,6.6.2s4.47-.07,6.6-.2A6.78,6.78,0,0,1,80.15,49.88ZM27.76-20,44.52-36.75a10.14,10.14,0,0,1,7.22-3,10.14,10.14,0,0,1,7.22,3,10.21,10.21,0,0,1,0,14.43L42.2-5.55a10.14,10.14,0,0,1-7.22,3,10.14,10.14,0,0,1-7.22-3A10.22,10.22,0,0,1,27.76-20Zm109-4.19L120-40.94a16,16,0,0,0-11.41-4.72,16,16,0,0,0-11.41,4.72A16.17,16.17,0,0,0,95-38.32,38.46,38.46,0,0,0,80.16-41.4a38.46,38.46,0,0,0-14.89,3.08,15.94,15.94,0,0,0-2.12-2.62,16,16,0,0,0-11.41-4.72,16,16,0,0,0-11.41,4.72L23.57-24.18a16,16,0,0,0-4.72,11.41A16,16,0,0,0,23.57-1.36,16,16,0,0,0,32.84,3.2a44.87,44.87,0,0,0-.83,8.4c0,18.32,12.48,29.6,35.48,32.51a12.71,12.71,0,0,0,25.34,0c23-2.91,35.47-14.18,35.47-32.51a44.94,44.94,0,0,0-.83-8.4,16,16,0,0,0,9.27-4.57A16.14,16.14,0,0,0,136.74-24.18Z"/><path class="cls-3" d="M446.32,98.11a16.18,16.18,0,1,1,16.17,15.78A16,16,0,0,1,446.32,98.11Zm38.26,0a22.09,22.09,0,1,0-22.09,21.69A22,22,0,0,0,484.58,98.11Z"/><path class="cls-3" d="M427.13,98.11c0-29.32,28.39-53.24,35.37-53.24s35.37,23.92,35.37,53.24-28.39,53.24-35.37,53.24S427.13,127.43,427.13,98.11Zm76.65,0c0-32.34-30-59.16-41.28-59.16s-41.28,26.82-41.28,59.16,30,59.16,41.28,59.16S503.77,130.45,503.77,98.11Z"/><path class="cls-3" d="M493.15,27.57a31.8,31.8,0,1,1,45,0A31.83,31.83,0,0,1,493.15,27.57ZM425.95-39.63a31.83,31.83,0,0,1,0-45,31.83,31.83,0,0,1,45,0,31.83,31.83,0,0,1,0,45A31.83,31.83,0,0,1,425.95-39.63ZM542.26-21.54A37.73,37.73,0,0,0,495-26.42a16,16,0,0,0-4.87-10.21,16.09,16.09,0,0,0-10.21-4.87A37.72,37.72,0,0,0,475-88.76a37.71,37.71,0,0,0-53.26,0,37.7,37.7,0,0,0,0,53.26,37.69,37.69,0,0,0,52.76.45A10.79,10.79,0,0,1,486-32.49a10.77,10.77,0,0,1,2.56,11.44A37.7,37.7,0,0,0,489,31.7a37.7,37.7,0,0,0,53.26,0A37.66,37.66,0,0,0,542.26-21.54Z"/><path class="cls-3" d="M-32.75,129.06A31.83,31.83,0,0,1-41.7,85,31.83,31.83,0,0,1,2.37,76a31.83,31.83,0,0,1,8.95,44.07A31.83,31.83,0,0,1-32.75,129.06ZM-112,76.58a31.83,31.83,0,0,1-8.95-44.07,31.83,31.83,0,0,1,44.07-8.95,31.83,31.83,0,0,1,8.95,44.07A31.83,31.83,0,0,1-112,76.58ZM5.61,71.16a37.73,37.73,0,0,0-47.29,4.62,16,16,0,0,0-6.81-9,16.09,16.09,0,0,0-11-2.74A37.72,37.72,0,0,0-73.65,18.66a37.71,37.71,0,0,0-52.19,10.6,37.7,37.7,0,0,0,10.6,52.19A37.69,37.69,0,0,0-63.45,71.4a10.79,10.79,0,0,1,11.72.23,10.77,10.77,0,0,1,4.78,10.7A37.7,37.7,0,0,0-36,133.94a37.7,37.7,0,0,0,52.19-10.6A37.66,37.66,0,0,0,5.61,71.16Z"/><path class="cls-3" d="M832.18,99.17H794.07a.62.62,0,0,1-.66-.66V40.7a.62.62,0,0,1,.66-.66h38.11a.62.62,0,0,1,.66.66V98.52A.62.62,0,0,1,832.18,99.17Zm3.94-65.7h-46a3.25,3.25,0,0,0-3.28,3.28v65.7a3.25,3.25,0,0,0,3.28,3.28h46a3.25,3.25,0,0,0,3.28-3.28V36.76A3.25,3.25,0,0,0,836.12,33.47Z"/><rect class="cls-3" x="815.1" y="48.59" width="10.51" height="10.51" rx="0.66" ry="0.66"/><rect class="cls-3" x="800.64" y="48.59" width="10.51" height="10.51" rx="0.66" ry="0.66"/><rect class="cls-3" x="815.1" y="63.04" width="10.51" height="10.51" rx="0.66" ry="0.66"/><rect class="cls-3" x="800.64" y="63.04" width="10.51" height="10.51" rx="0.66" ry="0.66"/><rect class="cls-3" x="815.1" y="77.49" width="10.51" height="10.51" rx="0.66" ry="0.66"/><rect class="cls-3" x="800.64" y="77.49" width="10.51" height="10.51" rx="0.66" ry="0.66"/><rect class="cls-3" x="988.27" y="158.42" width="6.16" height="24.28"/><rect class="cls-3" x="973.63" y="158.42" width="6.16" height="24.28"/><path class="cls-3" d="M957.43,270.54h97.15V228.45H957.43Zm100.22,6.17H954.35a3.09,3.09,0,0,1-3.09-3.09V225.37a3.09,3.09,0,0,1,3.09-3.08h103.31a3.09,3.09,0,0,1,3.09,3.08v48.26A3.09,3.09,0,0,1,1057.65,276.71Z"/><path class="cls-3" d="M1054.57,284.68a9.4,9.4,0,0,1-9.39,9.39H966.82a9.4,9.4,0,0,1-9.39-9.39V225.24c0-5.65,4.92-10.66,9.68-15.51s9-9.22,9-14.62v-9.32h59.69v9.32c0,5.39,4.39,9.88,9,14.62s9.68,9.86,9.68,15.51ZM966,176.47V164.65a3.16,3.16,0,0,1,3.15-3.15h73.62a3.16,3.16,0,0,1,3.15,3.15v11.82a3.16,3.16,0,0,1-3.15,3.15H969.19A3.16,3.16,0,0,1,966,176.47Zm83.26,28.95c-3.58-3.65-7.29-7.42-7.29-10.3v-9.32h.8a9.33,9.33,0,0,0,9.31-9.32V164.66a9.32,9.32,0,0,0-9.31-9.33H969.19a9.33,9.33,0,0,0-9.32,9.32v11.82a9.33,9.33,0,0,0,9.32,9.32h.8v9.32c0,2.88-3.71,6.65-7.29,10.3-5.37,5.47-11.44,11.67-11.44,19.83v59.44a15.57,15.57,0,0,0,15.55,15.55h78.36a15.57,15.57,0,0,0,15.55-15.55V225.24C1060.74,217.08,1054.66,210.88,1049.29,205.41Z"/><path class="cls-3" d="M1002.47,263h7.07v-7.51A2.44,2.44,0,0,1,1012,253h7.52V246H1012a2.43,2.43,0,0,1-2.43-2.43V236h-7.07v7.51A2.43,2.43,0,0,1,1000,246h-7.52V253H1000a2.43,2.43,0,0,1,2.43,2.44Zm9.39,4.63h-11.7a2.32,2.32,0,0,1-2.31-2.31v-7.64H990.2a2.31,2.31,0,0,1-2.32-2.31v-11.7a2.32,2.32,0,0,1,2.32-2.32h7.64V233.7a2.31,2.31,0,0,1,2.31-2.31h11.7a2.32,2.32,0,0,1,2.31,2.31v7.64h7.64a2.32,2.32,0,0,1,2.31,2.32v11.7a2.32,2.32,0,0,1-2.31,2.31h-7.64v7.64A2.33,2.33,0,0,1,1011.85,267.62Z"/><rect class="cls-3" x="2.91" y="158.42" width="6.16" height="24.28"/><rect class="cls-3" x="17.56" y="158.42" width="6.16" height="24.28"/><rect class="cls-3" x="32.2" y="158.42" width="6.16" height="24.28"/><path class="cls-3" d="M-42.57,270.54H54.58V228.45H-42.57Zm100.22,6.17H-45.65a3.09,3.09,0,0,1-3.09-3.09V225.37a3.09,3.09,0,0,1,3.09-3.08H57.65a3.09,3.09,0,0,1,3.09,3.08v48.26A3.09,3.09,0,0,1,57.65,276.71Z"/><path class="cls-3" d="M54.57,284.68a9.4,9.4,0,0,1-9.39,9.39H-33.18a9.4,9.4,0,0,1-9.39-9.39V225.24c0-5.65,4.92-10.66,9.68-15.51s9-9.22,9-14.62v-9.32H35.84v9.32c0,5.39,4.39,9.88,9,14.62s9.68,9.86,9.68,15.51ZM-34,176.47V164.65a3.16,3.16,0,0,1,3.15-3.15H42.81A3.16,3.16,0,0,1,46,164.65v11.82a3.16,3.16,0,0,1-3.15,3.15H-30.81A3.16,3.16,0,0,1-34,176.47Zm83.26,28.95C45.71,201.76,42,198,42,195.11v-9.32h.8a9.33,9.33,0,0,0,9.31-9.32V164.66a9.32,9.32,0,0,0-9.31-9.33H-30.81a9.33,9.33,0,0,0-9.32,9.32v11.82a9.33,9.33,0,0,0,9.32,9.32h.8v9.32c0,2.88-3.71,6.65-7.29,10.3-5.37,5.47-11.44,11.67-11.44,19.83v59.44a15.57,15.57,0,0,0,15.55,15.55H45.18a15.57,15.57,0,0,0,15.55-15.55V225.24C60.74,217.08,54.66,210.88,49.29,205.41Z"/><path class="cls-3" d="M2.47,263H9.54v-7.51A2.44,2.44,0,0,1,12,253h7.52V246H12a2.43,2.43,0,0,1-2.43-2.43V236H2.47v7.51A2.43,2.43,0,0,1,0,246H-7.48V253H0a2.43,2.43,0,0,1,2.43,2.44Zm9.39,4.63H.15a2.32,2.32,0,0,1-2.31-2.31v-7.64H-9.8a2.31,2.31,0,0,1-2.32-2.31v-11.7a2.32,2.32,0,0,1,2.32-2.32h7.64V233.7a2.31,2.31,0,0,1,2.31-2.31h11.7a2.32,2.32,0,0,1,2.31,2.31v7.64h7.64a2.32,2.32,0,0,1,2.31,2.32v11.7a2.32,2.32,0,0,1-2.31,2.31H14.17v7.64A2.33,2.33,0,0,1,11.85,267.62Z"/><path class="cls-3" d="M443.63,606.25h-39a3.25,3.25,0,0,1-3.25-3.25V590.79H446.9V603A3.29,3.29,0,0,1,443.63,606.25Zm-26-36.2a3.25,3.25,0,0,0,3.25-3.25v-4.88h6.5v13a3.25,3.25,0,1,0,6.5,0v-13h13v22.35H401.36V561.92h13v4.88A3.27,3.27,0,0,0,417.62,570.05Zm-10-30.64a18.42,18.42,0,0,0,9.74-16.27V515.8h13.4v7.35a18.42,18.42,0,0,0,9.7,16.24.09.09,0,0,1,.05,0,11.93,11.93,0,0,1,6.31,10.53v5.48H401.36v-5.48A11.94,11.94,0,0,1,407.67,539.41Zm4.65-37.21h23.59v7.1H412.32Zm31.36,31.52a.09.09,0,0,1,0,0,11.93,11.93,0,0,1-6.32-10.53V515.8h1.84a3.25,3.25,0,0,0,3.25-3.25V502.2a6.51,6.51,0,0,0-6.49-6.49H412.32a6.5,6.5,0,0,0-6.49,6.49v10.35a3.25,3.25,0,0,0,3.25,3.25h1.84v7.35a11.91,11.91,0,0,1-6.32,10.53,18.42,18.42,0,0,0-9.74,16.27v53a9.76,9.76,0,0,0,9.74,9.74h39a9.76,9.76,0,0,0,9.74-9.74V550A18.36,18.36,0,0,0,443.67,533.72Z"/></svg>