<?xml version="1.0" encoding="UTF-8"?>
<svg width="27px" height="26px" viewBox="0 0 27 26" version="1.1" xmlns="http://www.w3.org/2000/svg" xmlns:xlink="http://www.w3.org/1999/xlink">
    <!-- Generator: Sketch 41 (35326) - http://www.bohemiancoding.com/sketch -->
    <title>Fill 490</title>
    <desc>Created with Sketch.</desc>
    <defs></defs>
    <g id="Footer-1.4" stroke="none" stroke-width="1" fill="none" fill-rule="evenodd">
        <g id="Large-Screens" transform="translate(-289.000000, -437.000000)" fill="#FFFFFF">
            <g id="Group-10" transform="translate(186.000000, 36.000000)">
                <g id="Group-5" transform="translate(26.000000, 401.000000)">
                    <path d="M96.9810811,19.212375 L94.2,19.212375 L94.2,14.7281875 C94.2,13.60125 93.7978378,12.8318125 92.7908108,12.8318125 C92.022973,12.8318125 91.5648649,13.352625 91.3637838,13.8523125 C91.29,14.031875 91.2721622,14.278875 91.2721622,14.5315625 L91.2721622,19.212375 L88.4918919,19.212375 C88.4918919,19.212375 88.5275676,11.6163125 88.4918919,10.830625 L91.2721622,10.830625 L91.2721622,12.0176875 C91.6427027,11.444875 92.3027027,10.634 93.7783784,10.634 C95.6075676,10.634 96.9810811,11.8308125 96.9810811,14.405625 L96.9810811,19.212375 Z M85.5624324,9.685 L85.5437838,9.685 C84.6113514,9.685 84.0081081,9.0406875 84.0081081,8.2363125 C84.0081081,7.4140625 84.63,6.787625 85.5802703,6.787625 C86.5321622,6.787625 87.1183784,7.4140625 87.1354054,8.2363125 C87.1354054,9.0406875 86.5321622,9.685 85.5624324,9.685 Z M84.1718919,19.212375 L86.9537838,19.212375 L86.9537838,10.830625 L84.1718919,10.830625 L84.1718919,19.212375 Z M90.4945946,0 C83.3294595,0 77.5216216,5.82075 77.5216216,13 C77.5216216,20.180875 83.3294595,26 90.4945946,26 C97.6589189,26 103.467568,20.180875 103.467568,13 C103.467568,5.82075 97.6589189,0 90.4945946,0 L90.4945946,0 Z" id="Fill-490"></path>
                </g>
            </g>
        </g>
    </g>
</svg>