<?xml version="1.0" encoding="UTF-8"?>
<svg width="26px" height="26px" viewBox="0 0 26 26" version="1.1" xmlns="http://www.w3.org/2000/svg" xmlns:xlink="http://www.w3.org/1999/xlink">
    <!-- Generator: Sketch 41 (35326) - http://www.bohemiancoding.com/sketch -->
    <title>Fill 487</title>
    <desc>Created with Sketch.</desc>
    <defs></defs>
    <g id="Footer-1.4" stroke="none" stroke-width="1" fill="none" fill-rule="evenodd">
        <g id="Large-Screens" transform="translate(-212.000000, -437.000000)" fill="#FFFFFF">
            <g id="Group-10" transform="translate(186.000000, 36.000000)">
                <g id="Group-5" transform="translate(26.000000, 401.000000)">
                    <path d="M15.7524324,13.004875 L13.9345946,13.004875 L13.9345946,19.5 L11.2410811,19.5 L11.2410811,13.004875 L9.96,13.004875 L9.96,10.710375 L11.2410811,10.710375 L11.2410811,9.225125 C11.2410811,8.1615625 11.7445946,6.5 13.9589189,6.5 L15.9543243,6.508125 L15.9543243,8.736 L14.5062162,8.736 C14.2702703,8.736 13.9345946,8.853 13.9345946,9.3608125 L13.9345946,10.710375 L15.9883784,10.710375 L15.7524324,13.004875 Z M12.972973,0 C5.80864865,0 0,5.82075 0,13 C0,20.180875 5.80864865,26 12.972973,26 C20.1381081,26 25.9459459,20.180875 25.9459459,13 C25.9459459,5.82075 20.1381081,0 12.972973,0 L12.972973,0 Z" id="Fill-487"></path>
                </g>
            </g>
        </g>
    </g>
</svg>