<?xml version="1.0" encoding="UTF-8"?>
<svg width="27px" height="26px" viewBox="0 0 27 26" version="1.1" xmlns="http://www.w3.org/2000/svg" xmlns:xlink="http://www.w3.org/1999/xlink">
    <!-- Generator: Sketch 41 (35326) - http://www.bohemiancoding.com/sketch -->
    <title>Group</title>
    <desc>Created with Sketch.</desc>
    <defs></defs>
    <g id="Footer-1.4" stroke="none" stroke-width="1" fill="none" fill-rule="evenodd">
        <g id="Large-Screens" transform="translate(-326.000000, -437.000000)" fill="#FFFFFF">
            <g id="Group-10" transform="translate(186.000000, 36.000000)">
                <g id="Group-5" transform="translate(26.000000, 401.000000)">
                    <g id="Group" transform="translate(114.200270, 0.000000)">
                        <path d="M10.6386486,7.124 C9.60891892,7.093125 8.91648649,8.1315 9.09567568,9.48675 C9.27324324,10.843625 10.2527027,11.791 11.2832432,11.8226875 C12.3137838,11.85275 12.9056757,10.980125 12.7281081,9.62325 C12.5505405,8.268 11.6691892,7.1556875 10.6386486,7.124" id="Fill-503"></path>
                        <path d="M11.0716216,14.5981875 C9.53594595,14.5803125 8.23459459,15.569125 8.23459459,16.716375 C8.23459459,17.886375 9.34378378,18.8605625 10.8794595,18.8605625 C13.0386486,18.8605625 13.7910811,17.9465 13.7910811,16.774875 C13.7910811,16.6343125 13.7732432,16.4961875 13.7416216,16.3629375 C13.5721622,15.70075 12.9008108,15.3375625 12.0664865,14.756625 C11.7640541,14.6583125 11.43,14.6014375 11.0716216,14.5981875" id="Fill-504"></path>
                        <path d="M19.7545946,9.329125 L17.9902703,9.329125 L17.9902703,11.0955 L17.1089189,11.0955 L17.1089189,9.329125 L15.3454054,9.329125 L15.3454054,8.4459375 L17.1089189,8.4459375 L17.1089189,6.6779375 L17.9902703,6.6779375 L17.9902703,8.4459375 L19.7545946,8.4459375 L19.7545946,9.329125 Z M14.2645946,9.5655625 C14.2645946,10.413 13.7967568,11.0955 13.1351351,11.6130625 C12.4889189,12.11925 12.3672973,12.3305 12.3672973,12.7603125 C12.3672973,13.12675 13.1383784,13.67275 13.4935135,13.93925 C14.7275676,14.8679375 14.9781081,15.452125 14.9781081,16.6115625 C14.9781081,18.0610625 13.4205405,19.5 10.8883784,19.5 C8.66594595,19.5 6.79135135,18.5956875 6.79135135,17.147 C6.79135135,15.6771875 8.34648649,14.144 10.5681081,14.144 C10.8105405,14.144 11.0318919,14.1375 11.2621622,14.1375 C10.9581081,13.8425625 10.7124324,13.5874375 10.7124324,13.13975 C10.7124324,12.87325 10.7959459,12.6189375 10.9151351,12.39225 C10.7943243,12.400375 10.6710811,12.4076875 10.5445946,12.4076875 C8.71945946,12.4076875 7.65648649,11.1223125 7.65648649,9.5119375 C7.65648649,7.934875 9.27405405,6.5 11.2143243,6.5 L15.0381081,6.5 L14.1835135,7.3994375 L13.1797297,7.3994375 C13.8883784,7.8056875 14.2645946,8.6425625 14.2645946,9.5655625 Z M13.272973,0 C6.10864865,0 0.3,5.82075 0.3,13 C0.3,20.180875 6.10864865,26 13.272973,26 C20.4381081,26 26.2459459,20.180875 26.2459459,13 C26.2459459,5.82075 20.4381081,0 13.272973,0 L13.272973,0 Z" id="Fill-505"></path>
                    </g>
                </g>
            </g>
        </g>
    </g>
</svg>