<svg width="80" height="80" xmlns="http://www.w3.org/2000/svg" xmlns:xlink="http://www.w3.org/1999/xlink" viewBox="0 0 92 80">
  <defs>
    <g id="a">
      <path class="cls-1" d="M3.7,48.8H.5V37.5H3.6V48.8Zm15.7-8.9-.1,1.4c-.5,6.1-.6,7.6-6.5,7.6a7.43,7.43,0,0,1-4.4-1.1,4,4,0,0,0-2.8-.7H5V37.9c3.8-.9,4-3,4.4-4.5.2-.9.4-2,1.5-2a1.23,1.23,0,0,1,1,.5c.8.9.7,3,.5,5.8h4.9a2.27,2.27,0,0,1,1.6.6A1.67,1.67,0,0,1,19.4,39.9Z"/>
    </g>
  </defs>
  <use xlink:href="#a" fill="#4d4d4d"/>
  <use xlink:href="#a" x="24" fill="#b3b3b3"/>
  <use xlink:href="#a" x="48" fill="#fff"/>
  <use xlink:href="#a" x="72" fill="#00a4a5"/>
</svg>
