<?xml version="1.0" encoding="UTF-8" standalone="no"?>
<svg width="63px" height="63px" viewBox="0 0 63 63" version="1.1" xmlns="http://www.w3.org/2000/svg" xmlns:xlink="http://www.w3.org/1999/xlink">
    <!-- Generator: Sketch 40.2 (33826) - http://www.bohemiancoding.com/sketch -->
    <title>Slice 1</title>
    <desc>Created with Sketch.</desc>
    <defs></defs>
    <g id="Page-1" stroke="none" stroke-width="1" fill="none" fill-rule="evenodd">
        <path d="M61.875,63 L1.125,63 C0.504,63 0,62.496 0,61.875 L0,1.125 C0,0.504 0.504,0 1.125,0 C1.746,0 2.25,0.504 2.25,1.125 L2.25,60.75 L61.875,60.75 C62.496,60.75 63,61.254 63,61.875 C63,62.496 62.496,63 61.875,63 M51,22.5 C48.516,22.5 46.5,20.484 46.5,18 C46.5,15.516 48.516,13.5 51,13.5 C53.484,13.5 55.5,15.516 55.5,18 C55.5,20.484 53.484,22.5 51,22.5 M42.75,45 C40.266,45 38.25,42.984 38.25,40.5 C38.25,38.016 40.266,36 42.75,36 C45.234,36 47.25,38.016 47.25,40.5 C47.25,42.984 45.234,45 42.75,45 M25.5,35.25 C23.016,35.25 21,33.234 21,30.75 C21,28.266 23.016,26.25 25.5,26.25 C27.984,26.25 30,28.266 30,30.75 C30,33.234 27.984,35.25 25.5,35.25 M13.5,54 C11.016,54 9,51.984 9,49.5 C9,47.016 11.016,45 13.5,45 C15.984,45 18,47.016 18,49.5 C18,51.984 15.984,54 13.5,54" fill="#FFFFFF"></path>
    </g>
</svg>