<?xml version="1.0" encoding="UTF-8"?>
<svg width="27px" height="26px" viewBox="0 0 27 26" version="1.1" xmlns="http://www.w3.org/2000/svg" xmlns:xlink="http://www.w3.org/1999/xlink">
    <!-- Generator: Sketch 41 (35326) - http://www.bohemiancoding.com/sketch -->
    <title>Fill 488</title>
    <desc>Created with Sketch.</desc>
    <defs></defs>
    <g id="Footer-1.4" stroke="none" stroke-width="1" fill="none" fill-rule="evenodd">
        <g id="Large-Screens" transform="translate(-250.000000, -437.000000)" fill="#FFFFFF">
            <g id="Group-10" transform="translate(186.000000, 36.000000)">
                <g id="Group-5" transform="translate(26.000000, 401.000000)">
                    <path d="M56.8921622,10.349625 C56.8978378,10.4641875 56.9002703,10.57875 56.9002703,10.694125 C56.9002703,14.21875 54.222973,18.282875 49.3272973,18.282875 C47.8240541,18.282875 46.4254054,17.8416875 45.2472973,17.0844375 C45.4564865,17.1088125 45.6681081,17.121 45.8821622,17.121 C47.13,17.121 48.2764865,16.6960625 49.187027,15.98025 C48.0235135,15.9583125 47.04,15.1864375 46.7018919,14.1285625 C46.8640541,14.158625 47.0302703,14.1756875 47.2021622,14.1756875 C47.4454054,14.1756875 47.6805405,14.142375 47.9027027,14.08225 C46.6864865,13.8360625 45.7686486,12.7586875 45.7686486,11.4668125 L45.7686486,11.4335 C46.1278378,11.633375 46.5381081,11.7528125 46.9743243,11.766625 C46.26,11.2896875 45.7905405,10.4723125 45.7905405,9.546875 C45.7905405,9.05775 45.9218919,8.5995 46.1505405,8.20625 C47.4624324,9.819875 49.4245946,10.8818125 51.6364865,10.9923125 C51.5910811,10.7973125 51.5675676,10.5941875 51.5675676,10.3845625 C51.5675676,8.9123125 52.7594595,7.71875 54.2294595,7.71875 C54.9940541,7.71875 55.6864865,8.042125 56.1721622,8.5596875 C56.7778378,8.4410625 57.3478378,8.2184375 57.8627027,7.912125 C57.6632432,8.536125 57.2416216,9.05775 56.6918919,9.3884375 C57.2302703,9.3250625 57.7435135,9.1804375 58.2202703,8.9691875 C57.8643243,9.5038125 57.4127027,9.9734375 56.8921622,10.349625 Z M51.7337838,0 C44.5694595,0 38.7608108,5.82075 38.7608108,13 C38.7608108,20.180875 44.5694595,26 51.7337838,26 C58.8981081,26 64.7067568,20.180875 64.7067568,13 C64.7067568,5.82075 58.8981081,0 51.7337838,0 L51.7337838,0 Z" id="Fill-488"></path>
                </g>
            </g>
        </g>
    </g>
</svg>