<?xml version="1.0" encoding="UTF-8"?>
<svg width="27px" height="26px" viewBox="0 0 27 26" version="1.1" xmlns="http://www.w3.org/2000/svg" xmlns:xlink="http://www.w3.org/1999/xlink">
    <!-- Generator: Sketch 41 (35326) - http://www.bohemiancoding.com/sketch -->
    <title>Fill 506</title>
    <desc>Created with Sketch.</desc>
    <defs></defs>
    <g id="Footer-1.4" stroke="none" stroke-width="1" fill="none" fill-rule="evenodd">
        <g id="Large-Screens" transform="translate(-365.000000, -437.000000)" fill="#FFFFFF">
            <g id="Group-10" transform="translate(186.000000, 36.000000)">
                <g id="Group-5" transform="translate(26.000000, 401.000000)">
                    <path d="M167.573514,15.8949375 C166.769189,15.8949375 166.011892,15.4594375 165.753243,14.964625 C165.753243,14.964625 165.32027,16.6846875 165.229459,17.0161875 C164.905946,18.1910625 163.956486,19.365125 163.883514,19.4601875 C163.832432,19.5268125 163.718108,19.5065 163.706757,19.417125 C163.685676,19.2684375 163.443243,17.7880625 163.728649,16.579875 C163.872162,15.97375 164.687838,12.510875 164.687838,12.510875 C164.687838,12.510875 164.449459,12.0355625 164.449459,11.3303125 C164.449459,10.222875 165.09,9.397375 165.887027,9.397375 C166.564865,9.397375 166.890811,9.9068125 166.890811,10.5178125 C166.890811,11.2003125 166.457838,12.2224375 166.234054,13.1681875 C166.046757,13.960375 166.62973,14.6063125 167.40973,14.6063125 C168.821351,14.6063125 169.772432,12.78875 169.772432,10.635625 C169.772432,8.99925 168.672973,7.774 166.671892,7.774 C164.412162,7.774 163.002973,9.464 163.002973,11.3514375 C163.002973,12.0014375 163.195135,12.4605 163.495135,12.8139375 C163.632973,12.9780625 163.651622,13.0446875 163.602162,13.2315625 C163.565676,13.3680625 163.484595,13.6995625 163.44973,13.8295625 C163.401081,14.0205 163.247027,14.087125 163.076757,14.01725 C162.035676,13.5923125 161.550811,12.449125 161.550811,11.16375 C161.550811,9.0439375 163.336216,6.5 166.877027,6.5 C169.722162,6.5 171.594324,8.5629375 171.594324,10.778625 C171.594324,13.7060625 169.968649,15.8949375 167.573514,15.8949375 Z M166.234054,0 C159.06973,0 153.261081,5.82075 153.261081,13 C153.261081,20.180875 159.06973,26 166.234054,26 C173.398378,26 179.207027,20.180875 179.207027,13 C179.207027,5.82075 173.398378,0 166.234054,0 L166.234054,0 Z" id="Fill-506"></path>
                </g>
            </g>
        </g>
    </g>
</svg>