<?xml version="1.0" encoding="utf-8"?>
<!-- Generator: Adobe Illustrator 17.1.0, SVG Export Plug-In . SVG Version: 6.00 Build 0)  -->
<!DOCTYPE svg PUBLIC "-//W3C//DTD SVG 1.1//EN" "http://www.w3.org/Graphics/SVG/1.1/DTD/svg11.dtd">
<svg version="1.1" xmlns="http://www.w3.org/2000/svg" xmlns:xlink="http://www.w3.org/1999/xlink" x="0px" y="0px"
	 viewBox="0 0 19.6 17.9" enable-background="new 0 0 19.6 17.9" xml:space="preserve">
<g id="Layer_1">
	<g>
		<g>
			<path fill="#FFFFFF" d="M9.8,4.6c0.5,0,0.9-0.4,0.9-0.9V0.9c0-0.5-0.4-0.9-0.9-0.9C9.3,0,8.9,0.4,8.9,0.9v2.8
				C8.9,4.2,9.3,4.6,9.8,4.6z"/>
			<path fill="#FFFFFF" d="M4.1,2.9c-0.3-0.3-0.9-0.3-1.3,0c-0.3,0.3-0.3,0.9,0,1.3l2,2c0.3,0.3,0.9,0.3,1.3,0
				c0.3-0.3,0.3-0.9,0-1.3L4.1,2.9z"/>
			<path fill="#FFFFFF" d="M18.7,8.9h-2.8c-0.5,0-0.9,0.4-0.9,0.9s0.4,0.9,0.9,0.9h2.8c0.5,0,0.9-0.4,0.9-0.9S19.2,8.9,18.7,8.9z"/>
			<path fill="#FFFFFF" d="M3.7,8.9H0.9C0.4,8.9,0,9.3,0,9.8s0.4,0.9,0.9,0.9h2.8c0.5,0,0.9-0.4,0.9-0.9S4.2,8.9,3.7,8.9z"/>
			<path fill="#FFFFFF" d="M16.8,2.8c-0.3-0.3-0.9-0.3-1.3,0l-2.1,2c-0.3,0.3-0.3,0.9,0,1.3c0.3,0.3,0.9,0.3,1.3,0l2.1-2
				C17.1,3.8,17.1,3.2,16.8,2.8z"/>
			<path fill="#FFFFFF" d="M10.4,11.7c-1.2-0.4-1.6-0.6-1.6-1c0-0.3,0.4-0.6,1.2-0.6c0.9,0,1.5,0.3,1.7,0.4c0.1,0,0.1,0,0.2,0
				c0.2,0,0.3-0.1,0.4-0.2l0.4-0.8c0-0.1,0-0.2,0-0.3c0-0.1-0.1-0.2-0.2-0.2c-0.4-0.2-0.9-0.3-1.5-0.4l-0.2,0V7.7
				c0-0.2-0.2-0.4-0.4-0.4H9.4C9.2,7.3,9,7.5,9,7.7v0.9L8.8,8.6c-1.3,0.3-2.1,1.2-2.1,2.2c0,1.4,1.4,2,2.7,2.4
				c1.2,0.4,1.4,0.8,1.4,1c0,0.5-0.6,0.8-1.4,0.8c-0.7,0-1.4-0.2-2-0.5c-0.1,0-0.1,0-0.2,0c0,0-0.1,0-0.1,0c-0.1,0-0.2,0.1-0.2,0.2
				l-0.4,0.8c-0.1,0.2,0,0.4,0.2,0.5c0.5,0.3,1.1,0.5,1.9,0.5l0.2,0v0.8c0,0.2,0.2,0.4,0.4,0.4h0.9c0.2,0,0.4-0.2,0.4-0.4v-0.9
				l0.2,0c1.6-0.4,2.2-1.5,2.2-2.3C13,12.7,11.7,12.1,10.4,11.7z"/>
		</g>
	</g>
</g>
<g id="Layer_2">
</g>
</svg>
