<?xml version="1.0" encoding="UTF-8" standalone="no"?>
<svg width="29px" height="52px" viewBox="0 0 29 52" version="1.1" xmlns="http://www.w3.org/2000/svg" xmlns:xlink="http://www.w3.org/1999/xlink">
    <!-- Generator: Sketch 40.2 (33826) - http://www.bohemiancoding.com/sketch -->
    <title>Page 1</title>
    <desc>Created with Sketch.</desc>
    <defs></defs>
    <g id="Page-1" stroke="none" stroke-width="1" fill="none" fill-rule="evenodd">
        <path d="M15.7410304,52 L15.7410304,52 C15.1619085,52 14.6951748,51.5912501 14.5498574,50.9598711 L13.3615478,45.8172107 C13.2913946,45.5093955 12.9728417,45.0204705 12.7237262,44.8271913 L7.79438874,41.0632563 C7.15084033,40.5714679 6.85161537,39.6208202 7.09500409,38.8491348 L8.28331372,35.1159813 C8.33628656,34.9534836 8.24179447,34.6599854 8.10148803,34.5597665 C7.8724163,34.391542 2.4863671,30.3899451 0.722514726,25.4964001 C-1.35845883,19.7338142 2.09551345,16.0700982 2.24083083,15.9169064 C2.43339426,15.7179004 2.60949315,15.2318388 2.59016523,14.9548051 L2.38614821,12.1894798 C2.33031198,11.4535868 2.72689242,10.555912 3.3088778,10.1027794 L8.16018767,6.31164219 C8.23893107,6.25007916 8.2639858,6.10476177 8.20528616,6.02315497 L5.76925142,2.40740078 C5.48148005,1.98003882 5.434234,1.51044176 5.63538762,1.11887226 C5.83654124,0.727302763 6.24743867,0.492504233 6.76213422,0.47818725 L24.3118926,0 C24.7728995,0 25.1866603,0.196142674 25.4472294,0.534023485 C25.7099461,0.875483542 25.790837,1.32861607 25.6734378,1.7788852 L25.3742128,2.9084952 C25.2990486,3.19053978 25.3742128,3.71382553 25.525257,3.96508859 L27.4716509,7.20072686 C27.7902038,7.73475035 28.0471936,8.6045071 28.064374,9.22514833 L28.5898073,28.1192715 C28.6069877,28.7263116 28.4337522,29.6017951 28.1817733,30.1580099 L27.8353023,30.9296954 C27.7150396,31.1952754 27.7064494,31.7185611 27.8181219,31.9870046 L28.6320424,33.9720543 C28.8833055,34.5848212 28.928404,35.521152 28.7379881,36.1532468 L25.7715091,46.0155009 C25.5560385,46.7342135 24.8430527,47.4164177 24.11575,47.6011068 L22.5473244,48.0012665 C22.4156082,48.0349114 22.2846078,48.2138737 22.2903346,48.3506009 L22.3712255,49.788026 C22.3934168,50.1960601 22.264564,50.571165 22.0104375,50.8424719 C21.6661141,51.2054074 21.1270796,51.3313969 20.5980671,51.1667516 L18.5428641,50.5174764 C18.514946,50.509602 18.453383,50.495285 18.3553116,50.495285 C18.0954584,50.495285 17.8384685,50.5962198 17.731807,50.6885643 L16.6472955,51.6363486 C16.3702619,51.8740105 16.0567199,52 15.7410304,52 L15.7410304,52 Z" fill="#00A4A5"></path>
    </g>
</svg>