<svg id="Layer_1" data-name="Layer 1" xmlns="http://www.w3.org/2000/svg" viewBox="0 0 303.9 618.18"><defs><style>.cls-1,.cls-2,.cls-6,.cls-7{fill:#fff;}.cls-2{stroke:#ccc;stroke-miterlimit:10;}.cls-3{fill:#bcc0cc;}.cls-4{fill:#353841;}.cls-5{fill:#a1a4b2;}.cls-6,.cls-7{isolation:isolate;}.cls-6{font-size:9.47px;font-family:HelveticaNeue-Medium, Helvetica Neue;}.cls-7{font-size:8.6px;font-family:HelveticaNeue, Helvetica Neue;}</style></defs><title>iphone_6</title><g id="Artboard_1" data-name="Artboard 1"><g id="iPhone_6" data-name="iPhone 6"><g id="Side_Buttons" data-name="Side Buttons"><path id="Left_side" data-name="Left side" class="cls-1" d="M6.11,108.13H5.89a4.52,4.52,0,0,1-4.52-4.52h0V84.26a4.52,4.52,0,0,1,4.52-4.52h.22v28.37Z"/><path id="Left_side-2" data-name="Left side-2" class="cls-1" d="M6.11,179.11l-3.88-1.26V134.31l3.88-1.26Z"/><path id="Left_side-3" data-name="Left side-3" class="cls-1" d="M6.11,235l-3.88-1.26V190.25L6.11,189Z"/><path id="Right_side" data-name="Right side" class="cls-1" d="M299.53,179.11l3.88-1.26V134.31l-3.88-1.26Z"/></g><rect id="Stroke" class="cls-2" x="3.96" y="3.59" width="297.72" height="610.5" rx="43.02" ry="43.02"/><path id="Main_Button" data-name="Main Button" class="cls-3" d="M153,597.86a22.27,22.27,0,1,1,22.28-22.27A22.27,22.27,0,0,1,153,597.86Zm0-42.09a19.82,19.82,0,1,0,19.82,19.82A19.82,19.82,0,0,0,153,555.77Z"/><rect id="Screen" class="cls-4" x="22.89" y="78.45" width="259.86" height="462.5"/><path id="Speaker" class="cls-5" d="M133.24,39.3h39.58a2.37,2.37,0,0,1,2.37,2.37h0A2.37,2.37,0,0,1,172.82,44H133.24a2.37,2.37,0,0,1-2.37-2.37h0A2.37,2.37,0,0,1,133.24,39.3Z"/><circle id="Proximity_Sensor" data-name="Proximity Sensor" class="cls-5" cx="106.14" cy="41.67" r="4.52"/><circle id="Camera" class="cls-5" cx="153.03" cy="22.74" r="3.16"/><g id="Top_Bar" data-name="Top Bar"><path id="Battery" class="cls-1" d="M278,88.78h-.43V86.2H278a.43.43,0,0,1,.43.43v1.72A.43.43,0,0,1,278,88.78Zm-.86-3.44V90.5a.86.86,0,0,1-.86.86H262.53a.86.86,0,0,1-.86-.86v-6a.86.86,0,0,1,.86-.86H276.3a.86.86,0,0,1,.86.86Zm-.43-.86a.43.43,0,0,0-.43-.43H262.53a.43.43,0,0,0-.43.43v6a.43.43,0,0,0,.43.43H276.3a.43.43,0,0,0,.43-.43Zm-.86,6H263a.43.43,0,0,1-.43-.43V84.91a.43.43,0,0,1,.43-.43h12.91a.43.43,0,0,1,.43.43v5.16A.43.43,0,0,1,275.87,90.5Z"/><path id="WiFi" class="cls-1" d="M59.3,89.15l.1-.13a1.56,1.56,0,0,1,2.21,0l0,0,.1.13-1.23,1.27Zm-.75-1-.11.13-.92-1,.11-.13a4,4,0,0,1,5.68-.12l.12.12.11.13-.92,1-.11-.13a2.74,2.74,0,0,0-3.88-.09ZM56.77,86.3l-.11.13-1-1,.11-.13a6.56,6.56,0,0,1,9.27-.21l.21.21.11.13-1,1-.11-.13a5.2,5.2,0,0,0-7.35-.16Z"/><g id="Signal_Strength" data-name="Signal Strength"><circle id="Signal_Dot" data-name="Signal Dot" class="cls-1" cx="29.04" cy="87.27" r="2.1"/><path id="Signal_Dot-2" data-name="Signal Dot-2" class="cls-1" d="M34.46,85.17a2.11,2.11,0,1,1-2.11,2.11h0A2.11,2.11,0,0,1,34.46,85.17Z"/><circle id="Signal_Dot-3" data-name="Signal Dot-3" class="cls-1" cx="39.88" cy="87.27" r="2.11"/><circle id="Signal_Dot-4" data-name="Signal Dot-4" class="cls-1" cx="45.3" cy="87.27" r="2.11"/><circle id="Signal_Dot-5" data-name="Signal Dot-5" class="cls-1" cx="50.72" cy="87.27" r="2.1"/></g><text class="cls-6" transform="translate(141.2 90.62)">21:00</text><text class="cls-7" transform="translate(236.71 90.62)">100%</text></g></g></g></svg>