<svg id="Layer_1" data-name="Layer 1" xmlns="http://www.w3.org/2000/svg" viewBox="0 0 229.44 54.5"><defs><style>.cls-1{fill:#fff;}</style></defs><title>metlife</title><path class="cls-1" d="M83,30.3a6,6,0,0,0-6.08-4.63c-3.13,0-5.73,1.6-6.38,4.63ZM79.61,50.07H74.55c-8.69-.89-14.9-6.27-14.9-15.48,0-9.78,6.91-15.67,16.77-15.67C86.92,18.91,93,25.2,93,35.21V36.3H70.4c0,4.23,2.3,6.52,6.73,6.52a5.42,5.42,0,0,0,5.14-2.69H92.59c-1.51,6.11-7,9.27-13,9.93Z"/><polygon class="cls-1" points="111.92 49.68 101.17 49.68 101.17 28.92 95.8 28.92 95.8 20.34 101.17 20.34 101.17 11.54 111.92 11.54 111.92 20.34 117.22 20.34 117.22 28.92 111.92 28.92 111.92 49.68 111.92 49.68"/><polygon class="cls-1" points="161.16 49.68 150.41 49.68 150.41 18.34 161.16 18.34 161.16 49.68 161.16 49.68"/><path class="cls-1" d="M182.71,49.56H172V29.81h-5.35V21.23H172V19.7c0-4.06.12-7,3.07-10.29A13.94,13.94,0,0,1,185.6,4.71a9.84,9.84,0,0,1,4.6,1v9a9.45,9.45,0,0,0-3.78-1c-2.78,0-3.72,1.6-3.72,4.92v2.56h6.42v8.58h-6.42V49.56Z"/><path class="cls-1" d="M214.87,30.31a6,6,0,0,0-6.08-4.63c-3.13,0-5.73,1.6-6.37,4.63Zm-3.26,19.75h-5.4c-8.59-.94-14.72-6.31-14.72-15.46,0-9.78,6.91-15.67,16.77-15.67,10.51,0,16.59,6.29,16.59,16.3v1.09H202.24c0,4.23,2.3,6.52,6.73,6.52a5.42,5.42,0,0,0,5.14-2.69h10.33c-1.5,6-6.88,9.21-12.82,9.91Z"/><path class="cls-1" d="M155.76,1.51a6.53,6.53,0,0,0-6.64,6.43,6.64,6.64,0,0,0,13.27,0,6.53,6.53,0,0,0-6.63-6.43Z"/><polygon class="cls-1" points="11.08 8.59 21.95 8.59 30.56 30.57 39.69 8.59 50.66 8.59 57.08 49.72 46.05 49.72 42.95 26.04 42.84 26.04 32.65 49.72 28.25 49.72 18.52 26.04 18.4 26.04 14.86 49.72 3.88 49.72 11.08 8.59 11.08 8.59"/><polygon class="cls-1" points="132.97 40.45 146.41 40.45 146.41 49.65 121.76 49.65 121.76 7.86 132.97 7.86 132.97 40.45 132.97 40.45"/><path class="cls-1" d="M222.46,14.58H223c.46,0,1,0,1-.53s-.46-.53-.82-.53h-.73v1.07Zm-.64-1.6h1.46c.92,0,1.28.44,1.28,1.07a.9.9,0,0,1-1,1l1.1,1.6H224l-1-1.51h-.55v1.51h-.64V13Zm1.28,4.79A2.81,2.81,0,0,0,226,14.85a2.93,2.93,0,1,0-5.86,0,2.83,2.83,0,0,0,3,2.93Zm0-6.39a3.42,3.42,0,1,1-3.57,3.46,3.47,3.47,0,0,1,3.57-3.46Z"/></svg>