<?xml version="1.0" encoding="UTF-8" standalone="no"?>
<svg width="61px" height="45px" viewBox="0 0 61 45" version="1.1" xmlns="http://www.w3.org/2000/svg" xmlns:xlink="http://www.w3.org/1999/xlink">
    <!-- Generator: Sketch 40.2 (33826) - http://www.bohemiancoding.com/sketch -->
    <title>Page 1</title>
    <desc>Created with Sketch.</desc>
    <defs></defs>
    <g id="Page-1" stroke="none" stroke-width="1" fill="none" fill-rule="evenodd">
        <path d="M112.554321,48.1204906 C111.709151,48.1204906 110.871438,47.6059311 110.515141,46.8651642 L108.822314,43.3436214 C108.689739,43.0718412 108.255553,42.7288015 107.961401,42.6666566 L107.129488,42.4918224 C106.232945,42.3045591 105.423404,41.4825896 105.24857,40.5827319 L105.074564,39.6828741 C104.999991,39.2975759 104.660265,38.6761272 104.378542,38.4043469 L103.183703,37.2583955 C102.549825,36.6468899 102.242415,35.5465114 102.471937,34.6947123 L102.546511,34.4196177 C102.465308,34.4295608 102.38162,34.4361896 102.297103,34.4361896 C101.410503,34.4361896 100.565332,33.8694284 100.244665,33.0607164 L97.4324022,25.9397426 C97.1697365,25.2760353 97.0338464,24.2402875 97.115049,23.5318359 L97.9245896,16.536809 C97.9726483,16.1125667 97.8723879,15.3684854 97.7108112,14.973244 L97.5517203,14.58546 C97.4514599,14.3360519 97.0603615,14.0220132 96.7910671,13.9731259 L95.875466,13.8148636 C95.1048695,13.6822879 94.1635819,13.118841 93.6838234,12.5040211 L89.090903,6.62263028 C88.993957,6.49999773 88.73212,6.36410761 88.4760831,6.36410761 C88.4180812,6.36410761 88.3791371,6.3707364 88.3567649,6.37653659 L80.025209,8.61375201 C79.814745,8.67175389 79.5819089,8.69744044 79.3325008,8.69744044 C78.6530502,8.69744044 77.9346554,8.48034769 77.4557256,8.1315078 L72.2827864,4.34729934 C71.9687476,4.1177776 71.3091834,3.90068485 70.9205708,3.90068485 L62.8806814,3.90068485 C62.3396067,3.90068485 61.8515623,3.67116312 61.5433237,3.26929294 C61.2359138,2.86825136 61.1356534,2.34043424 61.2715435,1.81593151 L61.6178976,0.486031229 C61.6502129,0.360084286 61.5598957,0.171992471 61.4372632,0.120619376 L61.4306344,0.117304983 C60.534091,-0.242306682 59.948272,-1.27142578 60.0965911,-2.22597103 L60.1032199,-2.27485833 C60.2523676,-3.23934676 61.1389678,-4 62.1200282,-4 L62.1747157,-4 L79.5330216,-3.50118382 C80.4395081,-3.47549727 81.3882532,-2.828362 81.7437218,-1.9931349 L81.9119273,-1.59540772 C82.0097019,-1.36837178 82.368485,-1.10984911 82.6145787,-1.09327714 L100.378069,0.14299153 C101.135408,0.194364625 101.857117,0.621921351 102.219215,1.19199699 L102.15127,-0.0218995327 C102.125583,-0.514086926 102.28716,-0.970644593 102.604513,-1.30705551 C102.979868,-1.70561129 103.536686,-1.88624572 104.110076,-1.7992429 L106.475724,-1.43631684 C107.388839,-1.29711233 108.233181,-0.510772533 108.440331,0.39239962 L110.185359,8.02793301 C110.291419,8.49360526 110.602144,9.26420168 110.848237,9.67187205 L115.059174,16.6569558 C115.528989,17.4366668 115.490045,18.5859326 114.965542,19.3333283 L114.897597,19.4302743 C114.742649,19.6539958 114.687133,20.1519834 114.794022,20.4013915 L119.623093,31.9114506 C119.891559,32.5519571 120.08628,33.558704 120.073022,34.2514122 L119.962819,40.2653787 C119.95039,41.0807194 119.551834,42.0261501 119.018217,42.5083943 C118.86244,42.6509132 118.607232,43.1489008 118.577402,43.550771 L118.438198,45.3952308 C118.367767,46.3472903 117.574798,47.2272617 116.635997,47.3987815 L112.916419,48.0757463 C112.800415,48.1080617 112.676954,48.1204906 112.554321,48.1204906 L112.554321,48.1204906 Z" fill="#00A4A5"></path>
        <path d="M38.5487464,44.1065292 L38.0822516,44.1065292 L37.7970282,43.7371134 C37.7832825,43.717354 36.3202241,41.7233677 36.602011,40.830756 C37.0384372,39.4682131 37.1389526,39.1460481 37.7197086,39.0154639 C37.9782997,38.9587629 38.5186777,38.7809278 38.9147258,38.6030928 C38.504932,38.0386598 37.8039011,37.2268041 37.4585403,37.0317869 L35.3502928,35.8376289 C35.0650695,35.6726804 34.6329389,35.4243986 34.2970282,34.9948454 C33.9714269,34.8943299 33.6930763,34.6666667 33.504932,34.3410653 C32.448231,34.1159794 31.5487464,33.0283505 31.5822516,31.9510309 C31.585688,31.8573883 31.5891245,31.7766323 31.5917018,31.7027491 C31.3167877,31.4682131 31.1793306,31.1795533 31.1088839,30.9347079 C30.6355162,30.911512 30.2360317,30.652921 30.004932,30.2130584 C29.9911863,30.1864261 29.9576812,30.1254296 29.9310488,30.0824742 C29.7935918,30.0489691 29.6690214,29.9810997 29.5547602,29.8805842 L19.9671313,29.8402062 C18.7188495,29.8402062 17.4705677,29.8376289 16.222286,29.8341924 C14.7420454,29.8273196 13.2618049,29.8135739 11.7858598,29.7938144 C10.3631794,29.7731959 8.94307634,29.75 7.52383235,29.7130584 C6.20510383,29.6761168 4.88293888,29.628866 3.56335125,29.5824742 L2.77812789,29.5549828 C2.51008665,29.5455326 2.23774988,29.5317869 1.96970864,29.5180412 C1.70768115,29.5051546 1.44909009,29.4914089 1.19135813,29.4810997 C0.61403854,29.4682131 0.177612423,29.0919244 0.0874062376,28.5283505 L0.0736605332,28.3737113 L0.103729262,27.5987973 C0.103729262,27.4347079 0.0968564095,27.25 0.0874062376,27.0687285 L0.0736605332,25.8436426 L0.34170177,25.5652921 C0.429330636,25.4682131 0.522973248,25.3668385 0.654416547,25.2731959 L2.40269833,24.0283505 C2.85544747,23.7061856 3.39926191,23.3599656 4.07366053,23.1821306 C4.27555057,22.4982818 4.72142686,21.9613402 5.39582548,21.5850515 C5.46283579,21.54811 5.49977737,21.5214777 5.5169595,21.5042955 C5.51008665,21.4948454 5.49634095,21.4742268 5.4765815,21.4407216 C5.42933064,21.3702749 5.32537875,21.2061856 5.27898699,20.9810997 C5.05390108,20.8668385 4.78843717,20.685567 4.66472583,20.3530928 L4.40269833,19.104811 C4.42245778,18.9939863 4.44307634,18.8840206 4.44651277,18.7731959 C4.45596294,18.4407216 4.45939936,18.0953608 4.44307634,17.7491409 C4.40957119,16.9037801 5.0032138,16.6013746 5.25836844,16.5146048 C6.20510383,16.1924399 7.22486328,15.967354 8.38981174,15.8298969 C9.4903272,15.6984536 10.5805334,15.6649485 11.657853,15.7293814 C12.4061348,15.7757732 13.1484028,15.8737113 13.8631794,15.967354 L14.335688,16.0274914 C14.8932482,16.0945017 15.3966846,16.3634021 15.8331107,16.8195876 C16.3795025,16.5816151 16.9336262,16.5378007 17.456822,16.5343643 L17.7325952,16.5343643 L18.7454818,16.5378007 C18.9671313,16.5378007 19.1887808,16.5378007 19.4104303,16.5274914 C19.8769251,16.5180412 20.1990901,16.4235395 20.4233169,16.2328179 C20.5513238,16.1254296 20.6750351,15.9742268 20.7695368,15.8530928 C21.0710832,15.4639175 21.5040729,15.0008591 22.1724578,14.7792096 C22.4774406,14.4905498 22.8202241,14.3427835 23.1956537,14.3264605 C23.2059629,14.0206186 23.1587121,13.7388316 23.0650695,13.4742268 C23.0513238,13.4407216 22.9843135,13.3393471 22.940499,13.2757732 C22.8906708,13.1950172 22.8365471,13.1185567 22.7858598,13.0378007 C22.7557911,12.9905498 22.7325952,12.943299 22.6990901,12.8762887 L22.7489183,11.5575601 C22.3167877,11.2792096 21.8133513,10.7250859 22.2291588,9.73195876 C22.2961691,9.57731959 22.3537293,9.43041237 22.4069939,9.27920962 C22.5985746,8.75257732 23.0315643,8.42010309 23.5745196,8.37285223 C23.84342,7.71821306 24.440499,7.30584192 25.1389526,7.30584192 L25.3236605,7.31271478 C25.3571657,7.32560137 25.3906708,7.29553265 25.4473719,7.19845361 C25.5040729,7.10738832 25.5513238,7.02749141 25.5951382,6.9467354 C25.924176,6.3290378 26.303042,5.79896907 26.7566502,5.32560137 C27.0650695,5.00687285 27.3640385,4.68127148 27.6621485,4.35910653 C28.0581966,3.93298969 28.4542447,3.50343643 28.8606021,3.09106529 C29.1526983,2.79209622 29.5118049,2.50687285 29.9576812,2.22508591 C30.3709114,1.96305842 30.8004647,1.72164948 31.2265815,1.48367698 L31.6655849,1.23539519 C32.1690214,0.946735395 32.7532138,0.79209622 33.448231,0.758591065 C34.2429045,0.718213058 35.0384372,0.681271478 35.8374062,0.647766323 L37.8640385,0.554123711 C37.907853,0.554123711 37.9413581,0.554123711 37.9748633,0.543814433 C38.867475,0.130584192 39.8107739,0.0807560137 40.6191932,0.0670103093 C41.1526983,0.0567010309 41.6801897,0.0472508591 42.2102585,0.0369415808 L42.4585403,1.0658141e-14 L43.5624921,1.0658141e-14 L43.7875781,0.637457045 C44.0659286,1.43298969 43.8984028,2.15120275 43.7635231,2.72852234 C43.7403272,2.84621993 43.7033856,2.99312715 43.6965128,3.11082474 C44.0092275,3.57388316 44.0831107,4.10395189 43.9018392,4.62800687 C43.8408427,4.8024055 43.7635231,4.98024055 43.6733169,5.15120275 C43.6226296,5.24484536 43.609743,5.29209622 43.6896399,5.42611684 C43.7334543,5.5 43.7841416,5.57388316 43.8313925,5.65120275 L43.9782997,5.88316151 C44.3949664,6.53350515 44.4516674,7.2757732 44.1432482,7.98367698 C44.2300179,8.56786942 44.085688,9.1314433 43.7265815,9.60137457 C43.585688,9.79209622 43.4920454,10.0438144 43.4181623,10.4398625 C43.5427327,10.6546392 43.5891245,10.8762887 43.6063066,11.0609966 C43.8846571,11.4304124 43.988609,11.9338488 43.931908,12.3900344 C44.1166159,12.70189 44.1801897,13.0206186 44.1191932,13.3565292 C44.3614612,13.5446735 44.5487464,13.8127148 44.6595712,14.1486254 C44.8142104,14.6116838 44.907853,15.0747423 44.931908,15.5180412 C44.9585403,16.0713058 44.9654131,16.6219931 44.972286,17.1718213 C44.9757224,17.4776632 44.9782997,17.7792096 44.9817361,18.0816151 L45.0152413,19.3298969 C45.0324234,19.9175258 45.0461691,20.507732 45.0556193,21.0987973 C45.0831107,22.6056701 44.8442791,24.1589347 44.2978873,25.9879725 C44.069365,26.7594502 43.8743478,27.5386598 43.6801897,28.3204467 C43.9413581,28.9510309 43.9284715,29.5549828 43.9112894,30.0489691 L43.907853,30.2164948 C43.8880935,31.4544674 43.8580248,32.693299 43.8245196,33.9312715 C43.8176468,34.2130584 43.7944509,34.4982818 43.7669595,34.7835052 L43.7575093,34.9149485 C43.7910145,34.9888316 43.8614612,35.1331615 44.0358598,35.4080756 C44.1398117,35.5721649 44.3683341,35.9347079 44.2609458,36.3977663 C44.1535574,36.8573883 43.7875781,37.0859107 43.666444,37.1632302 L43.6595712,37.1666667 C43.8545884,37.2774914 44.0186777,37.3608247 44.0925609,37.3943299 L44.4018392,37.4957045 C44.4387808,37.5051546 44.472286,37.5189003 44.5092275,37.532646 C44.7403272,37.3204467 45.0728014,37.0386598 45.5392963,37.0386598 L45.7136949,37.0524055 C46.2033856,37.1365979 46.6733169,37.0661512 47.1363753,36.9982818 C47.5161004,36.9450172 48.5427327,36.6829897 48.8511519,36.5386598 L49.0324234,36.3573883 C49.2274406,36.1666667 49.4215987,35.9682131 49.6303616,35.790378 C50.109743,35.3780069 50.7008083,35.1666667 51.3820798,35.1666667 C51.730877,35.1761168 51.9585403,35.3006873 52.109743,35.411512 C53.6037293,35.0962199 58.1569939,34.4209622 58.9929045,34.4209622 C59.1234887,34.4209622 59.2274406,34.4312715 59.29531,34.4450172 L60.0736605,34.5893471 L60.0736605,35.387457 C60.0736605,35.7130584 60.0736605,35.7130584 58.9190214,37.3479381 C58.5401554,37.8883162 58.1535574,38.4286942 58.0195368,38.6297251 L57.9697086,38.7104811 C57.4327671,39.5695876 56.0968564,39.7104811 54.5564784,39.8745704 C54.0831107,39.9252577 53.3717705,40.0025773 53.1870626,40.0790378 C52.5659286,40.3883162 51.8752069,40.4853952 51.2678186,40.5730241 C50.7772688,40.6434708 50.311633,40.7104811 49.9619767,40.8676976 C49.5195368,41.0695876 49.0255506,41.1365979 48.5959973,41.193299 C48.2678186,41.2371134 47.9250351,41.2809278 47.7368908,41.3780069 C47.0496056,41.7233677 46.2669595,41.8513746 45.407853,41.7878007 C44.8984028,41.7508591 44.3880935,41.8213058 43.9654131,42.0189003 C43.3812207,42.2946735 42.8442791,42.411512 42.2910145,42.3780069 C42.2171313,42.3745704 42.0891245,42.371134 41.9447946,42.3410653 C41.7875781,42.5489691 41.431908,42.992268 40.8004647,42.992268 L40.7738324,42.992268 C40.5384372,43.1168385 40.1363753,43.3685567 39.8975437,43.5154639 C39.1492619,43.9484536 38.9009801,44.1065292 38.5487464,44.1065292 L38.5487464,44.1065292 Z" fill="#00A4A5"></path>
    </g>
</svg>