<?xml version="1.0" encoding="UTF-8" standalone="no"?>
<svg width="60px" height="35px" viewBox="0 0 60 35" version="1.1" xmlns="http://www.w3.org/2000/svg" xmlns:xlink="http://www.w3.org/1999/xlink">
    <!-- Generator: Sketch 40.2 (33826) - http://www.bohemiancoding.com/sketch -->
    <title>Page 1</title>
    <desc>Created with Sketch.</desc>
    <defs></defs>
    <g id="Page-1" stroke="none" stroke-width="1" fill="none" fill-rule="evenodd">
        <path d="M48.1391088,34.6144112 L48.128943,34.6144112 L1.5130056,34.3958473 C1.0987509,34.3924587 0.71160489,34.2306537 0.424422184,33.9324581 C0.136392331,33.6342625 -0.0127054757,33.2437279 0.000848870358,32.8269318 L0.886964242,5.05322963 C0.910684347,4.34162646 1.4003351,3.55462725 2.02891789,3.22000433 L7.75732338,0.169429325 C7.96911004,0.056758824 8.18428528,0 8.39946053,0 C9.05430487,0 9.52785983,0.520148029 9.53124842,1.23090405 L9.53378986,2.73713075 C9.53378986,2.81676253 9.60325588,2.88283997 9.67949908,2.88622856 L51.8978984,3.1505383 C52.6230559,3.15392689 53.4134437,3.64696623 53.7379008,4.29588054 L53.7480666,4.31197633 C53.8768329,4.56696746 54.20129,4.79823849 54.3537764,4.82534719 C55.0255637,4.94394771 55.6643123,5.57930768 55.8396716,6.29768802 L56.3259338,8.2994955 C56.402177,8.60700973 56.6995254,9.09411904 56.9375736,9.30251711 L58.9402283,11.0298491 C59.5688111,11.5720229 59.6679272,12.5453944 59.1587921,13.2036273 L56.2327477,16.9963028 C56.0345153,17.2546825 55.8193401,17.8070221 55.78969,18.1314792 L55.4821757,21.6920365 C55.4584556,21.9529577 55.6177192,22.4197355 55.7964671,22.6120378 L59.608627,26.7418776 C59.8932682,27.0527804 60.0355889,27.4627993 59.9923844,27.8702769 C59.9491799,28.2769073 59.7272275,28.6513461 59.3866745,28.8961714 L56.633448,30.858163 C56.1997089,31.1656772 55.4686214,31.5401161 54.9654163,31.7053096 L51.5344725,32.8506519 C51.1930724,32.9624752 50.6475099,33.290321 50.3891302,33.5385349 L50.0646731,33.8494378 C49.6046724,34.2831768 48.7778573,34.6144112 48.1391088,34.6144112 L48.1391088,34.6144112 Z" fill="#00A4A5"></path>
    </g>
</svg>