<?xml version="1.0" encoding="UTF-8" standalone="no"?>
<svg width="41px" height="41px" viewBox="0 0 41 41" version="1.1" xmlns="http://www.w3.org/2000/svg" xmlns:xlink="http://www.w3.org/1999/xlink">
    <!-- Generator: Sketch 40.2 (33826) - http://www.bohemiancoding.com/sketch -->
    <title>Group</title>
    <desc>Created with Sketch.</desc>
    <defs></defs>
    <g id="Page-1" stroke="none" stroke-width="1" fill="none" fill-rule="evenodd">
        <g id="Group" transform="translate(1.000000, 1.000000)">
            <path d="M9.36,28.1705806 L10.6683871,28.1705806 L10.6683871,23.0175484 C11.4332903,23.5811613 12.500129,24.1447742 13.707871,24.1447742 C16.0428387,24.1447742 18.0557419,22.5143226 18.0557419,18.5086452 C18.0557419,14.7445161 16.4856774,13.416 14.331871,13.416 C12.7416774,13.416 11.5741935,14.0802581 10.628129,14.8652903 L10.5476129,13.6172903 L9.36,13.6172903 L9.36,28.1705806 Z M10.7086452,16.0529032 C11.3729032,15.3685161 12.6812903,14.5230968 13.9896774,14.5230968 C15.8214194,14.5230968 16.6869677,15.6301935 16.6869677,18.4482581 C16.6869677,21.1254194 15.9019355,22.9974194 13.707871,22.9974194 C12.3390968,22.9974194 11.211871,22.152 10.7086452,21.7695484 L10.7086452,16.0529032 Z M24.6178065,13.2750968 C21.819871,13.2750968 20.1290323,14.8652903 20.1290323,17.1197419 C20.1290323,18.4482581 20.7329032,19.4748387 21.6588387,19.9981935 C20.8939355,20.5819355 20.1894194,21.1858065 20.1894194,22.131871 C20.1894194,22.9370323 20.6523871,23.4402581 21.4172903,23.7019355 L21.4172903,23.7623226 C20.4510968,24.0843871 19.6861935,24.7687742 19.6861935,25.8557419 C19.6861935,27.164129 20.6523871,28.4523871 24.5171613,28.4523871 C27.2949677,28.4523871 29.9117419,27.6069677 29.9117419,24.8895484 C29.9117419,22.9772903 28.6234839,22.3130323 26.4495484,22.172129 L23.4905806,21.9909677 C22.6049032,21.9305806 22.4237419,21.6689032 22.4237419,21.3065806 C22.4237419,21.0046452 22.6652903,20.7228387 22.9269677,20.5215484 C23.4704516,20.6825806 24.0139355,20.7228387 24.6983226,20.7228387 C27.2144516,20.7228387 29.0864516,19.3540645 29.0864516,16.9989677 C29.0864516,16.1535484 28.8247742,15.3282581 28.2812903,14.7042581 C28.8247742,14.5432258 29.4487742,14.4627097 30.0929032,14.5029677 L30.0929032,12.792 C29.7909677,12.6913548 29.6098065,12.6712258 29.2676129,12.6712258 C28.5027097,12.6712258 27.8988387,13.2549677 27.5365161,14.1003871 C26.832,13.4965161 25.8255484,13.2750968 24.6178065,13.2750968 L24.6178065,13.2750968 Z M26.9125161,17.0190968 C26.9125161,18.2067097 25.9865806,18.9313548 24.6580645,18.9313548 C23.0477419,18.9313548 22.3834839,18.1865806 22.3834839,16.9788387 C22.3834839,15.6301935 23.3698065,15.0665806 24.6781935,15.0665806 C26.0670968,15.0665806 26.9125161,15.7107097 26.9125161,17.0190968 L26.9125161,17.0190968 Z M27.5365161,25.3525161 C27.5365161,26.2985806 26.5501935,26.7011613 24.7385806,26.7011613 C22.7860645,26.7011613 21.9205161,26.3187097 21.9205161,25.4732903 C21.9205161,24.9096774 22.2224516,24.5070968 22.7659355,24.1246452 L25.9664516,24.2856774 C27.2345806,24.3460645 27.5365161,24.7083871 27.5365161,25.3525161 L27.5365161,25.3525161 Z" id="pg" fill="#00A4A5"></path>
            <circle id="Oval" stroke="#00A4A5" stroke-width="2" cx="19.5" cy="19.5" r="19.5"></circle>
        </g>
    </g>
</svg>