<svg xmlns="http://www.w3.org/2000/svg" viewBox="0 0 195.96 35.06"><defs><style>.cls-1{fill:#FFFFFF;}</style></defs><path class="cls-1" d="M0,9H1.52L1.67,11.3A10.32,10.32,0,0,1,8.34,8.64c3.76,0,6.56,2.3,6.56,8.9,0,7-3.48,9.9-7.59,9.9a10.14,10.14,0,0,1-5.64-2v9.08H0V9ZM1.74,23.72a9.1,9.1,0,0,0,5.57,2.16c4.15,0,5.78-3.47,5.78-8.51,0-5.29-1.6-7.27-5.07-7.27A9.36,9.36,0,0,0,1.74,13V23.72Z"/><path class="cls-1" d="M18.1,18.08c0-5.85,3-9.44,8.41-9.44s7.63,3.58,7.63,9c0,5.92-2.31,9.82-8.09,9.82C20.05,27.45,18.1,23.37,18.1,18.08Zm14.19-.25c0-5.68-2.2-7.59-5.93-7.59s-6.53,2.38-6.53,7.7,2.13,7.91,6.35,7.91C29.91,25.85,32.29,23.62,32.29,17.83Z"/><path class="cls-1" d="M40.25,27.39H38.51V0.6h1.74V27.39Z"/><path class="cls-1" d="M47.06,4.86a1.43,1.43,0,0,1-1.63-1.49,1.64,1.64,0,0,1,3.26,0A1.43,1.43,0,0,1,47.06,4.86Zm0.78,22.53H46.1v-18h1.74v18Z"/><path class="cls-1" d="M52.57,18.45C52.57,12.1,55.69,9,60.94,9c3.41,0,6.21,1.95,6.39,5.85l-1.88.21c-0.32-3.09-1.81-4.54-4.72-4.54s-6.35,1.7-6.35,7.66c0,6.42,3.12,8,6.14,8,2.77,0,4.69-1.27,5.18-4.12l1.77,0.36c-0.67,3.87-3.76,5.39-6.92,5.39C54.62,27.82,52.57,23.91,52.57,18.45Z"/><path class="cls-1" d="M70,9.37H71.8L77.44,25h0L83.26,9.37H85.1c-2.52,6.57-5.68,14.87-8.23,21.4-1.38,3.48-3,4.54-5.36,4.54a8.7,8.7,0,0,1-3.09-.64l0.35-1.45a7.75,7.75,0,0,0,2.84.57c1.49,0,2.73-.71,3.83-3.66l1-2.73Z"/><path class="cls-1" d="M102.27,11.53a5.68,5.68,0,0,1,1.35,3.65c0,4.12-3.26,6.39-7.42,6.39a11.28,11.28,0,0,1-3-.32L91.59,24,96,24.16c6.31,0.32,9.33.64,9.33,4.93,0,3.76-3.27,6-9.44,6s-8.48-1.67-8.48-4.37c0-1.7,1-2.73,2.16-3.87a2.36,2.36,0,0,1-1.63-2.2,2.9,2.9,0,0,1,.89-2c0.57-.64,1.31-1.52,2-2.2A5.69,5.69,0,0,1,88,15.19c0-3.94,2.77-6.81,7.84-6.81a14,14,0,0,1,3.34.35h6.46v2.59Zm-9.94,16A4,4,0,0,0,91,30.05c0,1.63,1.88,2.17,5,2.17,1.81,0,5.25-.29,5.25-2.56,0-1.56-1.35-1.63-3.41-1.77ZM96,11.25c-2.38,0-4.12,1.21-4.12,3.87,0,2,1.1,3.55,4,3.55,2.45,0,4.08-1.42,4.08-3.62C100,12.6,98.51,11.25,96,11.25Z"/><path class="cls-1" d="M122.73,25.83a14.89,14.89,0,0,1-6.81,1.67c-6.6,0-8.76-4.22-8.76-9.69,0-6.42,3.73-9.44,8.38-9.44,4.47,0,7.52,2.38,7.52,8.55,0,0.46,0,1.38-.11,2.06H111.48c0.18,3.3,1.46,5.25,4.9,5.25A12.43,12.43,0,0,0,121.59,23ZM119,16c0-3.48-1.6-4.58-3.51-4.58s-3.76,1.35-3.94,4.58H119Z"/><path class="cls-1" d="M137,27.08V24.84l1.77-.21a0.57,0.57,0,0,0,.57-0.71V15.68c0-2.13-.25-3.9-2.52-3.9A9,9,0,0,0,132,13.63V23.85c0,0.57,0,.64.57,0.71l1.88,0.25v2.27h-8.8V24.77l1.7-.21c0.5-.07.57-0.17,0.57-0.71V12.42a0.65,0.65,0,0,0-.46-0.75L125.46,11l0.35-2.27h5.25l0.28,2,0.14,0a11.55,11.55,0,0,1,6.64-2.34c3.83,0,5.29,2.41,5.29,6.49v9c0,0.57,0,.64.57,0.71l2,0.25v2.27H137Z"/><path class="cls-1" d="M148.2,27.08V24.84l2.13-.28c0.5-.07.57-0.17,0.57-0.71V12.42a0.65,0.65,0,0,0-.46-0.75l-2-.67,0.35-2.27H155V23.85c0,0.57,0,.64.57,0.71l2.09,0.25v2.27H148.2ZM152.5,5.25a2.41,2.41,0,0,1-2.66-2.66,2.66,2.66,0,0,1,5.32,0A2.43,2.43,0,0,1,152.5,5.25Z"/><path class="cls-1" d="M173.51,27.08l-0.32-2.17-0.11,0a10.13,10.13,0,0,1-6.64,2.63c-3.83,0-5.11-2-5.11-6V12.24c0-.57,0-0.67-0.57-0.78L159,11l0.32-2.31h6.14V20.58c0,2.38.39,3.65,2.38,3.65a7.28,7.28,0,0,0,4.93-2.49V12.24c0-.57,0-0.67-0.57-0.78l-1.7-.43,0.32-2.31h6V23.85c0,0.46.07,0.64,0.46,0.71l1.85,0.25v2.27h-5.61Z"/><path class="cls-1" d="M192.48,14L192.09,12a0.52,0.52,0,0,0-.39-0.49,9.4,9.4,0,0,0-2.56-.35c-2.27,0-3.37.81-3.37,2.23,0,1.88,2,2.31,4.22,2.84,2.8,0.67,6,1.53,6,5.57s-3.48,5.75-7.52,5.75a16.86,16.86,0,0,1-6.67-1.24V21.43l2.95,0.17,0.36,2.17a0.52,0.52,0,0,0,.43.49,10.33,10.33,0,0,0,3.19.5c2.2,0,3.55-.64,3.55-2.45,0-2-2.27-2.3-4.65-2.84-2.7-.6-5.54-1.45-5.54-5.22,0-4.29,3.58-5.89,7.42-5.89a17.94,17.94,0,0,1,6,1v4.79Z"/></svg>
