<svg xmlns="http://www.w3.org/2000/svg" viewBox="0 0 75 60.33"><defs><style>.cls-1{fill:#02a5a6;}</style></defs><title>question_bubbles</title><g id="Artwork"><path class="cls-1" d="M70.82,39.32a14.09,14.09,0,0,1-8.82,13v5.41a1.7,1.7,0,0,1-1.07,1.56,2.08,2.08,0,0,1-.64.14,1.67,1.67,0,0,1-1.21-.5l-5.62-5.62H45.14a13.92,13.92,0,0,1-12.52-7.68,1.07,1.07,0,0,1,1.92-.92,11.84,11.84,0,0,0,10.6,6.54h8.75a1.49,1.49,0,0,1,.78.28l5.19,5.19V51.62a1.07,1.07,0,0,1,.71-1A11.86,11.86,0,0,0,59,27.72a1,1,0,0,1,.36-2.06A13.76,13.76,0,0,1,70.82,39.32ZM1.82,21A18.09,18.09,0,0,1,19.89,3H35.32a18.07,18.07,0,1,1,0,36.14H24.15l-7.47,7.47a1.94,1.94,0,0,1-1.35.57,1.91,1.91,0,0,1-1.92-1.92V37.89A18,18,0,0,1,1.82,21ZM4,21A15.92,15.92,0,0,0,14.84,36.12a1.07,1.07,0,0,1,.71,1v7.61l7.4-7.4a1.07,1.07,0,0,1,.78-.28H35.25a15.93,15.93,0,1,0,0-31.87H19.82A15.79,15.79,0,0,0,4,21Zm22.83,7.54a1.07,1.07,0,0,0-.28.78,1.49,1.49,0,0,0,.28.78,1.07,1.07,0,0,0,.78.28,1.49,1.49,0,0,0,.78-.28,1.07,1.07,0,0,0,.28-.78,1.49,1.49,0,0,0-.28-.78A1.28,1.28,0,0,0,26.79,28.58Zm-3-11a1.09,1.09,0,0,0,1.07-1.07,2.77,2.77,0,0,1,1-2.13,2.92,2.92,0,0,1,2.28-.57,2.77,2.77,0,0,1,2.06,2.06,2.62,2.62,0,0,1-1,2.7,6.81,6.81,0,0,0-2.7,5.34,1.07,1.07,0,0,0,2.13,0,4.9,4.9,0,0,1,1.92-3.7,4.84,4.84,0,0,0,1.78-4.84,4.71,4.71,0,0,0-3.7-3.7,4.85,4.85,0,0,0-4.05,1,4.79,4.79,0,0,0-1.78,3.77A1,1,0,0,0,23.8,17.55Z"/></g></svg>