<svg width="80" height="80" xmlns="http://www.w3.org/2000/svg" xmlns:xlink="http://www.w3.org/1999/xlink" viewBox="0 0 131.2 36">
  <defs>
    <g id="icon">
      <path d="M32.77,6.73c0-.18,0-0.34,0-0.5l-13.68,19a3.25,3.25,0,0,1-5.32-.06l0,0L3.79,10.58h7.27l5.51,7.26,12.6-15A29.19,29.19,0,0,0,16.4,0C7,0,1.2,4.22,1,4.4A2.29,2.29,0,0,0,0,6.19q0,0.25,0,.54A39.72,39.72,0,0,0,1.69,20.45,25.49,25.49,0,0,0,15.4,35.77a2.29,2.29,0,0,0,2,0A25.49,25.49,0,0,0,31.11,20.45,39.72,39.72,0,0,0,32.77,6.73Z"/>
    </g>
  </defs>
  <use xlink:href="#icon" x="0" y="0" fill="#4d4d4d" />
  <use xlink:href="#icon" x="32.8" y="0" fill="#b3b3b3" />
  <use xlink:href="#icon" x="65.6" y="0" fill="#ffffff" />
  <use xlink:href="#icon" x="98.4" y="0" fill="#00a4a5" />
</svg>
