<svg width="80" height="80" xmlns="http://www.w3.org/2000/svg" xmlns:xlink="http://www.w3.org/1999/xlink" viewBox="0 0 144 36">
  <defs>
    <g id="icon">
      <path class="cls-1" d="M6663.42,803.95a18.06,18.06,0,0,1,18.25,18.32A18,18,0,1,1,6663.42,803.95Zm0.15,3.76a8.77,8.77,0,0,0-1.9.12c-0.34.07-.68,0.11-1,0.19s-0.92.23-1.37,0.38a14,14,0,0,0-1.44.53,12.51,12.51,0,0,0-2.42,1.39c-0.48.36-1,.72-1.4,1.12s-0.62.63-.92,1a12.56,12.56,0,0,0-1.18,1.49,13.4,13.4,0,0,0-1.4,2.52c-0.18.45-.35,0.9-0.49,1.36a1.34,1.34,0,0,0-.09.86,1.06,1.06,0,0,0,.46.61,1.92,1.92,0,0,0,.93.16,8.29,8.29,0,0,0,1.31,0c0.32,0,.65-0.08,1-0.12a5.64,5.64,0,0,0,1.31-.38,6.51,6.51,0,0,0,2-1.27c0.36-.32.66-0.69,1-1a11.74,11.74,0,0,1,1-.9,9.75,9.75,0,0,1,1.19-.82,5.53,5.53,0,0,1,1.71-.65,5.22,5.22,0,0,1,.9-0.17,9.12,9.12,0,0,1,2.77.17,11.14,11.14,0,0,1,1.14.34,7,7,0,0,1,2.25,1.47c0.34,0.34.64,0.73,1,1.07a11.13,11.13,0,0,0,.88.81,3.85,3.85,0,0,0,.7.46c0.47,0.24.95,0.47,1.44,0.67a4.39,4.39,0,0,0,.78.2c0.19,0,.38.05,0.57,0.08,0.35,0,.71.09,1.07,0.11a8.8,8.8,0,0,0,.9,0,2.09,2.09,0,0,0,.58-0.08,0.94,0.94,0,0,0,.67-0.93,2.09,2.09,0,0,0-.13-0.68c-0.21-.54-0.39-1.09-0.62-1.62a10.63,10.63,0,0,0-1.13-2,17.39,17.39,0,0,0-1.1-1.45,14.81,14.81,0,0,0-1.9-1.81,14.28,14.28,0,0,0-1.83-1.24c-0.4-.22-0.8-0.44-1.22-0.63s-1-.39-1.49-0.57c-0.25-.09-0.52-0.14-0.78-0.21l-0.62-.14-0.53-.1-0.57-.07c-0.29,0-.57-0.09-0.86-0.11S6663.92,807.71,6663.57,807.71Zm0.09,22v0l-1.12.08a0.86,0.86,0,0,0-.67.42c-0.25.38-.46,0.79-0.69,1.18-0.48.83-1,1.66-1.44,2.49a2.3,2.3,0,0,0-.33.7,1,1,0,0,0,.9,1.22c0.26,0.06.52,0.09,0.78,0.14s0.7,0.13,1.05.17a5.79,5.79,0,0,0,.81.06c0.54,0,1.07,0,1.61-.05l1-.07a5.6,5.6,0,0,0,.65-0.07,9,9,0,0,0,1-.25,1.1,1.1,0,0,0,.49-0.29,1,1,0,0,0,.11-1.19l-1.19-2.07c-0.32-.55-0.63-1.11-1-1.65a3,3,0,0,0-.43-0.56,1.08,1.08,0,0,0-.78-0.24h-0.76Zm-11.89-5.23h-0.69a1.46,1.46,0,0,0-.81.23,1.09,1.09,0,0,0-.38,1,11.31,11.31,0,0,0,.38,1.21c0.24,0.58.51,1.15,0.79,1.72a10.7,10.7,0,0,0,1,1.6,12.66,12.66,0,0,0,1.35,1.59,1,1,0,0,0,1,.35,0.82,0.82,0,0,0,.49-0.3c0.23-.34.44-0.69,0.64-1s0.57-1,.85-1.48,0.64-1.09.94-1.65a1,1,0,0,0,.14-0.55,1.25,1.25,0,0,0-.38-0.73,4.88,4.88,0,0,0-1.12-.83c-0.4-.22-0.82-0.42-1.24-0.6a4.81,4.81,0,0,0-.73-0.22c-0.22-.06-0.44-0.1-0.67-0.13s-0.51-.09-0.77-0.11S6652,824.53,6651.77,824.53Zm18.07,2.78a1.81,1.81,0,0,0,.12.35q0.38,0.71.79,1.41l1.56,2.67a1,1,0,0,0,.84.48,0.92,0.92,0,0,0,.7-0.32c0.32-.36.64-0.71,0.95-1.07A11,11,0,0,0,6676,829c0.23-.41.45-0.83,0.64-1.26s0.38-1,.55-1.45a2.06,2.06,0,0,0,.17-1,0.87,0.87,0,0,0-.47-0.65,1.35,1.35,0,0,0-.73-0.18c-0.45,0-.9,0-1.34.05a5.14,5.14,0,0,0-1.55.2,9.68,9.68,0,0,0-1.18.42,8.78,8.78,0,0,0-1.17.67,5.94,5.94,0,0,0-.81.68A1.09,1.09,0,0,0,6669.84,827.31Z" transform="translate(-6645.65 -803.95)"/>
    </g>
  </defs>
  <use xlink:href="#icon" x="0" y="0" fill="#4d4d4d" />
  <use xlink:href="#icon" x="36" y="0" fill="#b3b3b3" />
  <use xlink:href="#icon" x="72" y="0" fill="#ffffff" />
  <use xlink:href="#icon" x="108" y="0" fill="#00a4a5" />
</svg>
