<svg width="80" height="80" xmlns="http://www.w3.org/2000/svg" xmlns:xlink="http://www.w3.org/1999/xlink" viewBox="0 0 680 170">
  <defs>
    <g id="a">
      <path class="cls-1" d="M148.59,149.49l-0.6.15q-0.6.15-1.8,0.37t-2.84.6c-1.1.25-2.47,0.5-4.11,0.75s-3.42.47-5.31,0.67A423.22,423.22,0,0,1,85,154.43q-43.84,0-63.59-4.94a5,5,0,0,1-2.77-2.17,4.5,4.5,0,0,1-.52-3.52,37.8,37.8,0,0,1,7.33-16.31,56.88,56.88,0,0,1,14.07-12,90.19,90.19,0,0,1,10.62-4.94q4.79-1.94,7.48-3.14a28.14,28.14,0,0,0,5.76-3.59,11.32,11.32,0,0,0,4-4.94Q69.14,93.68,63,84.1,44,53.88,56.27,32.78A34.33,34.33,0,0,1,68.54,20.14,31.5,31.5,0,0,1,85,15.57a31.12,31.12,0,0,1,16.38,4.56,35.76,35.76,0,0,1,12.34,12.64q12.27,21-6.58,51.33-6,9.42-4.49,14.81a11.45,11.45,0,0,0,5.54,6.29A80.29,80.29,0,0,0,120,110.58a114.79,114.79,0,0,1,10.47,4.94,57,57,0,0,1,14.07,12,37.85,37.85,0,0,1,7.33,16.31,4.51,4.51,0,0,1-.52,3.52A5,5,0,0,1,148.59,149.49Z"/>
    </g>
  </defs>
  <use xlink:href="#a" fill="#4d4d4d"/>
  <use xlink:href="#a" x="170" fill="#b3b3b3"/>
  <use xlink:href="#a" x="340" fill="#fff"/>
  <use xlink:href="#a" x="510" fill="#00a4a5"/>
</svg>
