<svg width="80" height="80" xmlns="http://www.w3.org/2000/svg" xmlns:xlink="http://www.w3.org/1999/xlink" viewBox="0 0 180 36">
  <defs>
    <g id="icon">
      <path d="M2.21,27c0.09-2-.16-4.48.12-7a5.81,5.81,0,0,1,.17-0.85c0.32-1.21.33-1.21-1-1.25C0,17.85-.27,17.43.22,16c0.74-2.15,1.1-2.45,3.33-2.46a1.06,1.06,0,0,0,1.16-.83c0.94-2.65,2-5.27,2.87-7.93a5.45,5.45,0,0,1,3-3.19A16.36,16.36,0,0,1,17.33.15,70.76,70.76,0,0,1,30.94.52a15.06,15.06,0,0,1,2.81.76,5.54,5.54,0,0,1,3.67,3.66c0.83,2.53,1.88,5,2.75,7.51a1.27,1.27,0,0,0,1.52,1.09c2.32-.26,2.83,1.4,3.28,3.34a0.75,0.75,0,0,1-.69.93,4.89,4.89,0,0,1-1.18.08c-0.82-.06-1,0.22-0.71,1a7,7,0,0,1,.38,2.56q0,6.07,0,12.13c0,1.93-.5,2.42-2.45,2.42-1.48,0-3,0-4.44,0A1.78,1.78,0,0,1,33.82,34c0-.82.36-1.88-0.18-2.4s-1.65-.18-2.5-0.18c-6.28,0-12.57,0-18.85,0a0.92,0.92,0,0,0-1.15,1.14c0,3.3-.12,3.42-3.38,3.42-1.16,0-2.31,0-3.47,0-1.46,0-2.05-.58-2.07-2C2.19,31.8,2.21,29.63,2.21,27ZM22.54,15.74a62,62,0,0,0,13.68-1.31c0.88-.19,1-0.53.76-1.32-0.63-2.11-1.4-4.17-2-6.27a3.75,3.75,0,0,0-3.31-2.92,58.66,58.66,0,0,0-18.1-.11A4,4,0,0,0,10,6.86C9.32,9,8.61,11,8,13.15c-0.26.87,0,1.11,0.83,1.28A61.74,61.74,0,0,0,22.54,15.74ZM9.58,25c0.75,0,1.51,0,2.26-.11s1.55-.22,1.71-1.17A1.54,1.54,0,0,0,12.4,22.1a30.72,30.72,0,0,0-4.66-2c-2.64-.82-3.44-0.19-3.39,2.54a1.82,1.82,0,0,0,1.59,2A18.33,18.33,0,0,0,9.58,25Zm25.77,0a14.94,14.94,0,0,0,3.87-.38,1.66,1.66,0,0,0,1.4-1.78c0-.47,0-0.94-0.06-1.4a1.51,1.51,0,0,0-2-1.57,19.8,19.8,0,0,0-6.49,2.57,1.19,1.19,0,0,0-.67,1.36,1.34,1.34,0,0,0,1.21,1.06A14.12,14.12,0,0,0,35.35,25Z"/>
    </g>
  </defs>
  <use xlink:href="#icon" x="0" y="0" fill="#4d4d4d" />
  <use xlink:href="#icon" x="45" y="0" fill="#b3b3b3" />
  <use xlink:href="#icon" x="90" y="0" fill="#ffffff" />
  <use xlink:href="#icon" x="135" y="0" fill="#00a4a5" />
</svg>
