<svg width="80" height="80" xmlns="http://www.w3.org/2000/svg" xmlns:xlink="http://www.w3.org/1999/xlink" viewBox="0 0 144 36">
  <defs>
    <g id="icon">
      <path d="M6677.24,820.43a2.33,2.33,0,0,1-2-2.61,2.22,2.22,0,0,1,1.57-1.88,2.39,2.39,0,0,1,2.94,1.44,1,1,0,0,0,.45-1.08,0.8,0.8,0,0,1,.53-1.09,0.84,0.84,0,0,1,1,.75,2.57,2.57,0,0,1-.56,2.27c-0.4.49-.88,0.91-1.32,1.36a2,2,0,0,0-.36.43,4.5,4.5,0,0,1-2.61,2.44,0.49,0.49,0,0,0-.11.08c0.15,0.63.34,1.26,0.45,1.91a10.79,10.79,0,0,1-2.28,8.83,22.31,22.31,0,0,1-2.12,2.15,0.59,0.59,0,0,0-.22.66,8.06,8.06,0,0,1,.32,1.66,2.12,2.12,0,0,1-1.87,2.18,2.21,2.21,0,0,1-2.34-1.47,2.66,2.66,0,0,1-.09-0.31,0.3,0.3,0,0,0-.47-0.25,14.89,14.89,0,0,1-5.5.67,17.87,17.87,0,0,1-2.07-.29,0.5,0.5,0,0,0-.69.35,2.14,2.14,0,0,1-2.28,1.3,2.22,2.22,0,0,1-1.89-2.11,2.41,2.41,0,0,1,.12-0.75,0.57,0.57,0,0,0-.3-0.75c-2.76-1.74-5.49-3.51-8.25-5.25a2.27,2.27,0,0,1-.95-1.15,10.41,10.41,0,0,1-.8-3.69,7.49,7.49,0,0,1,.74-3.36,1.56,1.56,0,0,1,1.49-.88c0.94-.09,1.87-0.21,2.8-0.34a0.8,0.8,0,0,0,.47-0.31c0.62-.86,1.2-1.75,1.82-2.61a0.41,0.41,0,0,0,0-.57,9.34,9.34,0,0,0-2.15-2.12l-1.51-1.07c1.11-.52,2.09-1,3.12-1.46a5,5,0,0,1,2.7-.3,4.63,4.63,0,0,1,2.88,1.58,0.53,0.53,0,0,0,.67.17,14.29,14.29,0,0,1,6.44-.8,13.72,13.72,0,0,1,10.83,6.53,0.53,0.53,0,0,0,.73.27,7.16,7.16,0,0,0,.71-0.39ZM6664.93,816c-0.49,0-1,.07-1.48.14a6.86,6.86,0,0,0-1.09.27,1,1,0,1,0,.56,1.84,5.83,5.83,0,0,1,4.14.14,0.93,0.93,0,0,0,1.25-.49,0.94,0.94,0,0,0-.52-1.27A6.24,6.24,0,0,0,6664.93,816Zm-11.25,7.61a3,3,0,0,0,.46,1.84,1.11,1.11,0,0,0,2,0,3.41,3.41,0,0,0,0-3.61,1.12,1.12,0,0,0-2.06,0A3,3,0,0,0,6653.68,823.66Zm24.66-5.34a0.84,0.84,0,0,0-.83-0.93,0.71,0.71,0,0,0-.73.74,0.81,0.81,0,0,0,.9.78C6678.19,818.88,6678.35,818.74,6678.35,818.32Z" transform="translate(-6645.53 -803.95)"/>
      <path d="M6673.5,808.16a4.21,4.21,0,1,1-4.18-4.21A4.23,4.23,0,0,1,6673.5,808.16Z" transform="translate(-6645.53 -803.95)"/>
    </g>
  </defs>
  <use xlink:href="#icon" x="0" y="0" fill="#4d4d4d" />
  <use xlink:href="#icon" x="36" y="0" fill="#b3b3b3" />
  <use xlink:href="#icon" x="72" y="0" fill="#ffffff" />
  <use xlink:href="#icon" x="108" y="0" fill="#00a4a5" />
</svg>
