<?xml version="1.0" encoding="UTF-8" standalone="no"?>
<svg width="55px" height="52px" viewBox="0 0 55 52" version="1.1" xmlns="http://www.w3.org/2000/svg" xmlns:xlink="http://www.w3.org/1999/xlink">
    <!-- Generator: Sketch 40.2 (33826) - http://www.bohemiancoding.com/sketch -->
    <title>Page 1</title>
    <desc>Created with Sketch.</desc>
    <defs></defs>
    <g id="Page-1" stroke="none" stroke-width="1" fill="none" fill-rule="evenodd">
        <path d="M38.5317594,52 C38.3998754,52 38.2612087,51.9826667 38.122542,51.9472464 L31.9352957,50.3834783 C31.2223681,50.2041159 30.4250348,49.5771014 30.080629,48.9267246 L23.724571,36.9305507 C23.5452087,36.5921739 23.0854986,36.0917681 22.7591797,35.8822609 L20.1448609,34.2077101 C19.8562232,34.0223188 19.2797015,33.8602899 18.9081652,33.8602899 L18.8674696,33.8602899 L17.1303681,33.9303768 C16.8831797,33.9424348 16.4882812,34.1805797 16.3624261,34.3961159 L15.4317015,35.9975652 C15.116687,36.5416812 14.5220783,36.8808116 13.8830058,36.8808116 C13.6064261,36.8808116 13.3298464,36.816 13.0856725,36.6893913 L9.44416523,34.8317101 C8.81413625,34.5106667 8.14567248,33.7743768 7.8864261,33.1149565 L6.59697683,29.8472464 C6.44700581,29.4704348 6.04984639,28.8645217 5.75819422,28.5788986 L0.444397119,23.3155942 C-0.141168098,22.7353043 -0.00853041726,22.1964638 0.0736145103,21.9907246 C0.159527554,21.7842319 0.444397119,21.3102029 1.26886089,21.3102029 L13.7270058,21.3102029 C13.8242232,21.3102029 13.9184261,21.2190145 13.9214406,21.1217971 L14.6871218,1.67530435 C14.722542,0.750608696 15.5055565,0 16.4294986,0 L16.4649189,0 L26.6712377,0.217797101 C27.6132667,0.238144928 28.3819623,1.02115942 28.3819623,1.96318841 L28.3819623,10.412058 C28.3819623,10.5861449 28.5643391,10.8333333 28.7293826,10.8830725 L36.4510058,13.2765797 C36.8391218,13.3971594 37.522658,13.4943768 37.9695565,13.4943768 L38.0373826,13.4943768 L45.5675855,13.2886377 C46.1923391,13.2705507 47.1042232,13.4182609 47.6814986,13.624 L50.6666,14.6926377 C51.4699623,14.9782609 52.0736145,15.8381449 52.0736145,16.6912464 L52.0736145,21.4134493 C52.0736145,21.7812174 52.2590058,22.4263188 52.4534406,22.7383188 L54.190542,25.5116522 C54.5673536,26.1115362 54.7557594,27.0950145 54.6291507,27.7928696 L53.8227739,32.2528116 C53.6901362,32.9830725 53.1068319,33.8188406 52.4654986,34.1926377 L42.0293247,40.3067826 C41.7173247,40.489913 41.266658,40.9722319 41.1076435,41.2962899 L39.0329189,45.5090435 C38.8852087,45.805971 38.8173826,46.4156522 38.8972667,46.7366957 L39.7654406,50.3133913 C39.8777305,50.7693333 39.7978464,51.1996522 39.5416145,51.5229565 C39.3125131,51.8289275 38.9409768,52 38.5317594,52 L38.5317594,52 Z" fill="#00A4A5"></path>
    </g>
</svg>